%TF.GenerationSoftware,KiCad,Pcbnew,(6.0.0)*%
%TF.CreationDate,2022-08-30T21:50:04+08:00*%
%TF.ProjectId,F1C200S-HomeAssistant-Board,46314332-3030-4532-9d48-6f6d65417373,rev?*%
%TF.SameCoordinates,Original*%
%TF.FileFunction,Legend,Top*%
%TF.FilePolarity,Positive*%
%FSLAX46Y46*%
G04 Gerber Fmt 4.6, Leading zero omitted, Abs format (unit mm)*
G04 Created by KiCad (PCBNEW (6.0.0)) date 2022-08-30 21:50:04*
%MOMM*%
%LPD*%
G01*
G04 APERTURE LIST*
%ADD10C,0.150000*%
%ADD11C,0.010000*%
%ADD12C,0.120000*%
%ADD13C,0.250000*%
%ADD14C,0.100000*%
%ADD15C,0.300000*%
%ADD16C,0.240000*%
G04 APERTURE END LIST*
D10*
X71461904Y-135752380D02*
X72080952Y-135752380D01*
X71747619Y-136133333D01*
X71890476Y-136133333D01*
X71985714Y-136180952D01*
X72033333Y-136228571D01*
X72080952Y-136323809D01*
X72080952Y-136561904D01*
X72033333Y-136657142D01*
X71985714Y-136704761D01*
X71890476Y-136752380D01*
X71604761Y-136752380D01*
X71509523Y-136704761D01*
X71461904Y-136657142D01*
X72366666Y-135752380D02*
X72700000Y-136752380D01*
X73033333Y-135752380D01*
X73557142Y-135752380D02*
X73652380Y-135752380D01*
X73747619Y-135800000D01*
X73795238Y-135847619D01*
X73842857Y-135942857D01*
X73890476Y-136133333D01*
X73890476Y-136371428D01*
X73842857Y-136561904D01*
X73795238Y-136657142D01*
X73747619Y-136704761D01*
X73652380Y-136752380D01*
X73557142Y-136752380D01*
X73461904Y-136704761D01*
X73414285Y-136657142D01*
X73366666Y-136561904D01*
X73319047Y-136371428D01*
X73319047Y-136133333D01*
X73366666Y-135942857D01*
X73414285Y-135847619D01*
X73461904Y-135800000D01*
X73557142Y-135752380D01*
X54276190Y-146628571D02*
X53942857Y-146628571D01*
X53942857Y-147152380D02*
X53942857Y-146152380D01*
X54419047Y-146152380D01*
X55323809Y-147152380D02*
X54752380Y-147152380D01*
X55038095Y-147152380D02*
X55038095Y-146152380D01*
X54942857Y-146295238D01*
X54847619Y-146390476D01*
X54752380Y-146438095D01*
X56323809Y-147057142D02*
X56276190Y-147104761D01*
X56133333Y-147152380D01*
X56038095Y-147152380D01*
X55895238Y-147104761D01*
X55800000Y-147009523D01*
X55752380Y-146914285D01*
X55704761Y-146723809D01*
X55704761Y-146580952D01*
X55752380Y-146390476D01*
X55800000Y-146295238D01*
X55895238Y-146200000D01*
X56038095Y-146152380D01*
X56133333Y-146152380D01*
X56276190Y-146200000D01*
X56323809Y-146247619D01*
X56704761Y-146247619D02*
X56752380Y-146200000D01*
X56847619Y-146152380D01*
X57085714Y-146152380D01*
X57180952Y-146200000D01*
X57228571Y-146247619D01*
X57276190Y-146342857D01*
X57276190Y-146438095D01*
X57228571Y-146580952D01*
X56657142Y-147152380D01*
X57276190Y-147152380D01*
X57895238Y-146152380D02*
X57990476Y-146152380D01*
X58085714Y-146200000D01*
X58133333Y-146247619D01*
X58180952Y-146342857D01*
X58228571Y-146533333D01*
X58228571Y-146771428D01*
X58180952Y-146961904D01*
X58133333Y-147057142D01*
X58085714Y-147104761D01*
X57990476Y-147152380D01*
X57895238Y-147152380D01*
X57800000Y-147104761D01*
X57752380Y-147057142D01*
X57704761Y-146961904D01*
X57657142Y-146771428D01*
X57657142Y-146533333D01*
X57704761Y-146342857D01*
X57752380Y-146247619D01*
X57800000Y-146200000D01*
X57895238Y-146152380D01*
X58847619Y-146152380D02*
X58942857Y-146152380D01*
X59038095Y-146200000D01*
X59085714Y-146247619D01*
X59133333Y-146342857D01*
X59180952Y-146533333D01*
X59180952Y-146771428D01*
X59133333Y-146961904D01*
X59085714Y-147057142D01*
X59038095Y-147104761D01*
X58942857Y-147152380D01*
X58847619Y-147152380D01*
X58752380Y-147104761D01*
X58704761Y-147057142D01*
X58657142Y-146961904D01*
X58609523Y-146771428D01*
X58609523Y-146533333D01*
X58657142Y-146342857D01*
X58704761Y-146247619D01*
X58752380Y-146200000D01*
X58847619Y-146152380D01*
X59561904Y-147104761D02*
X59704761Y-147152380D01*
X59942857Y-147152380D01*
X60038095Y-147104761D01*
X60085714Y-147057142D01*
X60133333Y-146961904D01*
X60133333Y-146866666D01*
X60085714Y-146771428D01*
X60038095Y-146723809D01*
X59942857Y-146676190D01*
X59752380Y-146628571D01*
X59657142Y-146580952D01*
X59609523Y-146533333D01*
X59561904Y-146438095D01*
X59561904Y-146342857D01*
X59609523Y-146247619D01*
X59657142Y-146200000D01*
X59752380Y-146152380D01*
X59990476Y-146152380D01*
X60133333Y-146200000D01*
X61323809Y-147152380D02*
X61323809Y-146152380D01*
X61323809Y-146628571D02*
X61895238Y-146628571D01*
X61895238Y-147152380D02*
X61895238Y-146152380D01*
X62323809Y-146866666D02*
X62800000Y-146866666D01*
X62228571Y-147152380D02*
X62561904Y-146152380D01*
X62895238Y-147152380D01*
X63180952Y-147104761D02*
X63323809Y-147152380D01*
X63561904Y-147152380D01*
X63657142Y-147104761D01*
X63704761Y-147057142D01*
X63752380Y-146961904D01*
X63752380Y-146866666D01*
X63704761Y-146771428D01*
X63657142Y-146723809D01*
X63561904Y-146676190D01*
X63371428Y-146628571D01*
X63276190Y-146580952D01*
X63228571Y-146533333D01*
X63180952Y-146438095D01*
X63180952Y-146342857D01*
X63228571Y-146247619D01*
X63276190Y-146200000D01*
X63371428Y-146152380D01*
X63609523Y-146152380D01*
X63752380Y-146200000D01*
X64133333Y-147104761D02*
X64276190Y-147152380D01*
X64514285Y-147152380D01*
X64609523Y-147104761D01*
X64657142Y-147057142D01*
X64704761Y-146961904D01*
X64704761Y-146866666D01*
X64657142Y-146771428D01*
X64609523Y-146723809D01*
X64514285Y-146676190D01*
X64323809Y-146628571D01*
X64228571Y-146580952D01*
X64180952Y-146533333D01*
X64133333Y-146438095D01*
X64133333Y-146342857D01*
X64180952Y-146247619D01*
X64228571Y-146200000D01*
X64323809Y-146152380D01*
X64561904Y-146152380D01*
X64704761Y-146200000D01*
X66228571Y-146628571D02*
X66371428Y-146676190D01*
X66419047Y-146723809D01*
X66466666Y-146819047D01*
X66466666Y-146961904D01*
X66419047Y-147057142D01*
X66371428Y-147104761D01*
X66276190Y-147152380D01*
X65895238Y-147152380D01*
X65895238Y-146152380D01*
X66228571Y-146152380D01*
X66323809Y-146200000D01*
X66371428Y-146247619D01*
X66419047Y-146342857D01*
X66419047Y-146438095D01*
X66371428Y-146533333D01*
X66323809Y-146580952D01*
X66228571Y-146628571D01*
X65895238Y-146628571D01*
X67038095Y-147152380D02*
X66942857Y-147104761D01*
X66895238Y-147057142D01*
X66847619Y-146961904D01*
X66847619Y-146676190D01*
X66895238Y-146580952D01*
X66942857Y-146533333D01*
X67038095Y-146485714D01*
X67180952Y-146485714D01*
X67276190Y-146533333D01*
X67323809Y-146580952D01*
X67371428Y-146676190D01*
X67371428Y-146961904D01*
X67323809Y-147057142D01*
X67276190Y-147104761D01*
X67180952Y-147152380D01*
X67038095Y-147152380D01*
X68228571Y-147152380D02*
X68228571Y-146628571D01*
X68180952Y-146533333D01*
X68085714Y-146485714D01*
X67895238Y-146485714D01*
X67800000Y-146533333D01*
X68228571Y-147104761D02*
X68133333Y-147152380D01*
X67895238Y-147152380D01*
X67800000Y-147104761D01*
X67752380Y-147009523D01*
X67752380Y-146914285D01*
X67800000Y-146819047D01*
X67895238Y-146771428D01*
X68133333Y-146771428D01*
X68228571Y-146723809D01*
X68704761Y-147152380D02*
X68704761Y-146485714D01*
X68704761Y-146676190D02*
X68752380Y-146580952D01*
X68800000Y-146533333D01*
X68895238Y-146485714D01*
X68990476Y-146485714D01*
X69752380Y-147152380D02*
X69752380Y-146152380D01*
X69752380Y-147104761D02*
X69657142Y-147152380D01*
X69466666Y-147152380D01*
X69371428Y-147104761D01*
X69323809Y-147057142D01*
X69276190Y-146961904D01*
X69276190Y-146676190D01*
X69323809Y-146580952D01*
X69371428Y-146533333D01*
X69466666Y-146485714D01*
X69657142Y-146485714D01*
X69752380Y-146533333D01*
X70895238Y-146485714D02*
X71133333Y-147152380D01*
X71371428Y-146485714D01*
X72276190Y-147152380D02*
X71704761Y-147152380D01*
X71990476Y-147152380D02*
X71990476Y-146152380D01*
X71895238Y-146295238D01*
X71800000Y-146390476D01*
X71704761Y-146438095D01*
X72704761Y-147057142D02*
X72752380Y-147104761D01*
X72704761Y-147152380D01*
X72657142Y-147104761D01*
X72704761Y-147057142D01*
X72704761Y-147152380D01*
X73371428Y-146152380D02*
X73466666Y-146152380D01*
X73561904Y-146200000D01*
X73609523Y-146247619D01*
X73657142Y-146342857D01*
X73704761Y-146533333D01*
X73704761Y-146771428D01*
X73657142Y-146961904D01*
X73609523Y-147057142D01*
X73561904Y-147104761D01*
X73466666Y-147152380D01*
X73371428Y-147152380D01*
X73276190Y-147104761D01*
X73228571Y-147057142D01*
X73180952Y-146961904D01*
X73133333Y-146771428D01*
X73133333Y-146533333D01*
X73180952Y-146342857D01*
X73228571Y-146247619D01*
X73276190Y-146200000D01*
X73371428Y-146152380D01*
X86909523Y-128947619D02*
X86957142Y-128900000D01*
X87052380Y-128852380D01*
X87290476Y-128852380D01*
X87385714Y-128900000D01*
X87433333Y-128947619D01*
X87480952Y-129042857D01*
X87480952Y-129138095D01*
X87433333Y-129280952D01*
X86861904Y-129852380D01*
X87480952Y-129852380D01*
X87766666Y-128852380D02*
X88100000Y-129852380D01*
X88433333Y-128852380D01*
X89242857Y-128852380D02*
X88766666Y-128852380D01*
X88719047Y-129328571D01*
X88766666Y-129280952D01*
X88861904Y-129233333D01*
X89100000Y-129233333D01*
X89195238Y-129280952D01*
X89242857Y-129328571D01*
X89290476Y-129423809D01*
X89290476Y-129661904D01*
X89242857Y-129757142D01*
X89195238Y-129804761D01*
X89100000Y-129852380D01*
X88861904Y-129852380D01*
X88766666Y-129804761D01*
X88719047Y-129757142D01*
X105709523Y-150904761D02*
X105852380Y-150952380D01*
X106090476Y-150952380D01*
X106185714Y-150904761D01*
X106233333Y-150857142D01*
X106280952Y-150761904D01*
X106280952Y-150666666D01*
X106233333Y-150571428D01*
X106185714Y-150523809D01*
X106090476Y-150476190D01*
X105900000Y-150428571D01*
X105804761Y-150380952D01*
X105757142Y-150333333D01*
X105709523Y-150238095D01*
X105709523Y-150142857D01*
X105757142Y-150047619D01*
X105804761Y-150000000D01*
X105900000Y-149952380D01*
X106138095Y-149952380D01*
X106280952Y-150000000D01*
X106900000Y-150476190D02*
X106900000Y-150952380D01*
X106566666Y-149952380D02*
X106900000Y-150476190D01*
X107233333Y-149952380D01*
X107519047Y-150904761D02*
X107661904Y-150952380D01*
X107900000Y-150952380D01*
X107995238Y-150904761D01*
X108042857Y-150857142D01*
X108090476Y-150761904D01*
X108090476Y-150666666D01*
X108042857Y-150571428D01*
X107995238Y-150523809D01*
X107900000Y-150476190D01*
X107709523Y-150428571D01*
X107614285Y-150380952D01*
X107566666Y-150333333D01*
X107519047Y-150238095D01*
X107519047Y-150142857D01*
X107566666Y-150047619D01*
X107614285Y-150000000D01*
X107709523Y-149952380D01*
X107947619Y-149952380D01*
X108090476Y-150000000D01*
X76761904Y-141152380D02*
X77380952Y-141152380D01*
X77047619Y-141533333D01*
X77190476Y-141533333D01*
X77285714Y-141580952D01*
X77333333Y-141628571D01*
X77380952Y-141723809D01*
X77380952Y-141961904D01*
X77333333Y-142057142D01*
X77285714Y-142104761D01*
X77190476Y-142152380D01*
X76904761Y-142152380D01*
X76809523Y-142104761D01*
X76761904Y-142057142D01*
X77666666Y-141152380D02*
X78000000Y-142152380D01*
X78333333Y-141152380D01*
X78571428Y-141152380D02*
X79190476Y-141152380D01*
X78857142Y-141533333D01*
X79000000Y-141533333D01*
X79095238Y-141580952D01*
X79142857Y-141628571D01*
X79190476Y-141723809D01*
X79190476Y-141961904D01*
X79142857Y-142057142D01*
X79095238Y-142104761D01*
X79000000Y-142152380D01*
X78714285Y-142152380D01*
X78619047Y-142104761D01*
X78571428Y-142057142D01*
X98480952Y-138652380D02*
X97909523Y-138652380D01*
X98195238Y-138652380D02*
X98195238Y-137652380D01*
X98100000Y-137795238D01*
X98004761Y-137890476D01*
X97909523Y-137938095D01*
X98766666Y-137652380D02*
X99100000Y-138652380D01*
X99433333Y-137652380D01*
X99719047Y-137747619D02*
X99766666Y-137700000D01*
X99861904Y-137652380D01*
X100100000Y-137652380D01*
X100195238Y-137700000D01*
X100242857Y-137747619D01*
X100290476Y-137842857D01*
X100290476Y-137938095D01*
X100242857Y-138080952D01*
X99671428Y-138652380D01*
X100290476Y-138652380D01*
X54219047Y-149152380D02*
X54219047Y-148152380D01*
X54219047Y-149104761D02*
X54123809Y-149152380D01*
X53933333Y-149152380D01*
X53838095Y-149104761D01*
X53790476Y-149057142D01*
X53742857Y-148961904D01*
X53742857Y-148676190D01*
X53790476Y-148580952D01*
X53838095Y-148533333D01*
X53933333Y-148485714D01*
X54123809Y-148485714D01*
X54219047Y-148533333D01*
X55076190Y-149104761D02*
X54980952Y-149152380D01*
X54790476Y-149152380D01*
X54695238Y-149104761D01*
X54647619Y-149009523D01*
X54647619Y-148628571D01*
X54695238Y-148533333D01*
X54790476Y-148485714D01*
X54980952Y-148485714D01*
X55076190Y-148533333D01*
X55123809Y-148628571D01*
X55123809Y-148723809D01*
X54647619Y-148819047D01*
X55504761Y-149104761D02*
X55599999Y-149152380D01*
X55790476Y-149152380D01*
X55885714Y-149104761D01*
X55933333Y-149009523D01*
X55933333Y-148961904D01*
X55885714Y-148866666D01*
X55790476Y-148819047D01*
X55647619Y-148819047D01*
X55552380Y-148771428D01*
X55504761Y-148676190D01*
X55504761Y-148628571D01*
X55552380Y-148533333D01*
X55647619Y-148485714D01*
X55790476Y-148485714D01*
X55885714Y-148533333D01*
X56361904Y-149152380D02*
X56361904Y-148485714D01*
X56361904Y-148152380D02*
X56314285Y-148200000D01*
X56361904Y-148247619D01*
X56409523Y-148200000D01*
X56361904Y-148152380D01*
X56361904Y-148247619D01*
X57266666Y-148485714D02*
X57266666Y-149295238D01*
X57219047Y-149390476D01*
X57171428Y-149438095D01*
X57076190Y-149485714D01*
X56933333Y-149485714D01*
X56838095Y-149438095D01*
X57266666Y-149104761D02*
X57171428Y-149152380D01*
X56980952Y-149152380D01*
X56885714Y-149104761D01*
X56838095Y-149057142D01*
X56790476Y-148961904D01*
X56790476Y-148676190D01*
X56838095Y-148580952D01*
X56885714Y-148533333D01*
X56980952Y-148485714D01*
X57171428Y-148485714D01*
X57266666Y-148533333D01*
X57742857Y-148485714D02*
X57742857Y-149152380D01*
X57742857Y-148580952D02*
X57790476Y-148533333D01*
X57885714Y-148485714D01*
X58028571Y-148485714D01*
X58123809Y-148533333D01*
X58171428Y-148628571D01*
X58171428Y-149152380D01*
X59028571Y-149104761D02*
X58933333Y-149152380D01*
X58742857Y-149152380D01*
X58647619Y-149104761D01*
X58599999Y-149009523D01*
X58599999Y-148628571D01*
X58647619Y-148533333D01*
X58742857Y-148485714D01*
X58933333Y-148485714D01*
X59028571Y-148533333D01*
X59076190Y-148628571D01*
X59076190Y-148723809D01*
X58599999Y-148819047D01*
X59933333Y-149152380D02*
X59933333Y-148152380D01*
X59933333Y-149104761D02*
X59838095Y-149152380D01*
X59647619Y-149152380D01*
X59552380Y-149104761D01*
X59504761Y-149057142D01*
X59457142Y-148961904D01*
X59457142Y-148676190D01*
X59504761Y-148580952D01*
X59552380Y-148533333D01*
X59647619Y-148485714D01*
X59838095Y-148485714D01*
X59933333Y-148533333D01*
X61171428Y-149152380D02*
X61171428Y-148152380D01*
X61171428Y-148533333D02*
X61266666Y-148485714D01*
X61457142Y-148485714D01*
X61552380Y-148533333D01*
X61600000Y-148580952D01*
X61647619Y-148676190D01*
X61647619Y-148961904D01*
X61600000Y-149057142D01*
X61552380Y-149104761D01*
X61457142Y-149152380D01*
X61266666Y-149152380D01*
X61171428Y-149104761D01*
X61980952Y-148485714D02*
X62219047Y-149152380D01*
X62457142Y-148485714D02*
X62219047Y-149152380D01*
X62123809Y-149390476D01*
X62076190Y-149438095D01*
X61980952Y-149485714D01*
X64028571Y-149104761D02*
X63933333Y-149152380D01*
X63742857Y-149152380D01*
X63647619Y-149104761D01*
X63600000Y-149057142D01*
X63552380Y-148961904D01*
X63552380Y-148676190D01*
X63600000Y-148580952D01*
X63647619Y-148533333D01*
X63742857Y-148485714D01*
X63933333Y-148485714D01*
X64028571Y-148533333D01*
X64457142Y-149152380D02*
X64457142Y-148152380D01*
X64885714Y-149152380D02*
X64885714Y-148628571D01*
X64838095Y-148533333D01*
X64742857Y-148485714D01*
X64599999Y-148485714D01*
X64504761Y-148533333D01*
X64457142Y-148580952D01*
X65266666Y-148485714D02*
X65790476Y-148485714D01*
X65266666Y-149152380D01*
X65790476Y-149152380D01*
X66171428Y-149152380D02*
X66171428Y-148152380D01*
X66599999Y-149152380D02*
X66599999Y-148628571D01*
X66552380Y-148533333D01*
X66457142Y-148485714D01*
X66314285Y-148485714D01*
X66219047Y-148533333D01*
X66171428Y-148580952D01*
X67076190Y-148485714D02*
X67076190Y-149342857D01*
X67028571Y-149438095D01*
X66933333Y-149485714D01*
X66885714Y-149485714D01*
X67076190Y-148152380D02*
X67028571Y-148200000D01*
X67076190Y-148247619D01*
X67123809Y-148200000D01*
X67076190Y-148152380D01*
X67076190Y-148247619D01*
X67552380Y-149152380D02*
X67552380Y-148485714D01*
X67552380Y-148152380D02*
X67504761Y-148200000D01*
X67552380Y-148247619D01*
X67600000Y-148200000D01*
X67552380Y-148152380D01*
X67552380Y-148247619D01*
X68409523Y-149104761D02*
X68314285Y-149152380D01*
X68123809Y-149152380D01*
X68028571Y-149104761D01*
X67980952Y-149009523D01*
X67980952Y-148628571D01*
X68028571Y-148533333D01*
X68123809Y-148485714D01*
X68314285Y-148485714D01*
X68409523Y-148533333D01*
X68457142Y-148628571D01*
X68457142Y-148723809D01*
X67980952Y-148819047D01*
X105185714Y-154052380D02*
X105185714Y-154861904D01*
X105233333Y-154957142D01*
X105280952Y-155004761D01*
X105376190Y-155052380D01*
X105566666Y-155052380D01*
X105661904Y-155004761D01*
X105709523Y-154957142D01*
X105757142Y-154861904D01*
X105757142Y-154052380D01*
X106185714Y-155004761D02*
X106328571Y-155052380D01*
X106566666Y-155052380D01*
X106661904Y-155004761D01*
X106709523Y-154957142D01*
X106757142Y-154861904D01*
X106757142Y-154766666D01*
X106709523Y-154671428D01*
X106661904Y-154623809D01*
X106566666Y-154576190D01*
X106376190Y-154528571D01*
X106280952Y-154480952D01*
X106233333Y-154433333D01*
X106185714Y-154338095D01*
X106185714Y-154242857D01*
X106233333Y-154147619D01*
X106280952Y-154100000D01*
X106376190Y-154052380D01*
X106614285Y-154052380D01*
X106757142Y-154100000D01*
X107185714Y-154528571D02*
X107519047Y-154528571D01*
X107661904Y-155052380D02*
X107185714Y-155052380D01*
X107185714Y-154052380D01*
X107661904Y-154052380D01*
X108661904Y-155052380D02*
X108328571Y-154576190D01*
X108090476Y-155052380D02*
X108090476Y-154052380D01*
X108471428Y-154052380D01*
X108566666Y-154100000D01*
X108614285Y-154147619D01*
X108661904Y-154242857D01*
X108661904Y-154385714D01*
X108614285Y-154480952D01*
X108566666Y-154528571D01*
X108471428Y-154576190D01*
X108090476Y-154576190D01*
X103723809Y-131852380D02*
X103914285Y-131852380D01*
X104009523Y-131900000D01*
X104104761Y-131995238D01*
X104152380Y-132185714D01*
X104152380Y-132519047D01*
X104104761Y-132709523D01*
X104009523Y-132804761D01*
X103914285Y-132852380D01*
X103723809Y-132852380D01*
X103628571Y-132804761D01*
X103533333Y-132709523D01*
X103485714Y-132519047D01*
X103485714Y-132185714D01*
X103533333Y-131995238D01*
X103628571Y-131900000D01*
X103723809Y-131852380D01*
X104438095Y-131852380D02*
X105009523Y-131852380D01*
X104723809Y-132852380D02*
X104723809Y-131852380D01*
X105866666Y-131900000D02*
X105771428Y-131852380D01*
X105628571Y-131852380D01*
X105485714Y-131900000D01*
X105390476Y-131995238D01*
X105342857Y-132090476D01*
X105295238Y-132280952D01*
X105295238Y-132423809D01*
X105342857Y-132614285D01*
X105390476Y-132709523D01*
X105485714Y-132804761D01*
X105628571Y-132852380D01*
X105723809Y-132852380D01*
X105866666Y-132804761D01*
X105914285Y-132757142D01*
X105914285Y-132423809D01*
X105723809Y-132423809D01*
X98338095Y-135200000D02*
X98242857Y-135152380D01*
X98100000Y-135152380D01*
X97957142Y-135200000D01*
X97861904Y-135295238D01*
X97814285Y-135390476D01*
X97766666Y-135580952D01*
X97766666Y-135723809D01*
X97814285Y-135914285D01*
X97861904Y-136009523D01*
X97957142Y-136104761D01*
X98100000Y-136152380D01*
X98195238Y-136152380D01*
X98338095Y-136104761D01*
X98385714Y-136057142D01*
X98385714Y-135723809D01*
X98195238Y-135723809D01*
X98814285Y-136152380D02*
X98814285Y-135152380D01*
X99385714Y-136152380D01*
X99385714Y-135152380D01*
X99861904Y-136152380D02*
X99861904Y-135152380D01*
X100100000Y-135152380D01*
X100242857Y-135200000D01*
X100338095Y-135295238D01*
X100385714Y-135390476D01*
X100433333Y-135580952D01*
X100433333Y-135723809D01*
X100385714Y-135914285D01*
X100338095Y-136009523D01*
X100242857Y-136104761D01*
X100100000Y-136152380D01*
X99861904Y-136152380D01*
D11*
%TO.C,REF\u002A\u002A*%
X62455814Y-138068931D02*
X62539635Y-138513555D01*
X62539635Y-138513555D02*
X62848920Y-138641053D01*
X62848920Y-138641053D02*
X63158206Y-138768551D01*
X63158206Y-138768551D02*
X63529246Y-138516246D01*
X63529246Y-138516246D02*
X63633157Y-138445996D01*
X63633157Y-138445996D02*
X63727087Y-138383272D01*
X63727087Y-138383272D02*
X63806652Y-138330938D01*
X63806652Y-138330938D02*
X63867470Y-138291857D01*
X63867470Y-138291857D02*
X63905157Y-138268893D01*
X63905157Y-138268893D02*
X63915421Y-138263942D01*
X63915421Y-138263942D02*
X63933910Y-138276676D01*
X63933910Y-138276676D02*
X63973420Y-138311882D01*
X63973420Y-138311882D02*
X64029522Y-138365062D01*
X64029522Y-138365062D02*
X64097787Y-138431718D01*
X64097787Y-138431718D02*
X64173786Y-138507354D01*
X64173786Y-138507354D02*
X64253092Y-138587472D01*
X64253092Y-138587472D02*
X64331275Y-138667574D01*
X64331275Y-138667574D02*
X64403907Y-138743164D01*
X64403907Y-138743164D02*
X64466559Y-138809745D01*
X64466559Y-138809745D02*
X64514803Y-138862818D01*
X64514803Y-138862818D02*
X64544210Y-138897887D01*
X64544210Y-138897887D02*
X64551241Y-138909623D01*
X64551241Y-138909623D02*
X64541123Y-138931260D01*
X64541123Y-138931260D02*
X64512759Y-138978662D01*
X64512759Y-138978662D02*
X64469129Y-139047193D01*
X64469129Y-139047193D02*
X64413218Y-139132215D01*
X64413218Y-139132215D02*
X64348006Y-139229093D01*
X64348006Y-139229093D02*
X64310219Y-139284350D01*
X64310219Y-139284350D02*
X64241343Y-139385248D01*
X64241343Y-139385248D02*
X64180140Y-139476299D01*
X64180140Y-139476299D02*
X64129578Y-139552970D01*
X64129578Y-139552970D02*
X64092628Y-139610728D01*
X64092628Y-139610728D02*
X64072258Y-139645043D01*
X64072258Y-139645043D02*
X64069197Y-139652254D01*
X64069197Y-139652254D02*
X64076136Y-139672748D01*
X64076136Y-139672748D02*
X64095051Y-139720513D01*
X64095051Y-139720513D02*
X64123087Y-139788832D01*
X64123087Y-139788832D02*
X64157391Y-139870989D01*
X64157391Y-139870989D02*
X64195109Y-139960270D01*
X64195109Y-139960270D02*
X64233387Y-140049958D01*
X64233387Y-140049958D02*
X64269370Y-140133338D01*
X64269370Y-140133338D02*
X64300206Y-140203694D01*
X64300206Y-140203694D02*
X64323039Y-140254310D01*
X64323039Y-140254310D02*
X64335017Y-140278471D01*
X64335017Y-140278471D02*
X64335724Y-140279422D01*
X64335724Y-140279422D02*
X64354531Y-140284036D01*
X64354531Y-140284036D02*
X64404618Y-140294328D01*
X64404618Y-140294328D02*
X64480793Y-140309287D01*
X64480793Y-140309287D02*
X64577865Y-140327901D01*
X64577865Y-140327901D02*
X64690643Y-140349159D01*
X64690643Y-140349159D02*
X64756442Y-140361418D01*
X64756442Y-140361418D02*
X64876950Y-140384362D01*
X64876950Y-140384362D02*
X64985797Y-140406195D01*
X64985797Y-140406195D02*
X65077476Y-140425722D01*
X65077476Y-140425722D02*
X65146481Y-140441748D01*
X65146481Y-140441748D02*
X65187304Y-140453079D01*
X65187304Y-140453079D02*
X65195511Y-140456674D01*
X65195511Y-140456674D02*
X65203548Y-140481006D01*
X65203548Y-140481006D02*
X65210033Y-140535959D01*
X65210033Y-140535959D02*
X65214970Y-140615108D01*
X65214970Y-140615108D02*
X65218364Y-140712026D01*
X65218364Y-140712026D02*
X65220218Y-140820287D01*
X65220218Y-140820287D02*
X65220538Y-140933465D01*
X65220538Y-140933465D02*
X65219327Y-141045135D01*
X65219327Y-141045135D02*
X65216590Y-141148868D01*
X65216590Y-141148868D02*
X65212331Y-141238241D01*
X65212331Y-141238241D02*
X65206555Y-141306826D01*
X65206555Y-141306826D02*
X65199267Y-141348197D01*
X65199267Y-141348197D02*
X65194895Y-141356810D01*
X65194895Y-141356810D02*
X65168764Y-141367133D01*
X65168764Y-141367133D02*
X65113393Y-141381892D01*
X65113393Y-141381892D02*
X65036107Y-141399352D01*
X65036107Y-141399352D02*
X64944230Y-141417780D01*
X64944230Y-141417780D02*
X64912158Y-141423741D01*
X64912158Y-141423741D02*
X64757524Y-141452066D01*
X64757524Y-141452066D02*
X64635375Y-141474876D01*
X64635375Y-141474876D02*
X64541673Y-141493080D01*
X64541673Y-141493080D02*
X64472384Y-141507583D01*
X64472384Y-141507583D02*
X64423471Y-141519292D01*
X64423471Y-141519292D02*
X64390897Y-141529115D01*
X64390897Y-141529115D02*
X64370628Y-141537956D01*
X64370628Y-141537956D02*
X64358626Y-141546724D01*
X64358626Y-141546724D02*
X64356947Y-141548457D01*
X64356947Y-141548457D02*
X64340184Y-141576371D01*
X64340184Y-141576371D02*
X64314614Y-141630695D01*
X64314614Y-141630695D02*
X64282788Y-141704777D01*
X64282788Y-141704777D02*
X64247260Y-141791965D01*
X64247260Y-141791965D02*
X64210583Y-141885608D01*
X64210583Y-141885608D02*
X64175311Y-141979052D01*
X64175311Y-141979052D02*
X64143996Y-142065647D01*
X64143996Y-142065647D02*
X64119193Y-142138740D01*
X64119193Y-142138740D02*
X64103454Y-142191678D01*
X64103454Y-142191678D02*
X64099332Y-142217811D01*
X64099332Y-142217811D02*
X64099676Y-142218726D01*
X64099676Y-142218726D02*
X64113641Y-142240086D01*
X64113641Y-142240086D02*
X64145322Y-142287084D01*
X64145322Y-142287084D02*
X64191391Y-142354827D01*
X64191391Y-142354827D02*
X64248518Y-142438423D01*
X64248518Y-142438423D02*
X64313373Y-142532982D01*
X64313373Y-142532982D02*
X64331843Y-142559854D01*
X64331843Y-142559854D02*
X64397699Y-142657275D01*
X64397699Y-142657275D02*
X64455650Y-142746163D01*
X64455650Y-142746163D02*
X64502538Y-142821412D01*
X64502538Y-142821412D02*
X64535207Y-142877920D01*
X64535207Y-142877920D02*
X64550500Y-142910581D01*
X64550500Y-142910581D02*
X64551241Y-142914593D01*
X64551241Y-142914593D02*
X64538392Y-142935684D01*
X64538392Y-142935684D02*
X64502888Y-142977464D01*
X64502888Y-142977464D02*
X64449293Y-143035445D01*
X64449293Y-143035445D02*
X64382171Y-143105135D01*
X64382171Y-143105135D02*
X64306087Y-143182045D01*
X64306087Y-143182045D02*
X64225604Y-143261683D01*
X64225604Y-143261683D02*
X64145287Y-143339561D01*
X64145287Y-143339561D02*
X64069699Y-143411186D01*
X64069699Y-143411186D02*
X64003405Y-143472070D01*
X64003405Y-143472070D02*
X63950969Y-143517721D01*
X63950969Y-143517721D02*
X63916955Y-143543650D01*
X63916955Y-143543650D02*
X63907545Y-143547883D01*
X63907545Y-143547883D02*
X63885643Y-143537912D01*
X63885643Y-143537912D02*
X63840800Y-143511020D01*
X63840800Y-143511020D02*
X63780321Y-143471736D01*
X63780321Y-143471736D02*
X63733789Y-143440117D01*
X63733789Y-143440117D02*
X63649475Y-143382098D01*
X63649475Y-143382098D02*
X63549626Y-143313784D01*
X63549626Y-143313784D02*
X63449473Y-143245579D01*
X63449473Y-143245579D02*
X63395627Y-143209075D01*
X63395627Y-143209075D02*
X63213371Y-143085800D01*
X63213371Y-143085800D02*
X63060381Y-143168520D01*
X63060381Y-143168520D02*
X62990682Y-143204759D01*
X62990682Y-143204759D02*
X62931414Y-143232926D01*
X62931414Y-143232926D02*
X62891311Y-143248991D01*
X62891311Y-143248991D02*
X62881103Y-143251226D01*
X62881103Y-143251226D02*
X62868829Y-143234722D01*
X62868829Y-143234722D02*
X62844613Y-143188082D01*
X62844613Y-143188082D02*
X62810263Y-143115609D01*
X62810263Y-143115609D02*
X62767588Y-143021606D01*
X62767588Y-143021606D02*
X62718394Y-142910374D01*
X62718394Y-142910374D02*
X62664490Y-142786215D01*
X62664490Y-142786215D02*
X62607684Y-142653432D01*
X62607684Y-142653432D02*
X62549782Y-142516327D01*
X62549782Y-142516327D02*
X62492593Y-142379202D01*
X62492593Y-142379202D02*
X62437924Y-142246358D01*
X62437924Y-142246358D02*
X62387584Y-142122098D01*
X62387584Y-142122098D02*
X62343380Y-142010725D01*
X62343380Y-142010725D02*
X62307119Y-141916539D01*
X62307119Y-141916539D02*
X62280609Y-141843844D01*
X62280609Y-141843844D02*
X62265658Y-141796941D01*
X62265658Y-141796941D02*
X62263254Y-141780833D01*
X62263254Y-141780833D02*
X62282311Y-141760286D01*
X62282311Y-141760286D02*
X62324036Y-141726933D01*
X62324036Y-141726933D02*
X62379706Y-141687702D01*
X62379706Y-141687702D02*
X62384378Y-141684599D01*
X62384378Y-141684599D02*
X62528264Y-141569423D01*
X62528264Y-141569423D02*
X62644283Y-141435053D01*
X62644283Y-141435053D02*
X62731430Y-141285784D01*
X62731430Y-141285784D02*
X62788699Y-141125913D01*
X62788699Y-141125913D02*
X62815086Y-140959737D01*
X62815086Y-140959737D02*
X62809585Y-140791552D01*
X62809585Y-140791552D02*
X62771190Y-140625655D01*
X62771190Y-140625655D02*
X62698895Y-140466342D01*
X62698895Y-140466342D02*
X62677626Y-140431487D01*
X62677626Y-140431487D02*
X62566996Y-140290737D01*
X62566996Y-140290737D02*
X62436302Y-140177714D01*
X62436302Y-140177714D02*
X62290064Y-140093003D01*
X62290064Y-140093003D02*
X62132808Y-140037194D01*
X62132808Y-140037194D02*
X61969057Y-140010874D01*
X61969057Y-140010874D02*
X61803333Y-140014630D01*
X61803333Y-140014630D02*
X61640162Y-140049050D01*
X61640162Y-140049050D02*
X61484065Y-140114723D01*
X61484065Y-140114723D02*
X61339567Y-140212235D01*
X61339567Y-140212235D02*
X61294869Y-140251813D01*
X61294869Y-140251813D02*
X61181112Y-140375703D01*
X61181112Y-140375703D02*
X61098218Y-140506124D01*
X61098218Y-140506124D02*
X61041356Y-140652315D01*
X61041356Y-140652315D02*
X61009687Y-140797088D01*
X61009687Y-140797088D02*
X61001869Y-140959860D01*
X61001869Y-140959860D02*
X61027938Y-141123440D01*
X61027938Y-141123440D02*
X61085245Y-141282298D01*
X61085245Y-141282298D02*
X61171144Y-141430906D01*
X61171144Y-141430906D02*
X61282986Y-141563735D01*
X61282986Y-141563735D02*
X61418123Y-141675256D01*
X61418123Y-141675256D02*
X61435883Y-141687011D01*
X61435883Y-141687011D02*
X61492150Y-141725508D01*
X61492150Y-141725508D02*
X61534923Y-141758863D01*
X61534923Y-141758863D02*
X61555372Y-141780160D01*
X61555372Y-141780160D02*
X61555669Y-141780833D01*
X61555669Y-141780833D02*
X61551279Y-141803871D01*
X61551279Y-141803871D02*
X61533876Y-141856157D01*
X61533876Y-141856157D02*
X61505268Y-141933390D01*
X61505268Y-141933390D02*
X61467265Y-142031268D01*
X61467265Y-142031268D02*
X61421674Y-142145491D01*
X61421674Y-142145491D02*
X61370303Y-142271758D01*
X61370303Y-142271758D02*
X61314962Y-142405767D01*
X61314962Y-142405767D02*
X61257458Y-142543218D01*
X61257458Y-142543218D02*
X61199601Y-142679808D01*
X61199601Y-142679808D02*
X61143198Y-142811237D01*
X61143198Y-142811237D02*
X61090058Y-142933205D01*
X61090058Y-142933205D02*
X61041990Y-143041409D01*
X61041990Y-143041409D02*
X61000801Y-143131549D01*
X61000801Y-143131549D02*
X60968301Y-143199323D01*
X60968301Y-143199323D02*
X60946297Y-143240430D01*
X60946297Y-143240430D02*
X60937436Y-143251226D01*
X60937436Y-143251226D02*
X60910360Y-143242819D01*
X60910360Y-143242819D02*
X60859697Y-143220272D01*
X60859697Y-143220272D02*
X60794183Y-143187613D01*
X60794183Y-143187613D02*
X60758159Y-143168520D01*
X60758159Y-143168520D02*
X60605168Y-143085800D01*
X60605168Y-143085800D02*
X60422912Y-143209075D01*
X60422912Y-143209075D02*
X60329875Y-143272228D01*
X60329875Y-143272228D02*
X60228015Y-143341727D01*
X60228015Y-143341727D02*
X60132562Y-143407165D01*
X60132562Y-143407165D02*
X60084750Y-143440117D01*
X60084750Y-143440117D02*
X60017505Y-143485273D01*
X60017505Y-143485273D02*
X59960564Y-143521057D01*
X59960564Y-143521057D02*
X59921354Y-143542938D01*
X59921354Y-143542938D02*
X59908619Y-143547563D01*
X59908619Y-143547563D02*
X59890083Y-143535085D01*
X59890083Y-143535085D02*
X59849059Y-143500252D01*
X59849059Y-143500252D02*
X59789525Y-143446678D01*
X59789525Y-143446678D02*
X59715458Y-143377983D01*
X59715458Y-143377983D02*
X59630835Y-143297781D01*
X59630835Y-143297781D02*
X59577315Y-143246286D01*
X59577315Y-143246286D02*
X59483681Y-143154286D01*
X59483681Y-143154286D02*
X59402759Y-143071999D01*
X59402759Y-143071999D02*
X59337823Y-143002945D01*
X59337823Y-143002945D02*
X59292142Y-142950644D01*
X59292142Y-142950644D02*
X59268989Y-142918616D01*
X59268989Y-142918616D02*
X59266768Y-142912116D01*
X59266768Y-142912116D02*
X59277076Y-142887394D01*
X59277076Y-142887394D02*
X59305561Y-142837405D01*
X59305561Y-142837405D02*
X59349063Y-142767212D01*
X59349063Y-142767212D02*
X59404423Y-142681875D01*
X59404423Y-142681875D02*
X59468480Y-142586456D01*
X59468480Y-142586456D02*
X59486697Y-142559854D01*
X59486697Y-142559854D02*
X59553073Y-142463167D01*
X59553073Y-142463167D02*
X59612622Y-142376117D01*
X59612622Y-142376117D02*
X59662016Y-142303595D01*
X59662016Y-142303595D02*
X59697925Y-142250493D01*
X59697925Y-142250493D02*
X59717019Y-142221703D01*
X59717019Y-142221703D02*
X59718864Y-142218726D01*
X59718864Y-142218726D02*
X59716105Y-142195782D01*
X59716105Y-142195782D02*
X59701462Y-142145336D01*
X59701462Y-142145336D02*
X59677487Y-142074041D01*
X59677487Y-142074041D02*
X59646734Y-141988547D01*
X59646734Y-141988547D02*
X59611756Y-141895507D01*
X59611756Y-141895507D02*
X59575107Y-141801574D01*
X59575107Y-141801574D02*
X59539339Y-141713399D01*
X59539339Y-141713399D02*
X59507006Y-141637634D01*
X59507006Y-141637634D02*
X59480662Y-141580931D01*
X59480662Y-141580931D02*
X59462858Y-141549943D01*
X59462858Y-141549943D02*
X59461593Y-141548457D01*
X59461593Y-141548457D02*
X59450706Y-141539601D01*
X59450706Y-141539601D02*
X59432318Y-141530843D01*
X59432318Y-141530843D02*
X59402394Y-141521277D01*
X59402394Y-141521277D02*
X59356897Y-141509996D01*
X59356897Y-141509996D02*
X59291791Y-141496093D01*
X59291791Y-141496093D02*
X59203039Y-141478663D01*
X59203039Y-141478663D02*
X59086607Y-141456798D01*
X59086607Y-141456798D02*
X58938458Y-141429591D01*
X58938458Y-141429591D02*
X58906382Y-141423741D01*
X58906382Y-141423741D02*
X58811314Y-141405374D01*
X58811314Y-141405374D02*
X58728435Y-141387405D01*
X58728435Y-141387405D02*
X58665070Y-141371569D01*
X58665070Y-141371569D02*
X58628542Y-141359600D01*
X58628542Y-141359600D02*
X58623644Y-141356810D01*
X58623644Y-141356810D02*
X58615573Y-141332072D01*
X58615573Y-141332072D02*
X58609013Y-141276790D01*
X58609013Y-141276790D02*
X58603967Y-141197389D01*
X58603967Y-141197389D02*
X58600441Y-141100296D01*
X58600441Y-141100296D02*
X58598439Y-140991938D01*
X58598439Y-140991938D02*
X58597964Y-140878740D01*
X58597964Y-140878740D02*
X58599023Y-140767128D01*
X58599023Y-140767128D02*
X58601618Y-140663529D01*
X58601618Y-140663529D02*
X58605754Y-140574368D01*
X58605754Y-140574368D02*
X58611437Y-140506072D01*
X58611437Y-140506072D02*
X58618669Y-140465066D01*
X58618669Y-140465066D02*
X58623029Y-140456674D01*
X58623029Y-140456674D02*
X58647302Y-140448208D01*
X58647302Y-140448208D02*
X58702574Y-140434435D01*
X58702574Y-140434435D02*
X58783338Y-140416550D01*
X58783338Y-140416550D02*
X58884088Y-140395748D01*
X58884088Y-140395748D02*
X58999317Y-140373223D01*
X58999317Y-140373223D02*
X59062098Y-140361418D01*
X59062098Y-140361418D02*
X59181213Y-140339151D01*
X59181213Y-140339151D02*
X59287435Y-140318979D01*
X59287435Y-140318979D02*
X59375573Y-140301915D01*
X59375573Y-140301915D02*
X59440434Y-140288969D01*
X59440434Y-140288969D02*
X59476826Y-140281155D01*
X59476826Y-140281155D02*
X59482816Y-140279422D01*
X59482816Y-140279422D02*
X59492939Y-140259890D01*
X59492939Y-140259890D02*
X59514338Y-140212843D01*
X59514338Y-140212843D02*
X59544161Y-140145003D01*
X59544161Y-140145003D02*
X59579555Y-140063091D01*
X59579555Y-140063091D02*
X59617668Y-139973828D01*
X59617668Y-139973828D02*
X59655647Y-139883935D01*
X59655647Y-139883935D02*
X59690640Y-139800135D01*
X59690640Y-139800135D02*
X59719794Y-139729147D01*
X59719794Y-139729147D02*
X59740257Y-139677694D01*
X59740257Y-139677694D02*
X59749177Y-139652497D01*
X59749177Y-139652497D02*
X59749343Y-139651396D01*
X59749343Y-139651396D02*
X59739231Y-139631519D01*
X59739231Y-139631519D02*
X59710883Y-139585777D01*
X59710883Y-139585777D02*
X59667277Y-139518717D01*
X59667277Y-139518717D02*
X59611394Y-139434884D01*
X59611394Y-139434884D02*
X59546213Y-139338826D01*
X59546213Y-139338826D02*
X59508321Y-139283650D01*
X59508321Y-139283650D02*
X59439275Y-139182481D01*
X59439275Y-139182481D02*
X59377950Y-139090630D01*
X59377950Y-139090630D02*
X59327337Y-139012744D01*
X59327337Y-139012744D02*
X59290429Y-138953469D01*
X59290429Y-138953469D02*
X59270218Y-138917451D01*
X59270218Y-138917451D02*
X59267299Y-138909377D01*
X59267299Y-138909377D02*
X59279847Y-138890584D01*
X59279847Y-138890584D02*
X59314537Y-138850457D01*
X59314537Y-138850457D02*
X59366937Y-138793493D01*
X59366937Y-138793493D02*
X59432616Y-138724185D01*
X59432616Y-138724185D02*
X59507144Y-138647031D01*
X59507144Y-138647031D02*
X59586087Y-138566525D01*
X59586087Y-138566525D02*
X59665017Y-138487163D01*
X59665017Y-138487163D02*
X59739500Y-138413440D01*
X59739500Y-138413440D02*
X59805106Y-138349852D01*
X59805106Y-138349852D02*
X59857404Y-138300894D01*
X59857404Y-138300894D02*
X59891961Y-138271061D01*
X59891961Y-138271061D02*
X59903522Y-138263942D01*
X59903522Y-138263942D02*
X59922346Y-138273953D01*
X59922346Y-138273953D02*
X59967369Y-138302078D01*
X59967369Y-138302078D02*
X60034213Y-138345454D01*
X60034213Y-138345454D02*
X60118501Y-138401218D01*
X60118501Y-138401218D02*
X60215856Y-138466506D01*
X60215856Y-138466506D02*
X60289293Y-138516246D01*
X60289293Y-138516246D02*
X60660333Y-138768551D01*
X60660333Y-138768551D02*
X61278905Y-138513555D01*
X61278905Y-138513555D02*
X61362725Y-138068931D01*
X61362725Y-138068931D02*
X61446546Y-137624307D01*
X61446546Y-137624307D02*
X62371994Y-137624307D01*
X62371994Y-137624307D02*
X62455814Y-138068931D01*
X62455814Y-138068931D02*
X62455814Y-138068931D01*
G36*
X62455814Y-138068931D02*
G01*
X62539635Y-138513555D01*
X62848920Y-138641053D01*
X63158206Y-138768551D01*
X63529246Y-138516246D01*
X63633157Y-138445996D01*
X63727087Y-138383272D01*
X63806652Y-138330938D01*
X63867470Y-138291857D01*
X63905157Y-138268893D01*
X63915421Y-138263942D01*
X63933910Y-138276676D01*
X63973420Y-138311882D01*
X64029522Y-138365062D01*
X64097787Y-138431718D01*
X64173786Y-138507354D01*
X64253092Y-138587472D01*
X64331275Y-138667574D01*
X64403907Y-138743164D01*
X64466559Y-138809745D01*
X64514803Y-138862818D01*
X64544210Y-138897887D01*
X64551241Y-138909623D01*
X64541123Y-138931260D01*
X64512759Y-138978662D01*
X64469129Y-139047193D01*
X64413218Y-139132215D01*
X64348006Y-139229093D01*
X64310219Y-139284350D01*
X64241343Y-139385248D01*
X64180140Y-139476299D01*
X64129578Y-139552970D01*
X64092628Y-139610728D01*
X64072258Y-139645043D01*
X64069197Y-139652254D01*
X64076136Y-139672748D01*
X64095051Y-139720513D01*
X64123087Y-139788832D01*
X64157391Y-139870989D01*
X64195109Y-139960270D01*
X64233387Y-140049958D01*
X64269370Y-140133338D01*
X64300206Y-140203694D01*
X64323039Y-140254310D01*
X64335017Y-140278471D01*
X64335724Y-140279422D01*
X64354531Y-140284036D01*
X64404618Y-140294328D01*
X64480793Y-140309287D01*
X64577865Y-140327901D01*
X64690643Y-140349159D01*
X64756442Y-140361418D01*
X64876950Y-140384362D01*
X64985797Y-140406195D01*
X65077476Y-140425722D01*
X65146481Y-140441748D01*
X65187304Y-140453079D01*
X65195511Y-140456674D01*
X65203548Y-140481006D01*
X65210033Y-140535959D01*
X65214970Y-140615108D01*
X65218364Y-140712026D01*
X65220218Y-140820287D01*
X65220538Y-140933465D01*
X65219327Y-141045135D01*
X65216590Y-141148868D01*
X65212331Y-141238241D01*
X65206555Y-141306826D01*
X65199267Y-141348197D01*
X65194895Y-141356810D01*
X65168764Y-141367133D01*
X65113393Y-141381892D01*
X65036107Y-141399352D01*
X64944230Y-141417780D01*
X64912158Y-141423741D01*
X64757524Y-141452066D01*
X64635375Y-141474876D01*
X64541673Y-141493080D01*
X64472384Y-141507583D01*
X64423471Y-141519292D01*
X64390897Y-141529115D01*
X64370628Y-141537956D01*
X64358626Y-141546724D01*
X64356947Y-141548457D01*
X64340184Y-141576371D01*
X64314614Y-141630695D01*
X64282788Y-141704777D01*
X64247260Y-141791965D01*
X64210583Y-141885608D01*
X64175311Y-141979052D01*
X64143996Y-142065647D01*
X64119193Y-142138740D01*
X64103454Y-142191678D01*
X64099332Y-142217811D01*
X64099676Y-142218726D01*
X64113641Y-142240086D01*
X64145322Y-142287084D01*
X64191391Y-142354827D01*
X64248518Y-142438423D01*
X64313373Y-142532982D01*
X64331843Y-142559854D01*
X64397699Y-142657275D01*
X64455650Y-142746163D01*
X64502538Y-142821412D01*
X64535207Y-142877920D01*
X64550500Y-142910581D01*
X64551241Y-142914593D01*
X64538392Y-142935684D01*
X64502888Y-142977464D01*
X64449293Y-143035445D01*
X64382171Y-143105135D01*
X64306087Y-143182045D01*
X64225604Y-143261683D01*
X64145287Y-143339561D01*
X64069699Y-143411186D01*
X64003405Y-143472070D01*
X63950969Y-143517721D01*
X63916955Y-143543650D01*
X63907545Y-143547883D01*
X63885643Y-143537912D01*
X63840800Y-143511020D01*
X63780321Y-143471736D01*
X63733789Y-143440117D01*
X63649475Y-143382098D01*
X63549626Y-143313784D01*
X63449473Y-143245579D01*
X63395627Y-143209075D01*
X63213371Y-143085800D01*
X63060381Y-143168520D01*
X62990682Y-143204759D01*
X62931414Y-143232926D01*
X62891311Y-143248991D01*
X62881103Y-143251226D01*
X62868829Y-143234722D01*
X62844613Y-143188082D01*
X62810263Y-143115609D01*
X62767588Y-143021606D01*
X62718394Y-142910374D01*
X62664490Y-142786215D01*
X62607684Y-142653432D01*
X62549782Y-142516327D01*
X62492593Y-142379202D01*
X62437924Y-142246358D01*
X62387584Y-142122098D01*
X62343380Y-142010725D01*
X62307119Y-141916539D01*
X62280609Y-141843844D01*
X62265658Y-141796941D01*
X62263254Y-141780833D01*
X62282311Y-141760286D01*
X62324036Y-141726933D01*
X62379706Y-141687702D01*
X62384378Y-141684599D01*
X62528264Y-141569423D01*
X62644283Y-141435053D01*
X62731430Y-141285784D01*
X62788699Y-141125913D01*
X62815086Y-140959737D01*
X62809585Y-140791552D01*
X62771190Y-140625655D01*
X62698895Y-140466342D01*
X62677626Y-140431487D01*
X62566996Y-140290737D01*
X62436302Y-140177714D01*
X62290064Y-140093003D01*
X62132808Y-140037194D01*
X61969057Y-140010874D01*
X61803333Y-140014630D01*
X61640162Y-140049050D01*
X61484065Y-140114723D01*
X61339567Y-140212235D01*
X61294869Y-140251813D01*
X61181112Y-140375703D01*
X61098218Y-140506124D01*
X61041356Y-140652315D01*
X61009687Y-140797088D01*
X61001869Y-140959860D01*
X61027938Y-141123440D01*
X61085245Y-141282298D01*
X61171144Y-141430906D01*
X61282986Y-141563735D01*
X61418123Y-141675256D01*
X61435883Y-141687011D01*
X61492150Y-141725508D01*
X61534923Y-141758863D01*
X61555372Y-141780160D01*
X61555669Y-141780833D01*
X61551279Y-141803871D01*
X61533876Y-141856157D01*
X61505268Y-141933390D01*
X61467265Y-142031268D01*
X61421674Y-142145491D01*
X61370303Y-142271758D01*
X61314962Y-142405767D01*
X61257458Y-142543218D01*
X61199601Y-142679808D01*
X61143198Y-142811237D01*
X61090058Y-142933205D01*
X61041990Y-143041409D01*
X61000801Y-143131549D01*
X60968301Y-143199323D01*
X60946297Y-143240430D01*
X60937436Y-143251226D01*
X60910360Y-143242819D01*
X60859697Y-143220272D01*
X60794183Y-143187613D01*
X60758159Y-143168520D01*
X60605168Y-143085800D01*
X60422912Y-143209075D01*
X60329875Y-143272228D01*
X60228015Y-143341727D01*
X60132562Y-143407165D01*
X60084750Y-143440117D01*
X60017505Y-143485273D01*
X59960564Y-143521057D01*
X59921354Y-143542938D01*
X59908619Y-143547563D01*
X59890083Y-143535085D01*
X59849059Y-143500252D01*
X59789525Y-143446678D01*
X59715458Y-143377983D01*
X59630835Y-143297781D01*
X59577315Y-143246286D01*
X59483681Y-143154286D01*
X59402759Y-143071999D01*
X59337823Y-143002945D01*
X59292142Y-142950644D01*
X59268989Y-142918616D01*
X59266768Y-142912116D01*
X59277076Y-142887394D01*
X59305561Y-142837405D01*
X59349063Y-142767212D01*
X59404423Y-142681875D01*
X59468480Y-142586456D01*
X59486697Y-142559854D01*
X59553073Y-142463167D01*
X59612622Y-142376117D01*
X59662016Y-142303595D01*
X59697925Y-142250493D01*
X59717019Y-142221703D01*
X59718864Y-142218726D01*
X59716105Y-142195782D01*
X59701462Y-142145336D01*
X59677487Y-142074041D01*
X59646734Y-141988547D01*
X59611756Y-141895507D01*
X59575107Y-141801574D01*
X59539339Y-141713399D01*
X59507006Y-141637634D01*
X59480662Y-141580931D01*
X59462858Y-141549943D01*
X59461593Y-141548457D01*
X59450706Y-141539601D01*
X59432318Y-141530843D01*
X59402394Y-141521277D01*
X59356897Y-141509996D01*
X59291791Y-141496093D01*
X59203039Y-141478663D01*
X59086607Y-141456798D01*
X58938458Y-141429591D01*
X58906382Y-141423741D01*
X58811314Y-141405374D01*
X58728435Y-141387405D01*
X58665070Y-141371569D01*
X58628542Y-141359600D01*
X58623644Y-141356810D01*
X58615573Y-141332072D01*
X58609013Y-141276790D01*
X58603967Y-141197389D01*
X58600441Y-141100296D01*
X58598439Y-140991938D01*
X58597964Y-140878740D01*
X58599023Y-140767128D01*
X58601618Y-140663529D01*
X58605754Y-140574368D01*
X58611437Y-140506072D01*
X58618669Y-140465066D01*
X58623029Y-140456674D01*
X58647302Y-140448208D01*
X58702574Y-140434435D01*
X58783338Y-140416550D01*
X58884088Y-140395748D01*
X58999317Y-140373223D01*
X59062098Y-140361418D01*
X59181213Y-140339151D01*
X59287435Y-140318979D01*
X59375573Y-140301915D01*
X59440434Y-140288969D01*
X59476826Y-140281155D01*
X59482816Y-140279422D01*
X59492939Y-140259890D01*
X59514338Y-140212843D01*
X59544161Y-140145003D01*
X59579555Y-140063091D01*
X59617668Y-139973828D01*
X59655647Y-139883935D01*
X59690640Y-139800135D01*
X59719794Y-139729147D01*
X59740257Y-139677694D01*
X59749177Y-139652497D01*
X59749343Y-139651396D01*
X59739231Y-139631519D01*
X59710883Y-139585777D01*
X59667277Y-139518717D01*
X59611394Y-139434884D01*
X59546213Y-139338826D01*
X59508321Y-139283650D01*
X59439275Y-139182481D01*
X59377950Y-139090630D01*
X59327337Y-139012744D01*
X59290429Y-138953469D01*
X59270218Y-138917451D01*
X59267299Y-138909377D01*
X59279847Y-138890584D01*
X59314537Y-138850457D01*
X59366937Y-138793493D01*
X59432616Y-138724185D01*
X59507144Y-138647031D01*
X59586087Y-138566525D01*
X59665017Y-138487163D01*
X59739500Y-138413440D01*
X59805106Y-138349852D01*
X59857404Y-138300894D01*
X59891961Y-138271061D01*
X59903522Y-138263942D01*
X59922346Y-138273953D01*
X59967369Y-138302078D01*
X60034213Y-138345454D01*
X60118501Y-138401218D01*
X60215856Y-138466506D01*
X60289293Y-138516246D01*
X60660333Y-138768551D01*
X61278905Y-138513555D01*
X61362725Y-138068931D01*
X61446546Y-137624307D01*
X62371994Y-137624307D01*
X62455814Y-138068931D01*
G37*
X62455814Y-138068931D02*
X62539635Y-138513555D01*
X62848920Y-138641053D01*
X63158206Y-138768551D01*
X63529246Y-138516246D01*
X63633157Y-138445996D01*
X63727087Y-138383272D01*
X63806652Y-138330938D01*
X63867470Y-138291857D01*
X63905157Y-138268893D01*
X63915421Y-138263942D01*
X63933910Y-138276676D01*
X63973420Y-138311882D01*
X64029522Y-138365062D01*
X64097787Y-138431718D01*
X64173786Y-138507354D01*
X64253092Y-138587472D01*
X64331275Y-138667574D01*
X64403907Y-138743164D01*
X64466559Y-138809745D01*
X64514803Y-138862818D01*
X64544210Y-138897887D01*
X64551241Y-138909623D01*
X64541123Y-138931260D01*
X64512759Y-138978662D01*
X64469129Y-139047193D01*
X64413218Y-139132215D01*
X64348006Y-139229093D01*
X64310219Y-139284350D01*
X64241343Y-139385248D01*
X64180140Y-139476299D01*
X64129578Y-139552970D01*
X64092628Y-139610728D01*
X64072258Y-139645043D01*
X64069197Y-139652254D01*
X64076136Y-139672748D01*
X64095051Y-139720513D01*
X64123087Y-139788832D01*
X64157391Y-139870989D01*
X64195109Y-139960270D01*
X64233387Y-140049958D01*
X64269370Y-140133338D01*
X64300206Y-140203694D01*
X64323039Y-140254310D01*
X64335017Y-140278471D01*
X64335724Y-140279422D01*
X64354531Y-140284036D01*
X64404618Y-140294328D01*
X64480793Y-140309287D01*
X64577865Y-140327901D01*
X64690643Y-140349159D01*
X64756442Y-140361418D01*
X64876950Y-140384362D01*
X64985797Y-140406195D01*
X65077476Y-140425722D01*
X65146481Y-140441748D01*
X65187304Y-140453079D01*
X65195511Y-140456674D01*
X65203548Y-140481006D01*
X65210033Y-140535959D01*
X65214970Y-140615108D01*
X65218364Y-140712026D01*
X65220218Y-140820287D01*
X65220538Y-140933465D01*
X65219327Y-141045135D01*
X65216590Y-141148868D01*
X65212331Y-141238241D01*
X65206555Y-141306826D01*
X65199267Y-141348197D01*
X65194895Y-141356810D01*
X65168764Y-141367133D01*
X65113393Y-141381892D01*
X65036107Y-141399352D01*
X64944230Y-141417780D01*
X64912158Y-141423741D01*
X64757524Y-141452066D01*
X64635375Y-141474876D01*
X64541673Y-141493080D01*
X64472384Y-141507583D01*
X64423471Y-141519292D01*
X64390897Y-141529115D01*
X64370628Y-141537956D01*
X64358626Y-141546724D01*
X64356947Y-141548457D01*
X64340184Y-141576371D01*
X64314614Y-141630695D01*
X64282788Y-141704777D01*
X64247260Y-141791965D01*
X64210583Y-141885608D01*
X64175311Y-141979052D01*
X64143996Y-142065647D01*
X64119193Y-142138740D01*
X64103454Y-142191678D01*
X64099332Y-142217811D01*
X64099676Y-142218726D01*
X64113641Y-142240086D01*
X64145322Y-142287084D01*
X64191391Y-142354827D01*
X64248518Y-142438423D01*
X64313373Y-142532982D01*
X64331843Y-142559854D01*
X64397699Y-142657275D01*
X64455650Y-142746163D01*
X64502538Y-142821412D01*
X64535207Y-142877920D01*
X64550500Y-142910581D01*
X64551241Y-142914593D01*
X64538392Y-142935684D01*
X64502888Y-142977464D01*
X64449293Y-143035445D01*
X64382171Y-143105135D01*
X64306087Y-143182045D01*
X64225604Y-143261683D01*
X64145287Y-143339561D01*
X64069699Y-143411186D01*
X64003405Y-143472070D01*
X63950969Y-143517721D01*
X63916955Y-143543650D01*
X63907545Y-143547883D01*
X63885643Y-143537912D01*
X63840800Y-143511020D01*
X63780321Y-143471736D01*
X63733789Y-143440117D01*
X63649475Y-143382098D01*
X63549626Y-143313784D01*
X63449473Y-143245579D01*
X63395627Y-143209075D01*
X63213371Y-143085800D01*
X63060381Y-143168520D01*
X62990682Y-143204759D01*
X62931414Y-143232926D01*
X62891311Y-143248991D01*
X62881103Y-143251226D01*
X62868829Y-143234722D01*
X62844613Y-143188082D01*
X62810263Y-143115609D01*
X62767588Y-143021606D01*
X62718394Y-142910374D01*
X62664490Y-142786215D01*
X62607684Y-142653432D01*
X62549782Y-142516327D01*
X62492593Y-142379202D01*
X62437924Y-142246358D01*
X62387584Y-142122098D01*
X62343380Y-142010725D01*
X62307119Y-141916539D01*
X62280609Y-141843844D01*
X62265658Y-141796941D01*
X62263254Y-141780833D01*
X62282311Y-141760286D01*
X62324036Y-141726933D01*
X62379706Y-141687702D01*
X62384378Y-141684599D01*
X62528264Y-141569423D01*
X62644283Y-141435053D01*
X62731430Y-141285784D01*
X62788699Y-141125913D01*
X62815086Y-140959737D01*
X62809585Y-140791552D01*
X62771190Y-140625655D01*
X62698895Y-140466342D01*
X62677626Y-140431487D01*
X62566996Y-140290737D01*
X62436302Y-140177714D01*
X62290064Y-140093003D01*
X62132808Y-140037194D01*
X61969057Y-140010874D01*
X61803333Y-140014630D01*
X61640162Y-140049050D01*
X61484065Y-140114723D01*
X61339567Y-140212235D01*
X61294869Y-140251813D01*
X61181112Y-140375703D01*
X61098218Y-140506124D01*
X61041356Y-140652315D01*
X61009687Y-140797088D01*
X61001869Y-140959860D01*
X61027938Y-141123440D01*
X61085245Y-141282298D01*
X61171144Y-141430906D01*
X61282986Y-141563735D01*
X61418123Y-141675256D01*
X61435883Y-141687011D01*
X61492150Y-141725508D01*
X61534923Y-141758863D01*
X61555372Y-141780160D01*
X61555669Y-141780833D01*
X61551279Y-141803871D01*
X61533876Y-141856157D01*
X61505268Y-141933390D01*
X61467265Y-142031268D01*
X61421674Y-142145491D01*
X61370303Y-142271758D01*
X61314962Y-142405767D01*
X61257458Y-142543218D01*
X61199601Y-142679808D01*
X61143198Y-142811237D01*
X61090058Y-142933205D01*
X61041990Y-143041409D01*
X61000801Y-143131549D01*
X60968301Y-143199323D01*
X60946297Y-143240430D01*
X60937436Y-143251226D01*
X60910360Y-143242819D01*
X60859697Y-143220272D01*
X60794183Y-143187613D01*
X60758159Y-143168520D01*
X60605168Y-143085800D01*
X60422912Y-143209075D01*
X60329875Y-143272228D01*
X60228015Y-143341727D01*
X60132562Y-143407165D01*
X60084750Y-143440117D01*
X60017505Y-143485273D01*
X59960564Y-143521057D01*
X59921354Y-143542938D01*
X59908619Y-143547563D01*
X59890083Y-143535085D01*
X59849059Y-143500252D01*
X59789525Y-143446678D01*
X59715458Y-143377983D01*
X59630835Y-143297781D01*
X59577315Y-143246286D01*
X59483681Y-143154286D01*
X59402759Y-143071999D01*
X59337823Y-143002945D01*
X59292142Y-142950644D01*
X59268989Y-142918616D01*
X59266768Y-142912116D01*
X59277076Y-142887394D01*
X59305561Y-142837405D01*
X59349063Y-142767212D01*
X59404423Y-142681875D01*
X59468480Y-142586456D01*
X59486697Y-142559854D01*
X59553073Y-142463167D01*
X59612622Y-142376117D01*
X59662016Y-142303595D01*
X59697925Y-142250493D01*
X59717019Y-142221703D01*
X59718864Y-142218726D01*
X59716105Y-142195782D01*
X59701462Y-142145336D01*
X59677487Y-142074041D01*
X59646734Y-141988547D01*
X59611756Y-141895507D01*
X59575107Y-141801574D01*
X59539339Y-141713399D01*
X59507006Y-141637634D01*
X59480662Y-141580931D01*
X59462858Y-141549943D01*
X59461593Y-141548457D01*
X59450706Y-141539601D01*
X59432318Y-141530843D01*
X59402394Y-141521277D01*
X59356897Y-141509996D01*
X59291791Y-141496093D01*
X59203039Y-141478663D01*
X59086607Y-141456798D01*
X58938458Y-141429591D01*
X58906382Y-141423741D01*
X58811314Y-141405374D01*
X58728435Y-141387405D01*
X58665070Y-141371569D01*
X58628542Y-141359600D01*
X58623644Y-141356810D01*
X58615573Y-141332072D01*
X58609013Y-141276790D01*
X58603967Y-141197389D01*
X58600441Y-141100296D01*
X58598439Y-140991938D01*
X58597964Y-140878740D01*
X58599023Y-140767128D01*
X58601618Y-140663529D01*
X58605754Y-140574368D01*
X58611437Y-140506072D01*
X58618669Y-140465066D01*
X58623029Y-140456674D01*
X58647302Y-140448208D01*
X58702574Y-140434435D01*
X58783338Y-140416550D01*
X58884088Y-140395748D01*
X58999317Y-140373223D01*
X59062098Y-140361418D01*
X59181213Y-140339151D01*
X59287435Y-140318979D01*
X59375573Y-140301915D01*
X59440434Y-140288969D01*
X59476826Y-140281155D01*
X59482816Y-140279422D01*
X59492939Y-140259890D01*
X59514338Y-140212843D01*
X59544161Y-140145003D01*
X59579555Y-140063091D01*
X59617668Y-139973828D01*
X59655647Y-139883935D01*
X59690640Y-139800135D01*
X59719794Y-139729147D01*
X59740257Y-139677694D01*
X59749177Y-139652497D01*
X59749343Y-139651396D01*
X59739231Y-139631519D01*
X59710883Y-139585777D01*
X59667277Y-139518717D01*
X59611394Y-139434884D01*
X59546213Y-139338826D01*
X59508321Y-139283650D01*
X59439275Y-139182481D01*
X59377950Y-139090630D01*
X59327337Y-139012744D01*
X59290429Y-138953469D01*
X59270218Y-138917451D01*
X59267299Y-138909377D01*
X59279847Y-138890584D01*
X59314537Y-138850457D01*
X59366937Y-138793493D01*
X59432616Y-138724185D01*
X59507144Y-138647031D01*
X59586087Y-138566525D01*
X59665017Y-138487163D01*
X59739500Y-138413440D01*
X59805106Y-138349852D01*
X59857404Y-138300894D01*
X59891961Y-138271061D01*
X59903522Y-138263942D01*
X59922346Y-138273953D01*
X59967369Y-138302078D01*
X60034213Y-138345454D01*
X60118501Y-138401218D01*
X60215856Y-138466506D01*
X60289293Y-138516246D01*
X60660333Y-138768551D01*
X61278905Y-138513555D01*
X61362725Y-138068931D01*
X61446546Y-137624307D01*
X62371994Y-137624307D01*
X62455814Y-138068931D01*
D12*
%TO.C,C16*%
X97660000Y-115115835D02*
X97660000Y-114884165D01*
X96940000Y-115115835D02*
X96940000Y-114884165D01*
%TO.C,R29*%
X70332379Y-119980000D02*
X70667621Y-119980000D01*
X70332379Y-119220000D02*
X70667621Y-119220000D01*
%TO.C,R21*%
X104920000Y-125367621D02*
X104920000Y-125032379D01*
X105680000Y-125367621D02*
X105680000Y-125032379D01*
%TO.C,TP5*%
X81300000Y-141700000D02*
G75*
G03*
X81300000Y-141700000I-700000J0D01*
G01*
%TO.C,TP3*%
X97100000Y-138100000D02*
G75*
G03*
X97100000Y-138100000I-700000J0D01*
G01*
D13*
%TO.C,SW1*%
X112760000Y-110360000D02*
X112760000Y-109670000D01*
X112760000Y-112970000D02*
X112760000Y-112240000D01*
X106760000Y-109670000D02*
X112760000Y-109670000D01*
X106760000Y-112280000D02*
X106760000Y-112970000D01*
X108750000Y-110560000D02*
X110780000Y-110560000D01*
X110780000Y-112080000D02*
X108750000Y-112080000D01*
X112760000Y-112970000D02*
X106760000Y-112970000D01*
X108750000Y-112080000D02*
X108750000Y-110560000D01*
X110780000Y-110560000D02*
X110780000Y-112080000D01*
X106760000Y-109670000D02*
X106760000Y-110320000D01*
D12*
%TO.C,C34*%
X92612500Y-151478335D02*
X92612500Y-151246665D01*
X91892500Y-151478335D02*
X91892500Y-151246665D01*
D14*
%TO.C,D2*%
X105785000Y-151700000D02*
G75*
G03*
X105785000Y-151700000I-50000J0D01*
G01*
D12*
%TO.C,C35*%
X118115835Y-113040000D02*
X117884165Y-113040000D01*
X118115835Y-113760000D02*
X117884165Y-113760000D01*
%TO.C,C22*%
X89884165Y-140360000D02*
X90115835Y-140360000D01*
X89884165Y-139640000D02*
X90115835Y-139640000D01*
%TO.C,C8*%
X91281665Y-131172500D02*
X91513335Y-131172500D01*
X91281665Y-131892500D02*
X91513335Y-131892500D01*
%TO.C,R18*%
X118832379Y-136020000D02*
X119167621Y-136020000D01*
X118832379Y-136780000D02*
X119167621Y-136780000D01*
%TO.C,C26*%
X83360000Y-139315835D02*
X83360000Y-139084165D01*
X82640000Y-139315835D02*
X82640000Y-139084165D01*
%TO.C,R2*%
X92267621Y-113020000D02*
X91932379Y-113020000D01*
X92267621Y-113780000D02*
X91932379Y-113780000D01*
%TO.C,R17*%
X118232379Y-138880000D02*
X118567621Y-138880000D01*
X118232379Y-138120000D02*
X118567621Y-138120000D01*
%TO.C,R12*%
X86120000Y-134067621D02*
X86120000Y-133732379D01*
X86880000Y-134067621D02*
X86880000Y-133732379D01*
%TO.C,C18*%
X103460000Y-125084165D02*
X103460000Y-125315835D01*
X102740000Y-125084165D02*
X102740000Y-125315835D01*
%TO.C,C25*%
X85784165Y-131740000D02*
X86015835Y-131740000D01*
X85784165Y-132460000D02*
X86015835Y-132460000D01*
%TO.C,R15*%
X118832379Y-132820000D02*
X119167621Y-132820000D01*
X118832379Y-133580000D02*
X119167621Y-133580000D01*
%TO.C,C27*%
X94960000Y-138815835D02*
X94960000Y-138584165D01*
X94240000Y-138815835D02*
X94240000Y-138584165D01*
%TO.C,C11*%
X93681665Y-130792500D02*
X93913335Y-130792500D01*
X93681665Y-130072500D02*
X93913335Y-130072500D01*
%TO.C,J4*%
X58655000Y-100570000D02*
X58655000Y-103230000D01*
X106975000Y-100570000D02*
X58655000Y-100570000D01*
X106975000Y-103230000D02*
X58655000Y-103230000D01*
X109575000Y-100570000D02*
X109575000Y-101900000D01*
X106975000Y-100570000D02*
X106975000Y-103230000D01*
X108245000Y-100570000D02*
X109575000Y-100570000D01*
%TO.C,C29*%
X80115835Y-140260000D02*
X79884165Y-140260000D01*
X80115835Y-139540000D02*
X79884165Y-139540000D01*
D10*
%TO.C,F1*%
X84940000Y-141040000D02*
X84940000Y-142560000D01*
X86590000Y-142820000D02*
X85320000Y-142820000D01*
X89260000Y-141040000D02*
X89260000Y-142560000D01*
X88880000Y-140780000D02*
X87610000Y-140780000D01*
X87610000Y-142820000D02*
X88880000Y-142820000D01*
X85320000Y-140780000D02*
X86560000Y-140780000D01*
X87100000Y-141420000D02*
G75*
G03*
X87100000Y-141800000I0J-190000D01*
G01*
X87100000Y-142180000D02*
G75*
G03*
X87100000Y-141800000I0J190000D01*
G01*
D12*
%TO.C,R1*%
X87932379Y-116620000D02*
X88267621Y-116620000D01*
X87932379Y-117380000D02*
X88267621Y-117380000D01*
%TO.C,R9*%
X92867621Y-135420000D02*
X92532379Y-135420000D01*
X92867621Y-136180000D02*
X92532379Y-136180000D01*
%TO.C,C13*%
X108715835Y-126340000D02*
X108484165Y-126340000D01*
X108715835Y-127060000D02*
X108484165Y-127060000D01*
D10*
%TO.C,X1*%
X106670000Y-125830000D02*
X106670000Y-121770000D01*
X106670000Y-121770000D02*
X110030000Y-121770000D01*
X110260000Y-126060000D02*
X110260000Y-124200000D01*
X110030000Y-125830000D02*
X106670000Y-125830000D01*
X108600000Y-126060000D02*
X110260000Y-126060000D01*
X110030000Y-121770000D02*
X110030000Y-125830000D01*
D12*
%TO.C,C10*%
X94515835Y-115240000D02*
X94284165Y-115240000D01*
X94515835Y-115960000D02*
X94284165Y-115960000D01*
%TO.C,R11*%
X84920000Y-133732379D02*
X84920000Y-134067621D01*
X85680000Y-133732379D02*
X85680000Y-134067621D01*
%TO.C,C3*%
X88215835Y-126340000D02*
X87984165Y-126340000D01*
X88215835Y-127060000D02*
X87984165Y-127060000D01*
%TO.C,C33*%
X93092500Y-151478335D02*
X93092500Y-151246665D01*
X93812500Y-151478335D02*
X93812500Y-151246665D01*
%TO.C,C24*%
X94760000Y-136184165D02*
X94760000Y-136415835D01*
X94040000Y-136184165D02*
X94040000Y-136415835D01*
%TO.C,J3*%
X58225000Y-129550000D02*
X58625000Y-129350000D01*
X60815000Y-121885000D02*
X60815000Y-121775000D01*
X60815000Y-121775000D02*
X61415000Y-121775000D01*
X60815000Y-132315000D02*
X60815000Y-132425000D01*
X58625000Y-129350000D02*
X58225000Y-129150000D01*
X60815000Y-132425000D02*
X61415000Y-132425000D01*
X58225000Y-129150000D02*
X58225000Y-129550000D01*
%TO.C,J1*%
X102630000Y-134805000D02*
X101300000Y-134805000D01*
X99970000Y-132205000D02*
X99970000Y-129605000D01*
X102630000Y-132205000D02*
X99970000Y-132205000D01*
X102630000Y-133475000D02*
X102630000Y-134805000D01*
X102630000Y-129605000D02*
X99970000Y-129605000D01*
X102630000Y-132205000D02*
X102630000Y-129605000D01*
%TO.C,C12*%
X95981665Y-130792500D02*
X96213335Y-130792500D01*
X95981665Y-130072500D02*
X96213335Y-130072500D01*
%TO.C,C30*%
X77940000Y-135715835D02*
X77940000Y-135484165D01*
X78660000Y-135715835D02*
X78660000Y-135484165D01*
%TO.C,R4*%
X96265121Y-131152500D02*
X95929879Y-131152500D01*
X96265121Y-131912500D02*
X95929879Y-131912500D01*
%TO.C,R20*%
X77420000Y-153332379D02*
X77420000Y-153667621D01*
X78180000Y-153332379D02*
X78180000Y-153667621D01*
D10*
%TO.C,L2*%
X91320000Y-138850000D02*
X91170000Y-138700000D01*
X91320000Y-137530000D02*
X92090000Y-137530000D01*
X93850000Y-137530000D02*
X93090000Y-137530000D01*
X94010000Y-137690000D02*
X94010000Y-138700000D01*
X94010000Y-138700000D02*
X93850000Y-138850000D01*
X93850000Y-138850000D02*
X93090000Y-138850000D01*
X91170000Y-138700000D02*
X91170000Y-137690000D01*
X91320000Y-138850000D02*
X92090000Y-138850000D01*
X93850000Y-137530000D02*
X94010000Y-137690000D01*
X91170000Y-137690000D02*
X91320000Y-137530000D01*
%TO.C,U5*%
X99870000Y-152580000D02*
X96330000Y-152580000D01*
X96330000Y-152580000D02*
X96330000Y-142420000D01*
X96330000Y-142420000D02*
X99870000Y-142420000D01*
X99870000Y-142420000D02*
X99870000Y-152580000D01*
D15*
X101120000Y-152680000D02*
G75*
G03*
X101120000Y-152680000I-150000J0D01*
G01*
X99270000Y-151950000D02*
G75*
G03*
X99270000Y-151950000I-150000J0D01*
G01*
D12*
%TO.C,R16*%
X118234879Y-140020000D02*
X118570121Y-140020000D01*
X118234879Y-140780000D02*
X118570121Y-140780000D01*
%TO.C,C23*%
X82740000Y-136684165D02*
X82740000Y-136915835D01*
X83460000Y-136684165D02*
X83460000Y-136915835D01*
%TO.C,C14*%
X100584165Y-115840000D02*
X100815835Y-115840000D01*
X100584165Y-116560000D02*
X100815835Y-116560000D01*
%TO.C,C15*%
X100584165Y-115460000D02*
X100815835Y-115460000D01*
X100584165Y-114740000D02*
X100815835Y-114740000D01*
%TO.C,TP4*%
X88900000Y-131000000D02*
G75*
G03*
X88900000Y-131000000I-700000J0D01*
G01*
%TO.C,C5*%
X87240000Y-124915835D02*
X87240000Y-124684165D01*
X87960000Y-124915835D02*
X87960000Y-124684165D01*
%TO.C,R30*%
X118167621Y-111820000D02*
X117832379Y-111820000D01*
X118167621Y-112580000D02*
X117832379Y-112580000D01*
D13*
%TO.C,Card1*%
X123590000Y-139450000D02*
X123590000Y-142550000D01*
X138600000Y-137900000D02*
X135000000Y-137900000D01*
X137560000Y-152920000D02*
X135000000Y-152920000D01*
X137560000Y-145980000D02*
X137560000Y-152920000D01*
X132380000Y-137900000D02*
X124990000Y-137900000D01*
X138580000Y-137930000D02*
X138580000Y-140440000D01*
X125190000Y-152920000D02*
X132380000Y-152920000D01*
X138390000Y-141450000D02*
G75*
G03*
X138577916Y-140450363I-2620002J1010000D01*
G01*
X138391654Y-141449783D02*
G75*
G03*
X137560000Y-145970000I11868357J-4520219D01*
G01*
D12*
%TO.C,R27*%
X70332379Y-117820000D02*
X70667621Y-117820000D01*
X70332379Y-118580000D02*
X70667621Y-118580000D01*
%TO.C,C31*%
X76740000Y-135715835D02*
X76740000Y-135484165D01*
X77460000Y-135715835D02*
X77460000Y-135484165D01*
D14*
%TO.C,D1*%
X105785000Y-153300000D02*
G75*
G03*
X105785000Y-153300000I-50000J0D01*
G01*
D12*
%TO.C,R26*%
X70329879Y-114920000D02*
X70665121Y-114920000D01*
X70329879Y-115680000D02*
X70665121Y-115680000D01*
%TO.C,C19*%
X104560000Y-125084165D02*
X104560000Y-125315835D01*
X103840000Y-125084165D02*
X103840000Y-125315835D01*
D10*
%TO.C,U1*%
X100080000Y-116920000D02*
X100080000Y-117500000D01*
X99500000Y-127080000D02*
X100080000Y-127080000D01*
X89920000Y-116920000D02*
X89920000Y-117500000D01*
X100080000Y-127080000D02*
X100080000Y-126500000D01*
X99500000Y-116920000D02*
X100080000Y-116920000D01*
X90500000Y-127080000D02*
X89920000Y-127080000D01*
X89920000Y-127080000D02*
X89920000Y-126500000D01*
X90500000Y-116920000D02*
X89920000Y-116920000D01*
D16*
X89310000Y-117800000D02*
G75*
G03*
X89310000Y-117800000I-120000J0D01*
G01*
D12*
%TO.C,C20*%
X87815835Y-139640000D02*
X87584165Y-139640000D01*
X87815835Y-140360000D02*
X87584165Y-140360000D01*
%TO.C,R25*%
X70332379Y-116320000D02*
X70667621Y-116320000D01*
X70332379Y-117080000D02*
X70667621Y-117080000D01*
%TO.C,C32*%
X103312500Y-147678335D02*
X103312500Y-147446665D01*
X102592500Y-147678335D02*
X102592500Y-147446665D01*
%TO.C,C17*%
X107884165Y-121460000D02*
X108115835Y-121460000D01*
X107884165Y-120740000D02*
X108115835Y-120740000D01*
%TO.C,R8*%
X85067621Y-137680000D02*
X84732379Y-137680000D01*
X85067621Y-136920000D02*
X84732379Y-136920000D01*
%TO.C,C28*%
X85784165Y-130640000D02*
X86015835Y-130640000D01*
X85784165Y-131360000D02*
X86015835Y-131360000D01*
%TO.C,TP2*%
X76000000Y-136200000D02*
G75*
G03*
X76000000Y-136200000I-700000J0D01*
G01*
D10*
%TO.C,L3*%
X87230000Y-132450000D02*
X87390000Y-132290000D01*
X88400000Y-135130000D02*
X87390000Y-135130000D01*
X87230000Y-134980000D02*
X87230000Y-134210000D01*
X87390000Y-135130000D02*
X87230000Y-134980000D01*
X88550000Y-132450000D02*
X88550000Y-133210000D01*
X88550000Y-134980000D02*
X88400000Y-135130000D01*
X88550000Y-134980000D02*
X88550000Y-134210000D01*
X87230000Y-132450000D02*
X87230000Y-133210000D01*
X87390000Y-132290000D02*
X88400000Y-132290000D01*
X88400000Y-132290000D02*
X88550000Y-132450000D01*
D12*
%TO.C,C4*%
X88960000Y-118915835D02*
X88960000Y-118684165D01*
X88240000Y-118915835D02*
X88240000Y-118684165D01*
D13*
%TO.C,USB1*%
X135162500Y-105240000D02*
X135162500Y-107100000D01*
X130192500Y-112120000D02*
X134762500Y-111470000D01*
X130092500Y-107350000D02*
X134662500Y-106690000D01*
X132782500Y-106920000D02*
X132782500Y-105470000D01*
X130122500Y-107680000D02*
X130092500Y-107350000D01*
X129602500Y-115480000D02*
X138512500Y-115480000D01*
X135272500Y-111870000D02*
X130222500Y-112450000D01*
X135272500Y-110020000D02*
X135272500Y-111870000D01*
X124812500Y-109070000D02*
X124812500Y-108730000D01*
X130112500Y-104660000D02*
X135162500Y-105240000D01*
X130162500Y-109740000D02*
X130212500Y-109430000D01*
X131132500Y-112020000D02*
X131132500Y-109940000D01*
X131022500Y-107250000D02*
X131022500Y-105170000D01*
X124812500Y-107070000D02*
X124812500Y-106220000D01*
X130222500Y-112450000D02*
X130192500Y-112120000D01*
X130212500Y-109430000D02*
X135272500Y-110020000D01*
X124812500Y-111570000D02*
X124812500Y-110730000D01*
X130062500Y-104960000D02*
X130112500Y-104660000D01*
X138512500Y-115480000D02*
X138512500Y-102320000D01*
X132882500Y-111690000D02*
X132882500Y-110250000D01*
X134662500Y-105750000D02*
X130062500Y-104960000D01*
X134762500Y-110530000D02*
X130162500Y-109740000D01*
X138512500Y-102320000D02*
X129682500Y-102320000D01*
X135162500Y-107100000D02*
X130122500Y-107680000D01*
X124812500Y-104560000D02*
X124812500Y-102950000D01*
X124812500Y-114910000D02*
X124812500Y-113230000D01*
X134662500Y-106690000D02*
X134662500Y-105750000D01*
X134762500Y-111470000D02*
X134762500Y-110530000D01*
D12*
%TO.C,R23*%
X109680000Y-149932379D02*
X109680000Y-150267621D01*
X108920000Y-149932379D02*
X108920000Y-150267621D01*
%TO.C,R19*%
X77420000Y-150732379D02*
X77420000Y-151067621D01*
X78180000Y-150732379D02*
X78180000Y-151067621D01*
%TO.C,R6*%
X94567621Y-114120000D02*
X94232379Y-114120000D01*
X94567621Y-114880000D02*
X94232379Y-114880000D01*
D13*
%TO.C,U4*%
X88100000Y-157062500D02*
X79100000Y-157062500D01*
X79100000Y-157062500D02*
X79100000Y-155372500D01*
X88100000Y-153352500D02*
X88100000Y-151342500D01*
X79100000Y-153352500D02*
X79100000Y-151342500D01*
X88100000Y-157062500D02*
X88100000Y-155372500D01*
D12*
%TO.C,C1*%
X87860000Y-118915835D02*
X87860000Y-118684165D01*
X87140000Y-118915835D02*
X87140000Y-118684165D01*
%TO.C,C6*%
X91984165Y-115960000D02*
X92215835Y-115960000D01*
X91984165Y-115240000D02*
X92215835Y-115240000D01*
D10*
%TO.C,L1*%
X86280000Y-139370000D02*
X85510000Y-139370000D01*
X83750000Y-139370000D02*
X84510000Y-139370000D01*
X86430000Y-139210000D02*
X86280000Y-139370000D01*
X83750000Y-138050000D02*
X84510000Y-138050000D01*
X86280000Y-138050000D02*
X85510000Y-138050000D01*
X86430000Y-138200000D02*
X86430000Y-139210000D01*
X83750000Y-139370000D02*
X83590000Y-139210000D01*
X83590000Y-138200000D02*
X83750000Y-138050000D01*
X86280000Y-138050000D02*
X86430000Y-138200000D01*
X83590000Y-139210000D02*
X83590000Y-138200000D01*
D12*
%TO.C,R13*%
X82367621Y-135180000D02*
X82032379Y-135180000D01*
X82367621Y-134420000D02*
X82032379Y-134420000D01*
%TO.C,J2*%
X109590000Y-105730000D02*
X109590000Y-103070000D01*
X58670000Y-105730000D02*
X58670000Y-104400000D01*
X61270000Y-105730000D02*
X109590000Y-105730000D01*
X60000000Y-105730000D02*
X58670000Y-105730000D01*
X61270000Y-105730000D02*
X61270000Y-103070000D01*
X61270000Y-103070000D02*
X109590000Y-103070000D01*
%TO.C,C21*%
X90084165Y-134960000D02*
X90315835Y-134960000D01*
X90084165Y-134240000D02*
X90315835Y-134240000D01*
%TO.C,R14*%
X118832379Y-135080000D02*
X119167621Y-135080000D01*
X118832379Y-134320000D02*
X119167621Y-134320000D01*
%TO.C,R3*%
X93962621Y-131152500D02*
X93627379Y-131152500D01*
X93962621Y-131912500D02*
X93627379Y-131912500D01*
%TO.C,C7*%
X91984165Y-114860000D02*
X92215835Y-114860000D01*
X91984165Y-114140000D02*
X92215835Y-114140000D01*
%TO.C,C2*%
X88340000Y-124915835D02*
X88340000Y-124684165D01*
X89060000Y-124915835D02*
X89060000Y-124684165D01*
%TO.C,R10*%
X92532379Y-136520000D02*
X92867621Y-136520000D01*
X92532379Y-137280000D02*
X92867621Y-137280000D01*
D13*
%TO.C,MIC1*%
X119940085Y-116409796D02*
G75*
G03*
X119930000Y-116530000I-2030085J109797D01*
G01*
X118850000Y-117170000D02*
G75*
G03*
X118850000Y-117170000I-250000J0D01*
G01*
D12*
%TO.C,R5*%
X111867621Y-114580000D02*
X111532379Y-114580000D01*
X111867621Y-113820000D02*
X111532379Y-113820000D01*
D13*
%TO.C,U2*%
X87250000Y-135750000D02*
X87250000Y-136170000D01*
X87250000Y-138430000D02*
X87250000Y-138850000D01*
X90350000Y-138850000D02*
X90350000Y-138430000D01*
X89930000Y-135750000D02*
X90350000Y-135750000D01*
X87670000Y-138850000D02*
X87250000Y-138850000D01*
X90350000Y-136170000D02*
X90350000Y-135750000D01*
X90350000Y-138850000D02*
X89930000Y-138850000D01*
X87250000Y-135750000D02*
X87670000Y-135750000D01*
X86900000Y-135900000D02*
G75*
G03*
X86900000Y-135900000I-100000J0D01*
G01*
D12*
%TO.C,C9*%
X91281665Y-130072500D02*
X91513335Y-130072500D01*
X91281665Y-130792500D02*
X91513335Y-130792500D01*
%TO.C,R22*%
X109680000Y-152867621D02*
X109680000Y-152532379D01*
X108920000Y-152867621D02*
X108920000Y-152532379D01*
%TO.C,R7*%
X84732379Y-136580000D02*
X85067621Y-136580000D01*
X84732379Y-135820000D02*
X85067621Y-135820000D01*
%TO.C,R28*%
X70329879Y-114280000D02*
X70665121Y-114280000D01*
X70329879Y-113520000D02*
X70665121Y-113520000D01*
%TO.C,TP1*%
X97100000Y-135700000D02*
G75*
G03*
X97100000Y-135700000I-700000J0D01*
G01*
%TO.C,U3*%
X82060000Y-138220000D02*
X79140000Y-138220000D01*
X82060000Y-136620000D02*
X79140000Y-136620000D01*
X82060000Y-138220000D02*
X82060000Y-136630000D01*
X79140000Y-138220000D02*
X79140000Y-136630000D01*
%TD*%
M02*
