M48
; DRILL file {KiCad (6.0.0)} date Tue Aug 30 21:50:12 2022
; FORMAT={-:-/ absolute / metric / decimal}
; #@! TF.CreationDate,2022-08-30T21:50:12+08:00
; #@! TF.GenerationSoftware,Kicad,Pcbnew,(6.0.0)
; #@! TF.FileFunction,Plated,1,2,PTH
FMAT,2
METRIC
; #@! TA.AperFunction,Plated,PTH,ViaDrill
T1C0.400
; #@! TA.AperFunction,Plated,PTH,ComponentDrill
T2C0.500
; #@! TA.AperFunction,Plated,PTH,ComponentDrill
T3C0.600
; #@! TA.AperFunction,Plated,PTH,ViaDrill
T4C0.600
; #@! TA.AperFunction,Plated,PTH,ComponentDrill
T5C0.650
; #@! TA.AperFunction,Plated,PTH,ComponentDrill
T6C1.000
; #@! TA.AperFunction,Plated,PTH,ComponentDrill
T7C1.100
; #@! TA.AperFunction,Plated,PTH,ComponentDrill
T8C1.300
%
G90
G05
T1
X54.1Y-127.3
X56.1Y-127.3
X59.3Y-125.3
X60.6Y-127.8
X60.8Y-125.7
X60.9Y-126.847
X61.8Y-129.5
X62.6Y-127.8
X63.6Y-126.8
X63.8Y-125.7
X67.3Y-122.2
X67.4Y-119.3
X68.9Y-113.9
X68.9Y-115.3
X68.9Y-116.7
X68.9Y-118.2
X68.9Y-119.6
X76.9Y-154.1
X77.8Y-149.3
X78.5Y-139.9
X81.581Y-129.519
X81.9Y-120.6
X82.275Y-128.8
X83.0Y-140.7
X83.1Y-117.8
X83.1Y-119.9
X83.2Y-145.8
X83.3Y-122.9
X83.4Y-125.9
X83.467Y-121.863
X83.6Y-152.9
X83.7Y-134.8
X84.2Y-145.8
X84.4Y-133.3
X84.4Y-135.3
X85.3Y-151.1
X86.2Y-140.0
X86.4Y-118.2
X86.4Y-126.8
X86.999Y-121.947
X87.3Y-122.9
X87.4Y-111.1
X88.4Y-123.2
X88.802Y-120.333
X88.9Y-107.4
X88.9Y-113.049
X89.9Y-131.5
X90.4Y-135.7
X90.5Y-110.35
X90.5Y-113.4
X90.9Y-143.6
X90.9Y-144.6
X90.921Y-119.804
X91.0Y-122.2
X91.0Y-124.2
X91.1Y-118.6
X91.5Y-140.0
X91.6Y-134.6
X92.2Y-149.8
X92.5Y-128.0
X92.9Y-118.0
X93.3Y-134.9
X93.5Y-149.8
X93.7Y-139.3
X94.0Y-109.799
X94.0Y-118.0
X94.4Y-134.8
X95.6Y-128.0
X96.4Y-118.0
X96.697Y-132.399
X96.8Y-128.1
X97.3Y-113.4
X97.6Y-128.799
X98.0Y-112.1
X98.501Y-129.474
X98.9Y-118.2
X98.9Y-122.5
X98.975Y-120.6
X99.0Y-124.2
X99.01Y-126.007
X99.5Y-111.7
X100.1Y-114.2
X100.1Y-153.3
X100.9Y-109.7
X101.456Y-127.256
X101.806Y-125.194
X101.9Y-109.0
X102.2Y-115.3
X102.5Y-151.9
X102.8Y-111.6
X102.9Y-108.3
X102.9Y-146.1
X103.5Y-110.7
X103.7Y-126.7
X104.2Y-139.8
X104.2Y-151.7
X104.6Y-110.0
X104.8Y-127.3
X105.6Y-139.9
X105.6Y-143.1
X105.9Y-113.0
X106.0Y-114.2
X106.9Y-139.9
X106.9Y-143.1
X107.1Y-126.7
X108.6Y-120.2
X112.8Y-127.5
X112.8Y-128.5
X113.9Y-112.8
X116.3Y-107.4
X116.3Y-113.3
X116.8Y-150.3
X117.4Y-111.1
X118.0Y-127.5
X118.0Y-128.5
X120.0Y-138.5
X120.002Y-140.4
X120.6Y-131.6
X120.6Y-133.201
X120.6Y-134.7
X120.6Y-136.4
X121.9Y-146.4
X121.9Y-148.7
X121.9Y-151.9
T2
X117.2Y-115.9
X118.6Y-115.9
T4
X52.7Y-138.1
X59.1Y-121.3
X59.1Y-133.0
X71.3Y-110.3
X76.5Y-115.5
X78.1Y-146.6
X80.0Y-148.2
X83.4Y-115.6
X87.0Y-148.2
X87.4Y-115.5
X88.3Y-146.5
X89.2Y-133.5
X89.7Y-141.8
X121.5Y-105.5
X122.6Y-137.5
X125.9Y-112.6
X126.8Y-103.7
X126.8Y-118.2
X132.7Y-151.5
X133.8Y-139.2
X134.3Y-112.4
T5
X80.7Y-150.752
X86.49Y-150.752
T6
X59.985Y-101.9
X60.0Y-104.4
X62.525Y-101.9
X62.54Y-104.4
X65.065Y-101.9
X65.08Y-104.4
X67.605Y-101.9
X67.62Y-104.4
X70.145Y-101.9
X70.16Y-104.4
X72.685Y-101.9
X72.7Y-104.4
X75.225Y-101.9
X75.24Y-104.4
X77.765Y-101.9
X77.78Y-104.4
X80.305Y-101.9
X80.32Y-104.4
X82.845Y-101.9
X82.86Y-104.4
X85.385Y-101.9
X85.4Y-104.4
X87.925Y-101.9
X87.94Y-104.4
X90.465Y-101.9
X90.48Y-104.4
X93.005Y-101.9
X93.02Y-104.4
X95.545Y-101.9
X95.56Y-104.4
X98.085Y-101.9
X98.1Y-104.4
X100.625Y-101.9
X100.64Y-104.4
X101.3Y-130.935
X101.3Y-133.475
X103.165Y-101.9
X103.18Y-104.4
X105.705Y-101.9
X105.72Y-104.4
X108.245Y-101.9
X108.26Y-104.4
T7
X134.1Y-142.3
X134.1Y-150.3
T8
X128.312Y-106.4
X128.312Y-111.4
T3
G00X79.28Y-149.703
M15
G01X79.28Y-150.802
M16
G05
G00X79.28Y-154.033
M15
G01X79.28Y-154.832
M16
G05
G00X87.92Y-149.703
M15
G01X87.92Y-150.802
M16
G05
G00X87.92Y-154.033
M15
G01X87.92Y-154.832
M16
G05
T0
M30
