%TF.GenerationSoftware,KiCad,Pcbnew,(6.0.0)*%
%TF.CreationDate,2022-08-30T21:50:04+08:00*%
%TF.ProjectId,F1C200S-HomeAssistant-Board,46314332-3030-4532-9d48-6f6d65417373,rev?*%
%TF.SameCoordinates,Original*%
%TF.FileFunction,Copper,L1,Top*%
%TF.FilePolarity,Positive*%
%FSLAX46Y46*%
G04 Gerber Fmt 4.6, Leading zero omitted, Abs format (unit mm)*
G04 Created by KiCad (PCBNEW (6.0.0)) date 2022-08-30 21:50:04*
%MOMM*%
%LPD*%
G01*
G04 APERTURE LIST*
G04 Aperture macros list*
%AMRoundRect*
0 Rectangle with rounded corners*
0 $1 Rounding radius*
0 $2 $3 $4 $5 $6 $7 $8 $9 X,Y pos of 4 corners*
0 Add a 4 corners polygon primitive as box body*
4,1,4,$2,$3,$4,$5,$6,$7,$8,$9,$2,$3,0*
0 Add four circle primitives for the rounded corners*
1,1,$1+$1,$2,$3*
1,1,$1+$1,$4,$5*
1,1,$1+$1,$6,$7*
1,1,$1+$1,$8,$9*
0 Add four rect primitives between the rounded corners*
20,1,$1+$1,$2,$3,$4,$5,0*
20,1,$1+$1,$4,$5,$6,$7,0*
20,1,$1+$1,$6,$7,$8,$9,0*
20,1,$1+$1,$8,$9,$2,$3,0*%
G04 Aperture macros list end*
%TA.AperFunction,SMDPad,CuDef*%
%ADD10RoundRect,0.155000X0.155000X-0.212500X0.155000X0.212500X-0.155000X0.212500X-0.155000X-0.212500X0*%
%TD*%
%TA.AperFunction,SMDPad,CuDef*%
%ADD11RoundRect,0.160000X-0.197500X-0.160000X0.197500X-0.160000X0.197500X0.160000X-0.197500X0.160000X0*%
%TD*%
%TA.AperFunction,SMDPad,CuDef*%
%ADD12RoundRect,0.160000X0.160000X-0.197500X0.160000X0.197500X-0.160000X0.197500X-0.160000X-0.197500X0*%
%TD*%
%TA.AperFunction,SMDPad,CuDef*%
%ADD13C,1.000000*%
%TD*%
%TA.AperFunction,SMDPad,CuDef*%
%ADD14R,1.900000X1.500000*%
%TD*%
%TA.AperFunction,SMDPad,CuDef*%
%ADD15RoundRect,0.160000X-0.222500X-0.160000X0.222500X-0.160000X0.222500X0.160000X-0.222500X0.160000X0*%
%TD*%
%TA.AperFunction,SMDPad,CuDef*%
%ADD16RoundRect,0.155000X0.212500X0.155000X-0.212500X0.155000X-0.212500X-0.155000X0.212500X-0.155000X0*%
%TD*%
%TA.AperFunction,SMDPad,CuDef*%
%ADD17RoundRect,0.155000X-0.212500X-0.155000X0.212500X-0.155000X0.212500X0.155000X-0.212500X0.155000X0*%
%TD*%
%TA.AperFunction,SMDPad,CuDef*%
%ADD18RoundRect,0.160000X0.197500X0.160000X-0.197500X0.160000X-0.197500X-0.160000X0.197500X-0.160000X0*%
%TD*%
%TA.AperFunction,SMDPad,CuDef*%
%ADD19RoundRect,0.155000X-0.155000X0.212500X-0.155000X-0.212500X0.155000X-0.212500X0.155000X0.212500X0*%
%TD*%
%TA.AperFunction,ComponentPad*%
%ADD20R,1.700000X1.700000*%
%TD*%
%TA.AperFunction,ComponentPad*%
%ADD21O,1.700000X1.700000*%
%TD*%
%TA.AperFunction,SMDPad,CuDef*%
%ADD22R,1.330000X1.500000*%
%TD*%
%TA.AperFunction,SMDPad,CuDef*%
%ADD23R,1.200000X1.400000*%
%TD*%
%TA.AperFunction,SMDPad,CuDef*%
%ADD24RoundRect,0.160000X-0.160000X0.197500X-0.160000X-0.197500X0.160000X-0.197500X0.160000X0.197500X0*%
%TD*%
%TA.AperFunction,SMDPad,CuDef*%
%ADD25R,1.100000X0.300000*%
%TD*%
%TA.AperFunction,SMDPad,CuDef*%
%ADD26R,3.100000X2.300000*%
%TD*%
%TA.AperFunction,SMDPad,CuDef*%
%ADD27R,0.800000X0.860000*%
%TD*%
%TA.AperFunction,SMDPad,CuDef*%
%ADD28O,1.750000X0.560000*%
%TD*%
%TA.AperFunction,ComponentPad*%
%ADD29C,1.100000*%
%TD*%
%TA.AperFunction,SMDPad,CuDef*%
%ADD30R,1.600000X0.700000*%
%TD*%
%TA.AperFunction,SMDPad,CuDef*%
%ADD31R,1.600000X1.800000*%
%TD*%
%TA.AperFunction,SMDPad,CuDef*%
%ADD32R,2.400000X1.600000*%
%TD*%
%TA.AperFunction,SMDPad,CuDef*%
%ADD33R,1.400000X1.800000*%
%TD*%
%TA.AperFunction,SMDPad,CuDef*%
%ADD34R,0.800000X0.200000*%
%TD*%
%TA.AperFunction,SMDPad,CuDef*%
%ADD35R,0.200000X0.800000*%
%TD*%
%TA.AperFunction,SMDPad,CuDef*%
%ADD36R,6.750000X6.750000*%
%TD*%
%TA.AperFunction,SMDPad,CuDef*%
%ADD37R,0.860000X0.800000*%
%TD*%
%TA.AperFunction,ComponentPad*%
%ADD38C,1.300000*%
%TD*%
%TA.AperFunction,SMDPad,CuDef*%
%ADD39R,2.800000X1.200000*%
%TD*%
%TA.AperFunction,SMDPad,CuDef*%
%ADD40R,5.000000X2.200000*%
%TD*%
%TA.AperFunction,ComponentPad*%
%ADD41C,0.650000*%
%TD*%
%TA.AperFunction,ComponentPad*%
%ADD42O,1.000000X2.100000*%
%TD*%
%TA.AperFunction,ComponentPad*%
%ADD43O,1.000000X1.800000*%
%TD*%
%TA.AperFunction,SMDPad,CuDef*%
%ADD44R,0.600000X1.240000*%
%TD*%
%TA.AperFunction,SMDPad,CuDef*%
%ADD45R,0.300000X1.240000*%
%TD*%
%TA.AperFunction,ComponentPad*%
%ADD46R,1.000000X1.000000*%
%TD*%
%TA.AperFunction,ComponentPad*%
%ADD47C,1.000000*%
%TD*%
%TA.AperFunction,SMDPad,CuDef*%
%ADD48R,1.700000X1.700000*%
%TD*%
%TA.AperFunction,SMDPad,CuDef*%
%ADD49R,0.800000X0.800000*%
%TD*%
%TA.AperFunction,ViaPad*%
%ADD50C,0.800000*%
%TD*%
%TA.AperFunction,ViaPad*%
%ADD51C,1.000000*%
%TD*%
%TA.AperFunction,Conductor*%
%ADD52C,0.200000*%
%TD*%
%TA.AperFunction,Conductor*%
%ADD53C,0.500000*%
%TD*%
%TA.AperFunction,Conductor*%
%ADD54C,0.250000*%
%TD*%
%TA.AperFunction,Conductor*%
%ADD55C,1.000000*%
%TD*%
%TA.AperFunction,Conductor*%
%ADD56C,0.400000*%
%TD*%
G04 APERTURE END LIST*
D10*
%TO.P,C16,1*%
%TO.N,VDD_SYS*%
X97300000Y-115567500D03*
%TO.P,C16,2*%
%TO.N,GND*%
X97300000Y-114432500D03*
%TD*%
D11*
%TO.P,R29,1*%
%TO.N,+3V3*%
X69902500Y-119600000D03*
%TO.P,R29,2*%
%TO.N,LCD_~{RESET}*%
X71097500Y-119600000D03*
%TD*%
D12*
%TO.P,R21,1*%
%TO.N,USB_ID*%
X105300000Y-125797500D03*
%TO.P,R21,2*%
%TO.N,+3V3*%
X105300000Y-124602500D03*
%TD*%
D13*
%TO.P,TP5,1,1*%
%TO.N,+3V3*%
X80600000Y-141700000D03*
%TD*%
%TO.P,TP3,1,1*%
%TO.N,VDD_SYS*%
X96400000Y-138100000D03*
%TD*%
D14*
%TO.P,SW1,1,1*%
%TO.N,~{RESET}*%
X105900000Y-111300000D03*
%TO.P,SW1,2,2*%
%TO.N,GND*%
X113900000Y-111300000D03*
%TD*%
D10*
%TO.P,C34,1*%
%TO.N,+5V*%
X92252500Y-151930000D03*
%TO.P,C34,2*%
%TO.N,GND*%
X92252500Y-150795000D03*
%TD*%
D15*
%TO.P,D2,1,K*%
%TO.N,LED_SYS*%
X106427500Y-151700000D03*
%TO.P,D2,2,A*%
%TO.N,Net-(D2-Pad2)*%
X107572500Y-151700000D03*
%TD*%
D16*
%TO.P,C35,1*%
%TO.N,Net-(C35-Pad1)*%
X118567500Y-113400000D03*
%TO.P,C35,2*%
%TO.N,MIC_IN*%
X117432500Y-113400000D03*
%TD*%
D17*
%TO.P,C22,1*%
%TO.N,+5V*%
X89432500Y-140000000D03*
%TO.P,C22,2*%
%TO.N,GND*%
X90567500Y-140000000D03*
%TD*%
%TO.P,C8,1*%
%TO.N,GND*%
X90830000Y-131532500D03*
%TO.P,C8,2*%
%TO.N,+2V5*%
X91965000Y-131532500D03*
%TD*%
D11*
%TO.P,R18,1*%
%TO.N,SDC0_CMD*%
X118402500Y-136400000D03*
%TO.P,R18,2*%
%TO.N,+3V3*%
X119597500Y-136400000D03*
%TD*%
D10*
%TO.P,C26,1*%
%TO.N,GND*%
X83000000Y-139767500D03*
%TO.P,C26,2*%
%TO.N,+3V3*%
X83000000Y-138632500D03*
%TD*%
D18*
%TO.P,R2,1*%
%TO.N,Net-(C6-Pad2)*%
X92697500Y-113400000D03*
%TO.P,R2,2*%
%TO.N,GNDA*%
X91502500Y-113400000D03*
%TD*%
D11*
%TO.P,R17,1*%
%TO.N,SDC0_D3*%
X117802500Y-138500000D03*
%TO.P,R17,2*%
%TO.N,+3V3*%
X118997500Y-138500000D03*
%TD*%
D12*
%TO.P,R12,1*%
%TO.N,FB3*%
X86500000Y-134497500D03*
%TO.P,R12,2*%
%TO.N,+2V5*%
X86500000Y-133302500D03*
%TD*%
D19*
%TO.P,C18,1*%
%TO.N,+3V3*%
X103100000Y-124632500D03*
%TO.P,C18,2*%
%TO.N,GND*%
X103100000Y-125767500D03*
%TD*%
D17*
%TO.P,C25,1*%
%TO.N,GND*%
X85332500Y-132100000D03*
%TO.P,C25,2*%
%TO.N,+2V5*%
X86467500Y-132100000D03*
%TD*%
D11*
%TO.P,R15,1*%
%TO.N,SDC0_D1*%
X118402500Y-133200000D03*
%TO.P,R15,2*%
%TO.N,+3V3*%
X119597500Y-133200000D03*
%TD*%
D10*
%TO.P,C27,1*%
%TO.N,GND*%
X94600000Y-139267500D03*
%TO.P,C27,2*%
%TO.N,VDD_SYS*%
X94600000Y-138132500D03*
%TD*%
D17*
%TO.P,C11,1*%
%TO.N,+2V5*%
X93230000Y-130432500D03*
%TO.P,C11,2*%
%TO.N,Net-(C11-Pad2)*%
X94365000Y-130432500D03*
%TD*%
D20*
%TO.P,J4,1,Pin_1*%
%TO.N,unconnected-(J4-Pad1)*%
X108245000Y-101900000D03*
D21*
%TO.P,J4,2,Pin_2*%
%TO.N,unconnected-(J4-Pad2)*%
X105705000Y-101900000D03*
%TO.P,J4,3,Pin_3*%
%TO.N,unconnected-(J4-Pad3)*%
X103165000Y-101900000D03*
%TO.P,J4,4,Pin_4*%
%TO.N,GND*%
X100625000Y-101900000D03*
%TO.P,J4,5,Pin_5*%
%TO.N,unconnected-(J4-Pad5)*%
X98085000Y-101900000D03*
%TO.P,J4,6,Pin_6*%
%TO.N,GND*%
X95545000Y-101900000D03*
%TO.P,J4,7,Pin_7*%
%TO.N,unconnected-(J4-Pad7)*%
X93005000Y-101900000D03*
%TO.P,J4,8,Pin_8*%
%TO.N,unconnected-(J4-Pad8)*%
X90465000Y-101900000D03*
%TO.P,J4,9,Pin_9*%
%TO.N,unconnected-(J4-Pad9)*%
X87925000Y-101900000D03*
%TO.P,J4,10,Pin_10*%
%TO.N,unconnected-(J4-Pad10)*%
X85385000Y-101900000D03*
%TO.P,J4,11,Pin_11*%
%TO.N,GND*%
X82845000Y-101900000D03*
%TO.P,J4,12,Pin_12*%
%TO.N,unconnected-(J4-Pad12)*%
X80305000Y-101900000D03*
%TO.P,J4,13,Pin_13*%
%TO.N,unconnected-(J4-Pad13)*%
X77765000Y-101900000D03*
%TO.P,J4,14,Pin_14*%
%TO.N,GND*%
X75225000Y-101900000D03*
%TO.P,J4,15,Pin_15*%
%TO.N,unconnected-(J4-Pad15)*%
X72685000Y-101900000D03*
%TO.P,J4,16,Pin_16*%
%TO.N,unconnected-(J4-Pad16)*%
X70145000Y-101900000D03*
%TO.P,J4,17,Pin_17*%
%TO.N,unconnected-(J4-Pad17)*%
X67605000Y-101900000D03*
%TO.P,J4,18,Pin_18*%
%TO.N,GND*%
X65065000Y-101900000D03*
%TO.P,J4,19,Pin_19*%
%TO.N,+5V*%
X62525000Y-101900000D03*
%TO.P,J4,20,Pin_20*%
X59985000Y-101900000D03*
%TD*%
D16*
%TO.P,C29,1*%
%TO.N,+3V3*%
X80567500Y-139900000D03*
%TO.P,C29,2*%
%TO.N,GND*%
X79432500Y-139900000D03*
%TD*%
D22*
%TO.P,F1,1,1*%
%TO.N,VBUS*%
X85960000Y-141800000D03*
%TO.P,F1,2,2*%
%TO.N,+5V*%
X88240000Y-141800000D03*
%TD*%
D11*
%TO.P,R1,1*%
%TO.N,+3V3*%
X87502500Y-117000000D03*
%TO.P,R1,2*%
%TO.N,Net-(R1-Pad2)*%
X88697500Y-117000000D03*
%TD*%
D18*
%TO.P,R9,1*%
%TO.N,GND*%
X93297500Y-135800000D03*
%TO.P,R9,2*%
%TO.N,Net-(R10-Pad1)*%
X92102500Y-135800000D03*
%TD*%
D16*
%TO.P,C13,1*%
%TO.N,HOSCI*%
X109167500Y-126700000D03*
%TO.P,C13,2*%
%TO.N,GND*%
X108032500Y-126700000D03*
%TD*%
D23*
%TO.P,X1,1,OSC1*%
%TO.N,HOSCI*%
X109200000Y-124900000D03*
%TO.P,X1,2,GND*%
%TO.N,GND*%
X109200000Y-122700000D03*
%TO.P,X1,3,OSC2*%
%TO.N,HOSCO*%
X107500000Y-122700000D03*
%TO.P,X1,4,GND*%
%TO.N,GND*%
X107500000Y-124900000D03*
%TD*%
D16*
%TO.P,C10,1*%
%TO.N,GNDA*%
X94967500Y-115600000D03*
%TO.P,C10,2*%
%TO.N,Net-(C10-Pad2)*%
X93832500Y-115600000D03*
%TD*%
D24*
%TO.P,R11,1*%
%TO.N,GND*%
X85300000Y-133302500D03*
%TO.P,R11,2*%
%TO.N,FB3*%
X85300000Y-134497500D03*
%TD*%
D16*
%TO.P,C3,1*%
%TO.N,VDD_SYS*%
X88667500Y-126700000D03*
%TO.P,C3,2*%
%TO.N,GND*%
X87532500Y-126700000D03*
%TD*%
D10*
%TO.P,C33,1*%
%TO.N,+5V*%
X93452500Y-151930000D03*
%TO.P,C33,2*%
%TO.N,GND*%
X93452500Y-150795000D03*
%TD*%
D19*
%TO.P,C24,1*%
%TO.N,GND*%
X94400000Y-135732500D03*
%TO.P,C24,2*%
%TO.N,VDD_SYS*%
X94400000Y-136867500D03*
%TD*%
D25*
%TO.P,J3,1,Pin_1*%
%TO.N,GND*%
X57425000Y-129350000D03*
%TO.P,J3,2,Pin_2*%
%TO.N,SPI1_MOSI*%
X57425000Y-128850000D03*
%TO.P,J3,3,Pin_3*%
%TO.N,SPI1_MISO*%
X57425000Y-128350000D03*
%TO.P,J3,4,Pin_4*%
%TO.N,SPI1_CLK*%
X57425000Y-127850000D03*
%TO.P,J3,5,Pin_5*%
%TO.N,SPI1_CS*%
X57425000Y-127350000D03*
%TO.P,J3,6,Pin_6*%
%TO.N,LCD_~{RESET}*%
X57425000Y-126850000D03*
%TO.P,J3,7,Pin_7*%
%TO.N,LCD_D{slash}C*%
X57425000Y-126350000D03*
%TO.P,J3,8,Pin_8*%
%TO.N,+3V3*%
X57425000Y-125850000D03*
%TO.P,J3,9,Pin_9*%
%TO.N,LCD_BL*%
X57425000Y-125350000D03*
%TO.P,J3,10,Pin_10*%
%TO.N,GND*%
X57425000Y-124850000D03*
D26*
%TO.P,J3,MP,Pin_10*%
X59125000Y-123180000D03*
X59125000Y-131020000D03*
%TD*%
D20*
%TO.P,J1,1,Pin_1*%
%TO.N,GND*%
X101300000Y-133475000D03*
D21*
%TO.P,J1,2,Pin_2*%
%TO.N,USB_ID*%
X101300000Y-130935000D03*
%TD*%
D17*
%TO.P,C12,1*%
%TO.N,Net-(C11-Pad2)*%
X95530000Y-130432500D03*
%TO.P,C12,2*%
%TO.N,GND*%
X96665000Y-130432500D03*
%TD*%
D10*
%TO.P,C30,1*%
%TO.N,+3V0*%
X78300000Y-136167500D03*
%TO.P,C30,2*%
%TO.N,GNDA*%
X78300000Y-135032500D03*
%TD*%
D18*
%TO.P,R4,1*%
%TO.N,GND*%
X96695000Y-131532500D03*
%TO.P,R4,2*%
%TO.N,Net-(C11-Pad2)*%
X95500000Y-131532500D03*
%TD*%
D24*
%TO.P,R20,1*%
%TO.N,Net-(R20-Pad1)*%
X77800000Y-152902500D03*
%TO.P,R20,2*%
%TO.N,GND*%
X77800000Y-154097500D03*
%TD*%
D27*
%TO.P,L2,1,1*%
%TO.N,Net-(L2-Pad1)*%
X91900000Y-138200000D03*
%TO.P,L2,2,2*%
%TO.N,VDD_SYS*%
X93300000Y-138200000D03*
%TD*%
D28*
%TO.P,U5,1,GND*%
%TO.N,GND*%
X100970000Y-151950000D03*
%TO.P,U5,2,TXD*%
%TO.N,UART0_TX*%
X100970000Y-150680000D03*
%TO.P,U5,3,RXD*%
%TO.N,UART0_RX*%
X100970000Y-149410000D03*
%TO.P,U5,4,V3*%
%TO.N,Net-(C32-Pad1)*%
X100970000Y-148130000D03*
%TO.P,U5,5,D+*%
%TO.N,D+*%
X100970000Y-146870000D03*
%TO.P,U5,6,D-*%
%TO.N,D-*%
X100970000Y-145600000D03*
%TO.P,U5,7,NC.*%
%TO.N,unconnected-(U5-Pad7)*%
X100970000Y-144330000D03*
%TO.P,U5,8,NC.*%
%TO.N,unconnected-(U5-Pad8)*%
X100970000Y-143060000D03*
%TO.P,U5,9,CTS#*%
%TO.N,unconnected-(U5-Pad9)*%
X95230000Y-143060000D03*
%TO.P,U5,10,DSR#*%
%TO.N,unconnected-(U5-Pad10)*%
X95230000Y-144330000D03*
%TO.P,U5,11,RI#*%
%TO.N,unconnected-(U5-Pad11)*%
X95230000Y-145600000D03*
%TO.P,U5,12,DCD#*%
%TO.N,unconnected-(U5-Pad12)*%
X95230000Y-146870000D03*
%TO.P,U5,13,DTR#*%
%TO.N,unconnected-(U5-Pad13)*%
X95230000Y-148130000D03*
%TO.P,U5,14,RTS#*%
%TO.N,unconnected-(U5-Pad14)*%
X95230000Y-149410000D03*
%TO.P,U5,15,R232*%
%TO.N,unconnected-(U5-Pad15)*%
X95230000Y-150680000D03*
%TO.P,U5,16,VCC*%
%TO.N,+5V*%
X95230000Y-151950000D03*
%TD*%
D11*
%TO.P,R16,1*%
%TO.N,SDC0_D2*%
X117805000Y-140400000D03*
%TO.P,R16,2*%
%TO.N,+3V3*%
X119000000Y-140400000D03*
%TD*%
D19*
%TO.P,C23,1*%
%TO.N,GND*%
X83100000Y-136232500D03*
%TO.P,C23,2*%
%TO.N,+3V3*%
X83100000Y-137367500D03*
%TD*%
D17*
%TO.P,C14,1*%
%TO.N,+3V3*%
X100132500Y-116200000D03*
%TO.P,C14,2*%
%TO.N,GND*%
X101267500Y-116200000D03*
%TD*%
%TO.P,C15,1*%
%TO.N,+3V3*%
X100132500Y-115100000D03*
%TO.P,C15,2*%
%TO.N,GND*%
X101267500Y-115100000D03*
%TD*%
D13*
%TO.P,TP4,1,1*%
%TO.N,+2V5*%
X88200000Y-131000000D03*
%TD*%
D10*
%TO.P,C5,1*%
%TO.N,+3V3*%
X87600000Y-125367500D03*
%TO.P,C5,2*%
%TO.N,GND*%
X87600000Y-124232500D03*
%TD*%
D18*
%TO.P,R30,1*%
%TO.N,Net-(C35-Pad1)*%
X118597500Y-112200000D03*
%TO.P,R30,2*%
%TO.N,+3V0*%
X117402500Y-112200000D03*
%TD*%
D29*
%TO.P,Card1,*%
%TO.N,*%
X134100000Y-150300000D03*
X134100000Y-142300000D03*
D30*
%TO.P,Card1,1,DAT2*%
%TO.N,SDC0_D2*%
X123250000Y-143100000D03*
%TO.P,Card1,2,CD/DAT3*%
%TO.N,SDC0_D3*%
X123250000Y-144200000D03*
%TO.P,Card1,3,CMD*%
%TO.N,SDC0_CMD*%
X123250000Y-145300000D03*
%TO.P,Card1,4,VDD*%
%TO.N,+3V3*%
X123250000Y-146400000D03*
%TO.P,Card1,5,CLK*%
%TO.N,SDC0_CLK*%
X123250000Y-147500000D03*
%TO.P,Card1,6,VSS*%
%TO.N,GND*%
X123250000Y-148600000D03*
%TO.P,Card1,7,DAT0*%
%TO.N,SDC0_D0*%
X123250000Y-149700000D03*
%TO.P,Card1,8,DAT1*%
%TO.N,SDC0_D1*%
X123250000Y-150800000D03*
%TO.P,Card1,9,CD*%
%TO.N,GND*%
X123250000Y-151900000D03*
D31*
%TO.P,Card1,10,G3*%
X124100000Y-153550000D03*
D32*
%TO.P,Card1,11,G4*%
X133750000Y-153150000D03*
%TO.P,Card1,12,G1*%
X133750000Y-137550000D03*
D33*
%TO.P,Card1,13,G2*%
X124100000Y-138400000D03*
%TD*%
D11*
%TO.P,R27,1*%
%TO.N,+3V3*%
X69902500Y-118200000D03*
%TO.P,R27,2*%
%TO.N,SPI1_CLK*%
X71097500Y-118200000D03*
%TD*%
D10*
%TO.P,C31,1*%
%TO.N,+3V0*%
X77100000Y-136167500D03*
%TO.P,C31,2*%
%TO.N,GNDA*%
X77100000Y-135032500D03*
%TD*%
D15*
%TO.P,D1,1,K*%
%TO.N,LED_USER*%
X106427500Y-153300000D03*
%TO.P,D1,2,A*%
%TO.N,Net-(D1-Pad2)*%
X107572500Y-153300000D03*
%TD*%
D11*
%TO.P,R26,1*%
%TO.N,+3V3*%
X69900000Y-115300000D03*
%TO.P,R26,2*%
%TO.N,SPI1_MISO*%
X71095000Y-115300000D03*
%TD*%
D19*
%TO.P,C19,1*%
%TO.N,+3V3*%
X104200000Y-124632500D03*
%TO.P,C19,2*%
%TO.N,GND*%
X104200000Y-125767500D03*
%TD*%
D34*
%TO.P,U1,1,HPL*%
%TO.N,unconnected-(U1-Pad1)*%
X90000000Y-117800000D03*
%TO.P,U1,2,HIPCOMFB*%
%TO.N,unconnected-(U1-Pad2)*%
X90000000Y-118200000D03*
%TO.P,U1,3,HPCOM*%
%TO.N,unconnected-(U1-Pad3)*%
X90000000Y-118600000D03*
%TO.P,U1,4,HPVCC*%
%TO.N,Net-(R1-Pad2)*%
X90000000Y-119000000D03*
%TO.P,U1,5,VCC-IO*%
%TO.N,+3V3*%
X90000000Y-119400000D03*
%TO.P,U1,6,PD0*%
%TO.N,PD0*%
X90000000Y-119800000D03*
%TO.P,U1,7,PD1*%
%TO.N,PD1*%
X90000000Y-120200000D03*
%TO.P,U1,8,PD2*%
%TO.N,unconnected-(U1-Pad8)*%
X90000000Y-120600000D03*
%TO.P,U1,9,PD3*%
%TO.N,unconnected-(U1-Pad9)*%
X90000000Y-121000000D03*
%TO.P,U1,10,PD4*%
%TO.N,unconnected-(U1-Pad10)*%
X90000000Y-121400000D03*
%TO.P,U1,11,PD5*%
%TO.N,SCL_1*%
X90000000Y-121800000D03*
%TO.P,U1,12,PD6*%
%TO.N,SDA_1*%
X90000000Y-122200000D03*
%TO.P,U1,13,PD7*%
%TO.N,unconnected-(U1-Pad13)*%
X90000000Y-122600000D03*
%TO.P,U1,14,PD8*%
%TO.N,unconnected-(U1-Pad14)*%
X90000000Y-123000000D03*
%TO.P,U1,15,PD9*%
%TO.N,unconnected-(U1-Pad15)*%
X90000000Y-123400000D03*
%TO.P,U1,16,PD10*%
%TO.N,unconnected-(U1-Pad16)*%
X90000000Y-123800000D03*
%TO.P,U1,17,PD11*%
%TO.N,unconnected-(U1-Pad17)*%
X90000000Y-124200000D03*
%TO.P,U1,18,PD12*%
%TO.N,unconnected-(U1-Pad18)*%
X90000000Y-124600000D03*
%TO.P,U1,19,PD13*%
%TO.N,unconnected-(U1-Pad19)*%
X90000000Y-125000000D03*
%TO.P,U1,20,VCC-IO*%
%TO.N,+3V3*%
X90000000Y-125400000D03*
%TO.P,U1,21,PD14*%
%TO.N,unconnected-(U1-Pad21)*%
X90000000Y-125800000D03*
%TO.P,U1,22,VDD-CORE*%
%TO.N,VDD_SYS*%
X90000000Y-126200000D03*
D35*
%TO.P,U1,23,PD15*%
%TO.N,unconnected-(U1-Pad23)*%
X90800000Y-127000000D03*
%TO.P,U1,24,PD16*%
%TO.N,unconnected-(U1-Pad24)*%
X91200000Y-127000000D03*
%TO.P,U1,25,PD17*%
%TO.N,unconnected-(U1-Pad25)*%
X91600000Y-127000000D03*
%TO.P,U1,26,PD18*%
%TO.N,unconnected-(U1-Pad26)*%
X92000000Y-127000000D03*
%TO.P,U1,27,PD19*%
%TO.N,unconnected-(U1-Pad27)*%
X92400000Y-127000000D03*
%TO.P,U1,28,PD20*%
%TO.N,unconnected-(U1-Pad28)*%
X92800000Y-127000000D03*
%TO.P,U1,29,PD21*%
%TO.N,unconnected-(U1-Pad29)*%
X93200000Y-127000000D03*
%TO.P,U1,30,VCC-DRAM*%
%TO.N,+2V5*%
X93600000Y-127000000D03*
%TO.P,U1,31,VCC-DRAM*%
X94000000Y-127000000D03*
%TO.P,U1,32,VCC-DRAM*%
X94400000Y-127000000D03*
%TO.P,U1,33,SVREF*%
%TO.N,Net-(C11-Pad2)*%
X94800000Y-127000000D03*
%TO.P,U1,34,VCC-DRAM*%
%TO.N,+2V5*%
X95200000Y-127000000D03*
%TO.P,U1,35,VDD-CORF*%
%TO.N,VDD_SYS*%
X95600000Y-127000000D03*
%TO.P,U1,36,VCC-DRAM*%
%TO.N,+2V5*%
X96000000Y-127000000D03*
%TO.P,U1,37,PE12*%
%TO.N,unconnected-(U1-Pad37)*%
X96400000Y-127000000D03*
%TO.P,U1,38,PE11*%
%TO.N,unconnected-(U1-Pad38)*%
X96800000Y-127000000D03*
%TO.P,U1,39,PE10*%
%TO.N,LED_USER*%
X97200000Y-127000000D03*
%TO.P,U1,40,PE9*%
%TO.N,LCD_~{RESET}*%
X97600000Y-127000000D03*
%TO.P,U1,41,PE8*%
%TO.N,unconnected-(U1-Pad41)*%
X98000000Y-127000000D03*
%TO.P,U1,42,PE7*%
%TO.N,unconnected-(U1-Pad42)*%
X98400000Y-127000000D03*
%TO.P,U1,43,PE6*%
%TO.N,LCD_BL*%
X98800000Y-127000000D03*
%TO.P,U1,44,PE5*%
%TO.N,USB_ID*%
X99200000Y-127000000D03*
D34*
%TO.P,U1,45,PE4*%
%TO.N,LCD_D{slash}C*%
X100000000Y-126200000D03*
%TO.P,U1,46,PE3*%
%TO.N,LED_SYS*%
X100000000Y-125800000D03*
%TO.P,U1,47,PE2*%
%TO.N,unconnected-(U1-Pad47)*%
X100000000Y-125400000D03*
%TO.P,U1,48,PE1*%
%TO.N,UART0_TX*%
X100000000Y-125000000D03*
%TO.P,U1,49,PE0*%
%TO.N,UART0_RX*%
X100000000Y-124600000D03*
%TO.P,U1,50,VCC-IO*%
%TO.N,+3V3*%
X100000000Y-124200000D03*
%TO.P,U1,51,HOSCI*%
%TO.N,HOSCI*%
X100000000Y-123800000D03*
%TO.P,U1,52,HOSCO*%
%TO.N,HOSCO*%
X100000000Y-123400000D03*
%TO.P,U1,53,PF5*%
%TO.N,SDC0_D2*%
X100000000Y-123000000D03*
%TO.P,U1,54,PF4*%
%TO.N,SDC0_D3*%
X100000000Y-122600000D03*
%TO.P,U1,55,PF3*%
%TO.N,SDC0_CMD*%
X100000000Y-122200000D03*
%TO.P,U1,56,PF2*%
%TO.N,SDC0_CLK*%
X100000000Y-121800000D03*
%TO.P,U1,57,PF1*%
%TO.N,SDC0_D0*%
X100000000Y-121400000D03*
%TO.P,U1,58,PF0*%
%TO.N,SDC0_D1*%
X100000000Y-121000000D03*
%TO.P,U1,59,PC0*%
%TO.N,SPI1_CLK*%
X100000000Y-120600000D03*
%TO.P,U1,60,PC1*%
%TO.N,SPI1_CS*%
X100000000Y-120200000D03*
%TO.P,U1,61,PC2*%
%TO.N,SPI1_MISO*%
X100000000Y-119800000D03*
%TO.P,U1,62,PC3*%
%TO.N,SPI1_MOSI*%
X100000000Y-119400000D03*
%TO.P,U1,63,IPY2*%
%TO.N,unconnected-(U1-Pad63)*%
X100000000Y-119000000D03*
%TO.P,U1,64,TPY1*%
%TO.N,unconnected-(U1-Pad64)*%
X100000000Y-118600000D03*
%TO.P,U1,65,TPX2*%
%TO.N,unconnected-(U1-Pad65)*%
X100000000Y-118200000D03*
%TO.P,U1,66,TPX1*%
%TO.N,unconnected-(U1-Pad66)*%
X100000000Y-117800000D03*
D35*
%TO.P,U1,67,UVCC*%
%TO.N,+3V3*%
X99200000Y-117000000D03*
%TO.P,U1,68,USB-DM*%
%TO.N,USB_DN*%
X98800000Y-117000000D03*
%TO.P,U1,69,USB-DP*%
%TO.N,USB_DP*%
X98400000Y-117000000D03*
%TO.P,U1,70,RESET*%
%TO.N,~{RESET}*%
X98000000Y-117000000D03*
%TO.P,U1,71,VDD-CORE*%
%TO.N,VDD_SYS*%
X97600000Y-117000000D03*
%TO.P,U1,72,TVOUT*%
%TO.N,unconnected-(U1-Pad72)*%
X97200000Y-117000000D03*
%TO.P,U1,73,TV_VCC*%
%TO.N,TV_VCC*%
X96800000Y-117000000D03*
%TO.P,U1,74,TVGND*%
%TO.N,GNDA*%
X96400000Y-117000000D03*
%TO.P,U1,75,TV_VRN*%
%TO.N,unconnected-(U1-Pad75)*%
X96000000Y-117000000D03*
%TO.P,U1,76,TV_VRP*%
%TO.N,unconnected-(U1-Pad76)*%
X95600000Y-117000000D03*
%TO.P,U1,77,TVIN1*%
%TO.N,unconnected-(U1-Pad77)*%
X95200000Y-117000000D03*
%TO.P,U1,78,TVIN0*%
%TO.N,unconnected-(U1-Pad78)*%
X94800000Y-117000000D03*
%TO.P,U1,79,LRADC0*%
%TO.N,unconnected-(U1-Pad79)*%
X94400000Y-117000000D03*
%TO.P,U1,80,AVCC*%
%TO.N,+3V0*%
X94000000Y-117000000D03*
%TO.P,U1,81,VRA1*%
%TO.N,Net-(C10-Pad2)*%
X93600000Y-117000000D03*
%TO.P,U1,82,AGND*%
%TO.N,GNDA*%
X93200000Y-117000000D03*
%TO.P,U1,83,VRA2*%
%TO.N,Net-(C6-Pad2)*%
X92800000Y-117000000D03*
%TO.P,U1,84,FMINL*%
%TO.N,unconnected-(U1-Pad84)*%
X92400000Y-117000000D03*
%TO.P,U1,85,FMINR*%
%TO.N,unconnected-(U1-Pad85)*%
X92000000Y-117000000D03*
%TO.P,U1,86,LINL*%
%TO.N,unconnected-(U1-Pad86)*%
X91600000Y-117000000D03*
%TO.P,U1,87,MICIN*%
%TO.N,MIC_IN*%
X91200000Y-117000000D03*
%TO.P,U1,88,HPR*%
%TO.N,unconnected-(U1-Pad88)*%
X90800000Y-117000000D03*
D36*
%TO.P,U1,89,GND*%
%TO.N,GND*%
X95000000Y-122000000D03*
%TD*%
D16*
%TO.P,C20,1*%
%TO.N,+5V*%
X88267500Y-140000000D03*
%TO.P,C20,2*%
%TO.N,GND*%
X87132500Y-140000000D03*
%TD*%
D11*
%TO.P,R25,1*%
%TO.N,+3V3*%
X69902500Y-116700000D03*
%TO.P,R25,2*%
%TO.N,SPI1_MOSI*%
X71097500Y-116700000D03*
%TD*%
D10*
%TO.P,C32,1*%
%TO.N,Net-(C32-Pad1)*%
X102952500Y-148130000D03*
%TO.P,C32,2*%
%TO.N,GND*%
X102952500Y-146995000D03*
%TD*%
D17*
%TO.P,C17,1*%
%TO.N,HOSCO*%
X107432500Y-121100000D03*
%TO.P,C17,2*%
%TO.N,GND*%
X108567500Y-121100000D03*
%TD*%
D18*
%TO.P,R8,1*%
%TO.N,FB2*%
X85497500Y-137300000D03*
%TO.P,R8,2*%
%TO.N,+3V3*%
X84302500Y-137300000D03*
%TD*%
D17*
%TO.P,C28,1*%
%TO.N,GND*%
X85332500Y-131000000D03*
%TO.P,C28,2*%
%TO.N,+2V5*%
X86467500Y-131000000D03*
%TD*%
D13*
%TO.P,TP2,1,1*%
%TO.N,+3V0*%
X75300000Y-136200000D03*
%TD*%
D37*
%TO.P,L3,1,1*%
%TO.N,LX3*%
X87900000Y-134400000D03*
%TO.P,L3,2,2*%
%TO.N,+2V5*%
X87900000Y-133000000D03*
%TD*%
D10*
%TO.P,C4,1*%
%TO.N,+3V3*%
X88600000Y-119367500D03*
%TO.P,C4,2*%
%TO.N,GND*%
X88600000Y-118232500D03*
%TD*%
D38*
%TO.P,USB1,*%
%TO.N,*%
X128312500Y-111400000D03*
X128312500Y-106400000D03*
D39*
%TO.P,USB1,1,VCC*%
%TO.N,+5V*%
X123562500Y-112400000D03*
%TO.P,USB1,2,D-*%
%TO.N,USB_DN*%
X123562500Y-109900000D03*
%TO.P,USB1,3,D+*%
%TO.N,USB_DP*%
X123562500Y-107900000D03*
%TO.P,USB1,4,GND*%
%TO.N,GND*%
X123562500Y-105390000D03*
D40*
%TO.P,USB1,5,GND*%
X126862500Y-101600000D03*
%TO.P,USB1,6,GND*%
X126822500Y-116200000D03*
%TD*%
D24*
%TO.P,R23,1*%
%TO.N,Net-(D2-Pad2)*%
X109300000Y-149502500D03*
%TO.P,R23,2*%
%TO.N,+3V3*%
X109300000Y-150697500D03*
%TD*%
%TO.P,R19,1*%
%TO.N,GND*%
X77800000Y-150302500D03*
%TO.P,R19,2*%
%TO.N,Net-(R19-Pad2)*%
X77800000Y-151497500D03*
%TD*%
D18*
%TO.P,R6,1*%
%TO.N,TV_VCC*%
X94997500Y-114500000D03*
%TO.P,R6,2*%
%TO.N,+3V3*%
X93802500Y-114500000D03*
%TD*%
D41*
%TO.P,U4,*%
%TO.N,*%
X86490000Y-150752500D03*
X80700000Y-150752500D03*
D42*
%TO.P,U4,1,SHELL*%
%TO.N,unconnected-(U4-Pad1)*%
X79280000Y-150252500D03*
%TO.P,U4,2,SHELL*%
%TO.N,unconnected-(U4-Pad2)*%
X87920000Y-150252500D03*
D43*
%TO.P,U4,3,SHELL*%
%TO.N,unconnected-(U4-Pad3)*%
X87920000Y-154432500D03*
%TO.P,U4,4,SHELL*%
%TO.N,unconnected-(U4-Pad4)*%
X79280000Y-154432500D03*
D44*
%TO.P,U4,A1B12,GND*%
%TO.N,GND*%
X80400000Y-149632500D03*
%TO.P,U4,A4B9,VBUS*%
%TO.N,VBUS*%
X81200000Y-149632500D03*
D45*
%TO.P,U4,A5,CC1*%
%TO.N,Net-(R19-Pad2)*%
X82350000Y-149632500D03*
%TO.P,U4,A6,DP1*%
%TO.N,D+*%
X83350000Y-149632500D03*
%TO.P,U4,A7,DN1*%
%TO.N,D-*%
X83850000Y-149632500D03*
%TO.P,U4,A8,SBU1*%
%TO.N,unconnected-(U4-PadA8)*%
X84850000Y-149632500D03*
D44*
%TO.P,U4,B1A12,GND*%
%TO.N,GND*%
X86800000Y-149632500D03*
%TO.P,U4,B4A9,VBUS*%
%TO.N,VBUS*%
X86000000Y-149632500D03*
D45*
%TO.P,U4,B5,CC2*%
%TO.N,Net-(R20-Pad1)*%
X85350000Y-149632500D03*
%TO.P,U4,B6,DP2*%
%TO.N,USB_DP*%
X84350000Y-149632500D03*
%TO.P,U4,B7,DN2*%
%TO.N,USB_DN*%
X82850000Y-149632500D03*
%TO.P,U4,B8,SBU2*%
%TO.N,unconnected-(U4-PadB8)*%
X81850000Y-149632500D03*
%TD*%
D10*
%TO.P,C1,1*%
%TO.N,+3V3*%
X87500000Y-119367500D03*
%TO.P,C1,2*%
%TO.N,GND*%
X87500000Y-118232500D03*
%TD*%
D17*
%TO.P,C6,1*%
%TO.N,GNDA*%
X91532500Y-115600000D03*
%TO.P,C6,2*%
%TO.N,Net-(C6-Pad2)*%
X92667500Y-115600000D03*
%TD*%
D27*
%TO.P,L1,1,1*%
%TO.N,LX2*%
X85700000Y-138700000D03*
%TO.P,L1,2,2*%
%TO.N,+3V3*%
X84300000Y-138700000D03*
%TD*%
D18*
%TO.P,R13,1*%
%TO.N,GND*%
X82797500Y-134800000D03*
%TO.P,R13,2*%
%TO.N,GNDA*%
X81602500Y-134800000D03*
%TD*%
D20*
%TO.P,J2,1,Pin_1*%
%TO.N,+3V3*%
X60000000Y-104400000D03*
D21*
%TO.P,J2,2,Pin_2*%
%TO.N,SDA_1*%
X62540000Y-104400000D03*
%TO.P,J2,3,Pin_3*%
%TO.N,SCL_1*%
X65080000Y-104400000D03*
%TO.P,J2,4,Pin_4*%
%TO.N,PD0*%
X67620000Y-104400000D03*
%TO.P,J2,5,Pin_5*%
%TO.N,GND*%
X70160000Y-104400000D03*
%TO.P,J2,6,Pin_6*%
%TO.N,PD1*%
X72700000Y-104400000D03*
%TO.P,J2,7,Pin_7*%
%TO.N,unconnected-(J2-Pad7)*%
X75240000Y-104400000D03*
%TO.P,J2,8,Pin_8*%
%TO.N,unconnected-(J2-Pad8)*%
X77780000Y-104400000D03*
%TO.P,J2,9,Pin_9*%
%TO.N,+3V3*%
X80320000Y-104400000D03*
%TO.P,J2,10,Pin_10*%
%TO.N,unconnected-(J2-Pad10)*%
X82860000Y-104400000D03*
%TO.P,J2,11,Pin_11*%
%TO.N,unconnected-(J2-Pad11)*%
X85400000Y-104400000D03*
%TO.P,J2,12,Pin_12*%
%TO.N,unconnected-(J2-Pad12)*%
X87940000Y-104400000D03*
%TO.P,J2,13,Pin_13*%
%TO.N,GND*%
X90480000Y-104400000D03*
%TO.P,J2,14,Pin_14*%
%TO.N,unconnected-(J2-Pad14)*%
X93020000Y-104400000D03*
%TO.P,J2,15,Pin_15*%
%TO.N,unconnected-(J2-Pad15)*%
X95560000Y-104400000D03*
%TO.P,J2,16,Pin_16*%
%TO.N,unconnected-(J2-Pad16)*%
X98100000Y-104400000D03*
%TO.P,J2,17,Pin_17*%
%TO.N,unconnected-(J2-Pad17)*%
X100640000Y-104400000D03*
%TO.P,J2,18,Pin_18*%
%TO.N,unconnected-(J2-Pad18)*%
X103180000Y-104400000D03*
%TO.P,J2,19,Pin_19*%
%TO.N,unconnected-(J2-Pad19)*%
X105720000Y-104400000D03*
%TO.P,J2,20,Pin_20*%
%TO.N,GND*%
X108260000Y-104400000D03*
%TD*%
D17*
%TO.P,C21,1*%
%TO.N,+5V*%
X89632500Y-134600000D03*
%TO.P,C21,2*%
%TO.N,GND*%
X90767500Y-134600000D03*
%TD*%
D11*
%TO.P,R14,1*%
%TO.N,SDC0_D0*%
X118402500Y-134700000D03*
%TO.P,R14,2*%
%TO.N,+3V3*%
X119597500Y-134700000D03*
%TD*%
D18*
%TO.P,R3,1*%
%TO.N,Net-(C11-Pad2)*%
X94392500Y-131532500D03*
%TO.P,R3,2*%
%TO.N,+2V5*%
X93197500Y-131532500D03*
%TD*%
D17*
%TO.P,C7,1*%
%TO.N,GNDA*%
X91532500Y-114500000D03*
%TO.P,C7,2*%
%TO.N,Net-(C6-Pad2)*%
X92667500Y-114500000D03*
%TD*%
D10*
%TO.P,C2,1*%
%TO.N,+3V3*%
X88700000Y-125367500D03*
%TO.P,C2,2*%
%TO.N,GND*%
X88700000Y-124232500D03*
%TD*%
D11*
%TO.P,R10,1*%
%TO.N,Net-(R10-Pad1)*%
X92102500Y-136900000D03*
%TO.P,R10,2*%
%TO.N,VDD_SYS*%
X93297500Y-136900000D03*
%TD*%
D46*
%TO.P,MIC1,1,OUT*%
%TO.N,Net-(C35-Pad1)*%
X118600000Y-115900000D03*
D47*
%TO.P,MIC1,2,GND*%
%TO.N,GNDA*%
X117200000Y-115900000D03*
%TD*%
D18*
%TO.P,R5,1*%
%TO.N,~{RESET}*%
X112297500Y-114200000D03*
%TO.P,R5,2*%
%TO.N,+3V3*%
X111102500Y-114200000D03*
%TD*%
D34*
%TO.P,U2,1,GND3*%
%TO.N,GND*%
X87300000Y-136500000D03*
%TO.P,U2,2,FB3*%
%TO.N,FB3*%
X87300000Y-136900000D03*
%TO.P,U2,3,FB2*%
%TO.N,FB2*%
X87300000Y-137300000D03*
%TO.P,U2,4,GND2*%
%TO.N,GND*%
X87300000Y-137700000D03*
%TO.P,U2,5,GND2*%
X87300000Y-138100000D03*
D35*
%TO.P,U2,6,LX2*%
%TO.N,LX2*%
X88000000Y-138800000D03*
%TO.P,U2,7,VIN2*%
%TO.N,+5V*%
X88400000Y-138800000D03*
%TO.P,U2,8,EN2*%
X88800000Y-138800000D03*
%TO.P,U2,9,EN1*%
X89200000Y-138800000D03*
%TO.P,U2,10,VIN1*%
X89600000Y-138800000D03*
D34*
%TO.P,U2,11,LX1*%
%TO.N,Net-(L2-Pad1)*%
X90300000Y-138100000D03*
%TO.P,U2,12,GND1*%
%TO.N,GND*%
X90300000Y-137700000D03*
%TO.P,U2,13,GND1*%
X90300000Y-137300000D03*
%TO.P,U2,14,FB1*%
%TO.N,Net-(R10-Pad1)*%
X90300000Y-136900000D03*
%TO.P,U2,15,AGND*%
%TO.N,GND*%
X90300000Y-136500000D03*
D35*
%TO.P,U2,16,VCC*%
%TO.N,+5V*%
X89600000Y-135800000D03*
%TO.P,U2,17,AGND*%
%TO.N,GND*%
X89200000Y-135800000D03*
%TO.P,U2,18,EN3*%
%TO.N,+5V*%
X88800000Y-135800000D03*
%TO.P,U2,19,VIN3*%
X88400000Y-135800000D03*
%TO.P,U2,20,LX3*%
%TO.N,LX3*%
X88000000Y-135800000D03*
D48*
%TO.P,U2,21,PAD*%
%TO.N,GND*%
X88800000Y-137300000D03*
%TD*%
D17*
%TO.P,C9,1*%
%TO.N,GND*%
X90830000Y-130432500D03*
%TO.P,C9,2*%
%TO.N,+2V5*%
X91965000Y-130432500D03*
%TD*%
D12*
%TO.P,R22,1*%
%TO.N,Net-(D1-Pad2)*%
X109300000Y-153297500D03*
%TO.P,R22,2*%
%TO.N,+3V3*%
X109300000Y-152102500D03*
%TD*%
D11*
%TO.P,R7,1*%
%TO.N,GND*%
X84302500Y-136200000D03*
%TO.P,R7,2*%
%TO.N,FB2*%
X85497500Y-136200000D03*
%TD*%
%TO.P,R28,1*%
%TO.N,+3V3*%
X69900000Y-113900000D03*
%TO.P,R28,2*%
%TO.N,SPI1_CS*%
X71095000Y-113900000D03*
%TD*%
D13*
%TO.P,TP1,1,1*%
%TO.N,GND*%
X96400000Y-135700000D03*
%TD*%
D49*
%TO.P,U3,1,VSS*%
%TO.N,GNDA*%
X81550000Y-136140000D03*
%TO.P,U3,2,VOUT*%
%TO.N,+3V0*%
X79650000Y-136130000D03*
%TO.P,U3,3,VIN*%
%TO.N,+3V3*%
X80600000Y-138670000D03*
%TD*%
D50*
%TO.N,+3V3*%
X68900000Y-116700000D03*
X106000000Y-114200000D03*
D51*
X83400000Y-115600000D03*
D50*
X120600000Y-133200500D03*
X120600000Y-134700000D03*
X99000000Y-124200000D03*
X120002500Y-140400000D03*
X68900000Y-118200000D03*
X68900000Y-113900000D03*
D51*
X87400000Y-115500000D03*
D50*
X120600000Y-131600000D03*
X98000000Y-112100000D03*
X120000000Y-138500000D03*
X98900000Y-118200000D03*
D51*
X71300000Y-110300000D03*
D50*
X116800000Y-150300000D03*
X120600000Y-136400000D03*
X87400000Y-111100000D03*
X121900000Y-146400000D03*
X68900000Y-115300000D03*
X68900000Y-119600000D03*
D51*
X76500000Y-115500000D03*
D50*
X100100000Y-114200000D03*
%TO.N,GND*%
X93300000Y-134900000D03*
X89900000Y-131500000D03*
X76900000Y-154100000D03*
X86200000Y-140000000D03*
D51*
X87000000Y-148200000D03*
D50*
X96697500Y-132398750D03*
X113900000Y-112800000D03*
X93700000Y-139300000D03*
X84400000Y-133300000D03*
X83700000Y-134800000D03*
X102900000Y-146100000D03*
D51*
X126800000Y-118200000D03*
D50*
X93500000Y-149800000D03*
X91100000Y-118600000D03*
X91500000Y-140000000D03*
X91600000Y-134600000D03*
X98900000Y-122500000D03*
X86400000Y-126800000D03*
X103700000Y-126700000D03*
X121900000Y-151900000D03*
X91000000Y-122200000D03*
X77800000Y-149300000D03*
X78500000Y-139900000D03*
X102500000Y-151900000D03*
X102200000Y-115300000D03*
X83000000Y-140700000D03*
X84400000Y-135300000D03*
X121900000Y-148700000D03*
D51*
X59100000Y-121300000D03*
D50*
X91000000Y-124200000D03*
X108600000Y-120200000D03*
X97300000Y-113400000D03*
X94400000Y-134800000D03*
X88400000Y-123200000D03*
X90400000Y-135700000D03*
D51*
X133800000Y-139200000D03*
D50*
X86400000Y-118200000D03*
D51*
X80000000Y-148200000D03*
X121500000Y-105500000D03*
X59100000Y-133000000D03*
X132700000Y-151500000D03*
X126800000Y-103700000D03*
D50*
X107100000Y-126700000D03*
X92200000Y-149800000D03*
D51*
X122600000Y-137500000D03*
D50*
%TO.N,VDD_SYS*%
X92500000Y-127999502D03*
X95600000Y-128000000D03*
%TO.N,GNDA*%
X90500000Y-110349520D03*
X90500000Y-113400000D03*
X96400000Y-118000000D03*
X92900000Y-118000000D03*
D51*
%TO.N,+5V*%
X89700000Y-141800000D03*
X134300000Y-112400000D03*
X88300000Y-146500000D03*
X89200000Y-133500000D03*
X125900000Y-112600000D03*
X52700000Y-138100000D03*
X78100000Y-146600000D03*
D50*
%TO.N,+3V0*%
X94000000Y-109799500D03*
X117400000Y-111100000D03*
X94000000Y-118000000D03*
%TO.N,MIC_IN*%
X116300000Y-113300000D03*
X88900000Y-113049020D03*
X88900000Y-107400000D03*
X116300000Y-107400000D03*
%TO.N,LED_USER*%
X96800000Y-128100000D03*
X100100000Y-153300000D03*
%TO.N,LED_SYS*%
X104200000Y-139800000D03*
X104200000Y-151700000D03*
%TO.N,USB_ID*%
X104800000Y-127300000D03*
%TO.N,SDA_1*%
X83300000Y-122900000D03*
X87300000Y-122900000D03*
X67300000Y-122200000D03*
%TO.N,SCL_1*%
X67400000Y-119300000D03*
X83467324Y-121862535D03*
X86999500Y-121946742D03*
%TO.N,PD0*%
X90921469Y-119804243D03*
%TO.N,PD1*%
X83100000Y-117800000D03*
X83100000Y-119900000D03*
X88802064Y-120333032D03*
%TO.N,SPI1_MOSI*%
X100900000Y-109700000D03*
X102800500Y-111600000D03*
%TO.N,SPI1_MISO*%
X101900000Y-109000000D03*
X103500000Y-110700000D03*
%TO.N,SPI1_CLK*%
X62600000Y-127800000D03*
X98974502Y-120600000D03*
X60600000Y-127800000D03*
X81900000Y-120600000D03*
%TO.N,SPI1_CS*%
X54100000Y-127300000D03*
X104600000Y-110000000D03*
X102900000Y-108300000D03*
X56100000Y-127300000D03*
%TO.N,LCD_~{RESET}*%
X82275500Y-128800000D03*
X63600000Y-126800000D03*
X97600000Y-128799500D03*
X60900500Y-126846740D03*
%TO.N,LCD_D{slash}C*%
X63800000Y-125700000D03*
X99010174Y-126007266D03*
X60800000Y-125700000D03*
X83400000Y-125900000D03*
%TO.N,LCD_BL*%
X59300000Y-125300000D03*
X98500500Y-129474348D03*
X81581187Y-129518982D03*
X61800000Y-129500000D03*
%TO.N,~{RESET}*%
X105900000Y-113000000D03*
X99500000Y-111700000D03*
%TO.N,Net-(R20-Pad1)*%
X83600000Y-152900000D03*
X85300000Y-151100000D03*
%TO.N,UART0_TX*%
X106900000Y-139900000D03*
X106900000Y-143100000D03*
%TO.N,UART0_RX*%
X105600000Y-143100000D03*
X101455728Y-127255728D03*
X101805728Y-125194272D03*
X105600000Y-139900000D03*
%TO.N,USB_DP*%
X90900000Y-144599503D03*
X84199503Y-145800000D03*
X118000000Y-128499503D03*
X112800000Y-128500000D03*
%TO.N,USB_DN*%
X112800000Y-127500497D03*
X118000000Y-127500000D03*
X90900000Y-143600000D03*
X83200000Y-145800000D03*
%TD*%
D52*
%TO.N,+3V3*%
X85700000Y-124300000D02*
X85700000Y-119600000D01*
X90000000Y-125400000D02*
X88732500Y-125400000D01*
D53*
X83000000Y-138632500D02*
X84232500Y-138632500D01*
D54*
X109302500Y-150697500D02*
X111300000Y-148700000D01*
D55*
X78900000Y-107300000D02*
X80320000Y-105880000D01*
D52*
X85967500Y-119367500D02*
X85900000Y-119300000D01*
D54*
X68900000Y-115300000D02*
X62600000Y-115300000D01*
X117700000Y-131600000D02*
X120600000Y-131600000D01*
X115200000Y-148700000D02*
X116800000Y-150300000D01*
X56000000Y-121900000D02*
X56000000Y-125500000D01*
X117000000Y-121300000D02*
X117000000Y-130900000D01*
D55*
X71300000Y-110300000D02*
X74300000Y-107300000D01*
X52900000Y-135800000D02*
X52900000Y-111700000D01*
D54*
X110200000Y-114300000D02*
X110200000Y-114200000D01*
X124199638Y-136400000D02*
X126249819Y-138450181D01*
X120600000Y-136400000D02*
X119597500Y-136400000D01*
X93324520Y-112324520D02*
X87900000Y-112324520D01*
X126249819Y-138450181D02*
X126249819Y-145750181D01*
D52*
X99200000Y-117900000D02*
X98900000Y-118200000D01*
D54*
X68900000Y-115300000D02*
X69900000Y-115300000D01*
D55*
X80320000Y-105880000D02*
X80320000Y-104400000D01*
X80600000Y-141700000D02*
X58800000Y-141700000D01*
D54*
X87900000Y-112324520D02*
X87400000Y-112824520D01*
X93802500Y-112802500D02*
X93324520Y-112324520D01*
D53*
X80600000Y-141700000D02*
X80600000Y-139932500D01*
D52*
X87500000Y-119367500D02*
X85967500Y-119367500D01*
D55*
X74300000Y-107300000D02*
X78900000Y-107300000D01*
D52*
X86767500Y-125367500D02*
X85700000Y-124300000D01*
D54*
X56350000Y-125850000D02*
X57425000Y-125850000D01*
D52*
X99000000Y-124200000D02*
X100000000Y-124200000D01*
D53*
X82962500Y-138670000D02*
X83000000Y-138632500D01*
D54*
X68900000Y-118200000D02*
X69902500Y-118200000D01*
X125600000Y-146400000D02*
X123250000Y-146400000D01*
D55*
X52900000Y-111700000D02*
X60000000Y-104600000D01*
D54*
X119598000Y-133200500D02*
X119597500Y-133200000D01*
D56*
X87502500Y-115602500D02*
X87400000Y-115500000D01*
D52*
X88732500Y-125400000D02*
X88700000Y-125367500D01*
D54*
X120600000Y-136400000D02*
X124199638Y-136400000D01*
X120002500Y-140400000D02*
X119000000Y-140400000D01*
X110200000Y-114200000D02*
X111102500Y-114200000D01*
X120000000Y-138500000D02*
X118997500Y-138500000D01*
D52*
X105270000Y-124632500D02*
X105300000Y-124602500D01*
X99200000Y-117000000D02*
X99200000Y-117900000D01*
D55*
X60000000Y-104600000D02*
X60000000Y-104400000D01*
D52*
X102667020Y-124199520D02*
X103100000Y-124632500D01*
X86100000Y-117000000D02*
X87502500Y-117000000D01*
D54*
X68900000Y-113900000D02*
X69900000Y-113900000D01*
D52*
X100967980Y-124199520D02*
X102667020Y-124199520D01*
D54*
X120600000Y-133200500D02*
X119598000Y-133200500D01*
X98000000Y-112100000D02*
X97000000Y-111100000D01*
X111300000Y-148700000D02*
X115200000Y-148700000D01*
D52*
X100132500Y-116200000D02*
X100132500Y-115100000D01*
X99200000Y-117000000D02*
X99200000Y-116500000D01*
D53*
X84235000Y-137367500D02*
X84302500Y-137300000D01*
X84232500Y-138632500D02*
X84300000Y-138700000D01*
D52*
X88632500Y-119400000D02*
X88600000Y-119367500D01*
X88700000Y-125367500D02*
X87600000Y-125367500D01*
X90000000Y-119400000D02*
X88632500Y-119400000D01*
D54*
X56000000Y-125500000D02*
X56350000Y-125850000D01*
D52*
X104200000Y-124632500D02*
X105270000Y-124632500D01*
D54*
X62600000Y-115300000D02*
X56000000Y-121900000D01*
X100100000Y-115067500D02*
X100132500Y-115100000D01*
D52*
X85700000Y-117400000D02*
X86100000Y-117000000D01*
X85700000Y-119600000D02*
X85900000Y-119400000D01*
D54*
X97000000Y-111100000D02*
X87400000Y-111100000D01*
D52*
X99500000Y-116200000D02*
X100132500Y-116200000D01*
D54*
X120600000Y-134700000D02*
X119597500Y-134700000D01*
X110100000Y-114400000D02*
X117000000Y-121300000D01*
D53*
X80567500Y-139900000D02*
X80567500Y-138702500D01*
X80600000Y-139932500D02*
X80567500Y-139900000D01*
D54*
X106000000Y-114200000D02*
X109900000Y-114200000D01*
D52*
X99200000Y-116500000D02*
X99500000Y-116200000D01*
D53*
X83100000Y-137367500D02*
X84235000Y-137367500D01*
D54*
X68900000Y-119600000D02*
X69902500Y-119600000D01*
D52*
X88600000Y-119367500D02*
X87500000Y-119367500D01*
D54*
X109900000Y-114200000D02*
X110100000Y-114400000D01*
D52*
X100967500Y-124200000D02*
X100967980Y-124199520D01*
D54*
X100100000Y-114200000D02*
X100100000Y-115067500D01*
D52*
X103100000Y-124632500D02*
X104200000Y-124632500D01*
D54*
X110100000Y-114400000D02*
X110200000Y-114300000D01*
X109300000Y-150697500D02*
X109302500Y-150697500D01*
X109300000Y-152102500D02*
X109300000Y-150697500D01*
D56*
X87502500Y-117000000D02*
X87502500Y-115602500D01*
D53*
X80600000Y-138670000D02*
X82962500Y-138670000D01*
D52*
X100000000Y-124200000D02*
X100967500Y-124200000D01*
D54*
X93802500Y-114500000D02*
X93802500Y-112802500D01*
D52*
X85900000Y-119300000D02*
X85700000Y-119100000D01*
D53*
X84300000Y-137302500D02*
X84302500Y-137300000D01*
D52*
X121900000Y-146400000D02*
X123250000Y-146400000D01*
D55*
X60000000Y-104400000D02*
X65900000Y-110300000D01*
D53*
X84300000Y-138700000D02*
X84300000Y-137302500D01*
D55*
X76500000Y-115500000D02*
X83300000Y-115500000D01*
D52*
X85900000Y-119400000D02*
X85900000Y-119300000D01*
X85700000Y-119600000D02*
X85700000Y-119100000D01*
D54*
X117000000Y-130900000D02*
X117700000Y-131600000D01*
D52*
X87600000Y-125367500D02*
X86767500Y-125367500D01*
D53*
X80567500Y-138702500D02*
X80600000Y-138670000D01*
D54*
X68900000Y-116700000D02*
X69902500Y-116700000D01*
X87400000Y-112824520D02*
X87400000Y-115500000D01*
D52*
X85700000Y-119100000D02*
X85700000Y-117400000D01*
D55*
X65900000Y-110300000D02*
X71300000Y-110300000D01*
X83300000Y-115500000D02*
X83400000Y-115600000D01*
X58800000Y-141700000D02*
X52900000Y-135800000D01*
D54*
X126249819Y-145750181D02*
X125600000Y-146400000D01*
X109900000Y-114200000D02*
X110200000Y-114200000D01*
D53*
%TO.N,GND*%
X113900000Y-112800000D02*
X113900000Y-111300000D01*
X108567500Y-121100000D02*
X108567500Y-120232500D01*
X123250000Y-151900000D02*
X123250000Y-152700000D01*
X93300000Y-135797500D02*
X93297500Y-135800000D01*
X86800000Y-149632500D02*
X86800000Y-148400000D01*
D52*
X90300000Y-137700000D02*
X89200000Y-137700000D01*
D54*
X75225000Y-102475000D02*
X75225000Y-101900000D01*
D53*
X85332500Y-131000000D02*
X85332500Y-132100000D01*
X88400000Y-123200000D02*
X88400000Y-124100000D01*
X102952500Y-146995000D02*
X102952500Y-146152500D01*
D52*
X87300000Y-138100000D02*
X88000000Y-138100000D01*
D53*
X133750000Y-137550000D02*
X133750000Y-139150000D01*
D55*
X59100000Y-131045000D02*
X59125000Y-131020000D01*
D54*
X74600000Y-103100000D02*
X75225000Y-102475000D01*
D53*
X103100000Y-125767500D02*
X103667500Y-125767500D01*
X133750000Y-153150000D02*
X133750000Y-152550000D01*
X91000000Y-122200000D02*
X94800000Y-122200000D01*
D52*
X90300000Y-136500000D02*
X90300000Y-135800000D01*
D53*
X86400000Y-118200000D02*
X87467500Y-118200000D01*
D54*
X58650000Y-129350000D02*
X59125000Y-129825000D01*
D53*
X123250000Y-152700000D02*
X124100000Y-153550000D01*
D54*
X59125000Y-129825000D02*
X59125000Y-131020000D01*
D53*
X122600000Y-137500000D02*
X123500000Y-138400000D01*
X91100000Y-118600000D02*
X94500000Y-122000000D01*
X94432500Y-135700000D02*
X94400000Y-135732500D01*
X84302500Y-136200000D02*
X83132500Y-136200000D01*
D52*
X90300000Y-137300000D02*
X88800000Y-137300000D01*
D53*
X103667500Y-126667500D02*
X103667500Y-125767500D01*
D54*
X59125000Y-124175000D02*
X59125000Y-123180000D01*
D53*
X108032500Y-126700000D02*
X108032500Y-125432500D01*
X103700000Y-126700000D02*
X103667500Y-126667500D01*
X123452500Y-105500000D02*
X123562500Y-105390000D01*
X92252500Y-149852500D02*
X92200000Y-149800000D01*
X80400000Y-148600000D02*
X80000000Y-148200000D01*
X89932500Y-131532500D02*
X89900000Y-131500000D01*
X88600000Y-118232500D02*
X87500000Y-118232500D01*
X88532500Y-124232500D02*
X88700000Y-124232500D01*
D52*
X89200000Y-136900000D02*
X88800000Y-137300000D01*
D53*
X90767500Y-134600000D02*
X91600000Y-134600000D01*
X126800000Y-103700000D02*
X126800000Y-101662500D01*
D55*
X59100000Y-133000000D02*
X59100000Y-131045000D01*
D53*
X87600000Y-124232500D02*
X88532500Y-124232500D01*
X108567500Y-120232500D02*
X108600000Y-120200000D01*
X80400000Y-149632500D02*
X80400000Y-148600000D01*
X96697500Y-132398750D02*
X96697500Y-131535000D01*
X93452500Y-150795000D02*
X93452500Y-149847500D01*
X133750000Y-152550000D02*
X132700000Y-151500000D01*
D52*
X90300000Y-135800000D02*
X90400000Y-135700000D01*
D53*
X101435000Y-115300000D02*
X101267500Y-115467500D01*
X102200000Y-115300000D02*
X101435000Y-115300000D01*
X94500000Y-122000000D02*
X95000000Y-122000000D01*
X107100000Y-126700000D02*
X108032500Y-126700000D01*
X86400000Y-126800000D02*
X87432500Y-126800000D01*
X85300000Y-133302500D02*
X84402500Y-133302500D01*
X126800000Y-116222500D02*
X126822500Y-116200000D01*
X102952500Y-146152500D02*
X102900000Y-146100000D01*
X77800000Y-149300000D02*
X77800000Y-150302500D01*
X123250000Y-148600000D02*
X122000000Y-148600000D01*
D52*
X88000000Y-138100000D02*
X88800000Y-137300000D01*
D53*
X95500000Y-122500000D02*
X95000000Y-122000000D01*
X91000000Y-124200000D02*
X92800000Y-124200000D01*
X101267500Y-115467500D02*
X101267500Y-116200000D01*
X90830000Y-131532500D02*
X89932500Y-131532500D01*
X121500000Y-105500000D02*
X123452500Y-105500000D01*
D54*
X71460000Y-103100000D02*
X74600000Y-103100000D01*
D52*
X88000000Y-136500000D02*
X88800000Y-137300000D01*
D53*
X97300000Y-114432500D02*
X97300000Y-113400000D01*
X121900000Y-151900000D02*
X123250000Y-151900000D01*
X91500000Y-140000000D02*
X90567500Y-140000000D01*
X86800000Y-148400000D02*
X87000000Y-148200000D01*
X98900000Y-122500000D02*
X95500000Y-122500000D01*
D52*
X89200000Y-137700000D02*
X88800000Y-137300000D01*
X89600000Y-136500000D02*
X88800000Y-137300000D01*
X90300000Y-136500000D02*
X89600000Y-136500000D01*
D53*
X102450000Y-151950000D02*
X102500000Y-151900000D01*
X126800000Y-118200000D02*
X126800000Y-116222500D01*
X96665000Y-130432500D02*
X96665000Y-131502500D01*
X85300000Y-132132500D02*
X85332500Y-132100000D01*
D52*
X87300000Y-137700000D02*
X88400000Y-137700000D01*
D53*
X103667500Y-125767500D02*
X104200000Y-125767500D01*
X94567500Y-139300000D02*
X94600000Y-139267500D01*
X101267500Y-115100000D02*
X101267500Y-115467500D01*
D54*
X57425000Y-129350000D02*
X58650000Y-129350000D01*
D53*
X77797500Y-154100000D02*
X77800000Y-154097500D01*
D54*
X57425000Y-124850000D02*
X58450000Y-124850000D01*
D53*
X92252500Y-150795000D02*
X92252500Y-149852500D01*
X94400000Y-134800000D02*
X94400000Y-135732500D01*
X86200000Y-140000000D02*
X87132500Y-140000000D01*
D52*
X89200000Y-135800000D02*
X89200000Y-136900000D01*
D53*
X92800000Y-124200000D02*
X95000000Y-122000000D01*
X96665000Y-131502500D02*
X96695000Y-131532500D01*
X123500000Y-138400000D02*
X124100000Y-138400000D01*
D52*
X88400000Y-137700000D02*
X88800000Y-137300000D01*
D53*
X84302500Y-136200000D02*
X84302500Y-135397500D01*
X83132500Y-136200000D02*
X83100000Y-136232500D01*
X82797500Y-134800000D02*
X83700000Y-134800000D01*
D52*
X87300000Y-136500000D02*
X88000000Y-136500000D01*
D53*
X100970000Y-151950000D02*
X102450000Y-151950000D01*
X122000000Y-148600000D02*
X121900000Y-148700000D01*
X90830000Y-130432500D02*
X90830000Y-131532500D01*
X93700000Y-139300000D02*
X94567500Y-139300000D01*
X88400000Y-124100000D02*
X88532500Y-124232500D01*
X108567500Y-122067500D02*
X109200000Y-122700000D01*
X93300000Y-134900000D02*
X93300000Y-135797500D01*
X79432500Y-139900000D02*
X78500000Y-139900000D01*
X94800000Y-122200000D02*
X95000000Y-122000000D01*
X84302500Y-135397500D02*
X84400000Y-135300000D01*
D55*
X59100000Y-123155000D02*
X59125000Y-123180000D01*
D53*
X87467500Y-118200000D02*
X87500000Y-118232500D01*
D55*
X59100000Y-121300000D02*
X59100000Y-123155000D01*
D53*
X126800000Y-101662500D02*
X126862500Y-101600000D01*
X87432500Y-126800000D02*
X87532500Y-126700000D01*
X83000000Y-140700000D02*
X83000000Y-139767500D01*
X96400000Y-135700000D02*
X94432500Y-135700000D01*
X85300000Y-133302500D02*
X85300000Y-132132500D01*
X76900000Y-154100000D02*
X77797500Y-154100000D01*
X133750000Y-139150000D02*
X133800000Y-139200000D01*
D54*
X58450000Y-124850000D02*
X59125000Y-124175000D01*
X70160000Y-104400000D02*
X71460000Y-103100000D01*
D53*
X108032500Y-125432500D02*
X107500000Y-124900000D01*
X84402500Y-133302500D02*
X84400000Y-133300000D01*
X108567500Y-121100000D02*
X108567500Y-122067500D01*
X96697500Y-131535000D02*
X96695000Y-131532500D01*
X93452500Y-149847500D02*
X93500000Y-149800000D01*
D52*
%TO.N,VDD_SYS*%
X88235000Y-127600000D02*
X85700000Y-127600000D01*
X89167500Y-126200000D02*
X88667500Y-126700000D01*
X89300000Y-128000000D02*
X88667500Y-127367500D01*
D53*
X93297500Y-136900000D02*
X94367500Y-136900000D01*
D52*
X95600000Y-127000000D02*
X95600000Y-128000000D01*
X97900000Y-136600000D02*
X97900000Y-130300000D01*
X97900000Y-130300000D02*
X95600000Y-128000000D01*
X88467500Y-127367500D02*
X88235000Y-127600000D01*
X87300000Y-111900000D02*
X93632500Y-111900000D01*
X88467500Y-127367500D02*
X88667500Y-127167500D01*
D53*
X94367500Y-136900000D02*
X94400000Y-136867500D01*
X93300000Y-138200000D02*
X93300000Y-136902500D01*
D52*
X92499502Y-128000000D02*
X89300000Y-128000000D01*
X97300000Y-116000000D02*
X97600000Y-116300000D01*
X90000000Y-126200000D02*
X89167500Y-126200000D01*
X88667500Y-127167500D02*
X88667500Y-126700000D01*
X88667500Y-127367500D02*
X88667500Y-127167500D01*
X85124520Y-114075480D02*
X87300000Y-111900000D01*
X97300000Y-115567500D02*
X97300000Y-116000000D01*
X92500000Y-127999502D02*
X92499502Y-128000000D01*
X97600000Y-116300000D02*
X97600000Y-117000000D01*
D53*
X93300000Y-138200000D02*
X94532500Y-138200000D01*
X96400000Y-138100000D02*
X94632500Y-138100000D01*
X93300000Y-136902500D02*
X93297500Y-136900000D01*
D52*
X85700000Y-127600000D02*
X85124520Y-127024520D01*
X93632500Y-111900000D02*
X97300000Y-115567500D01*
X88667500Y-127367500D02*
X88467500Y-127367500D01*
D53*
X94532500Y-138200000D02*
X94600000Y-138132500D01*
D52*
X96400000Y-138100000D02*
X97900000Y-136600000D01*
D53*
X94632500Y-138100000D02*
X94600000Y-138132500D01*
D52*
X85124520Y-127024520D02*
X85124520Y-114075480D01*
D54*
%TO.N,GNDA*%
X84700000Y-112300000D02*
X86650480Y-110349520D01*
D52*
X91502500Y-113400000D02*
X91502500Y-115570000D01*
D53*
X77100000Y-135032500D02*
X78300000Y-135032500D01*
D52*
X93200000Y-117700000D02*
X92900000Y-118000000D01*
X93200000Y-117000000D02*
X93200000Y-117700000D01*
D54*
X90500000Y-113400000D02*
X91502500Y-113400000D01*
D52*
X96400000Y-116300978D02*
X96400000Y-117000000D01*
D53*
X78532500Y-134800000D02*
X78300000Y-135032500D01*
X81550000Y-136140000D02*
X81550000Y-134852500D01*
D54*
X86650480Y-110349520D02*
X90500000Y-110349520D01*
X84100000Y-129300000D02*
X84700000Y-128700000D01*
X84700000Y-128700000D02*
X84700000Y-112300000D01*
D53*
X81550000Y-134852500D02*
X81602500Y-134800000D01*
D52*
X95699022Y-115600000D02*
X96400000Y-116300978D01*
D54*
X84100000Y-132100000D02*
X84100000Y-129300000D01*
X81602500Y-134800000D02*
X81602500Y-134597500D01*
D53*
X81602500Y-134800000D02*
X78532500Y-134800000D01*
D54*
X81602500Y-134597500D02*
X84100000Y-132100000D01*
D52*
X96400000Y-117000000D02*
X96400000Y-118000000D01*
X94967500Y-115600000D02*
X95699022Y-115600000D01*
X91502500Y-115570000D02*
X91532500Y-115600000D01*
%TO.N,Net-(C6-Pad2)*%
X92800000Y-117000000D02*
X92800000Y-115732500D01*
X92667500Y-115600000D02*
X92667500Y-114500000D01*
X92667500Y-114500000D02*
X92667500Y-113430000D01*
X92800000Y-115732500D02*
X92667500Y-115600000D01*
X92667500Y-113430000D02*
X92697500Y-113400000D01*
%TO.N,+2V5*%
X93600000Y-127000000D02*
X93600000Y-130062500D01*
D53*
X86467500Y-131000000D02*
X86467500Y-132100000D01*
D52*
X94400000Y-126300000D02*
X94400000Y-127000000D01*
X94600000Y-126100000D02*
X94400000Y-126300000D01*
D53*
X91398750Y-129200000D02*
X91997500Y-129798750D01*
D52*
X94400000Y-129262500D02*
X93230000Y-130432500D01*
X94400000Y-127000000D02*
X94400000Y-129262500D01*
D53*
X90000000Y-129200000D02*
X91398750Y-129200000D01*
X88200000Y-131000000D02*
X86467500Y-131000000D01*
X91997500Y-129798750D02*
X91997500Y-130400000D01*
D52*
X95200000Y-126300978D02*
X94999022Y-126100000D01*
X93600000Y-130062500D02*
X93230000Y-130432500D01*
D53*
X87900000Y-133000000D02*
X86802500Y-133000000D01*
D52*
X94000000Y-127000000D02*
X94000000Y-129662500D01*
D53*
X86467500Y-132100000D02*
X86467500Y-133270000D01*
X86802500Y-133000000D02*
X86500000Y-133302500D01*
D52*
X96000000Y-127000000D02*
X96000000Y-126300978D01*
D53*
X93197500Y-131532500D02*
X91965000Y-131532500D01*
D52*
X95799022Y-126100000D02*
X94900000Y-126100000D01*
D53*
X91997500Y-130400000D02*
X91965000Y-130432500D01*
X88200000Y-131000000D02*
X90000000Y-129200000D01*
D52*
X96000000Y-126300978D02*
X95799022Y-126100000D01*
X94999022Y-126100000D02*
X94900000Y-126100000D01*
D53*
X93197500Y-131532500D02*
X93197500Y-130465000D01*
X91965000Y-130432500D02*
X91965000Y-131532500D01*
D52*
X94000000Y-129662500D02*
X93230000Y-130432500D01*
X95200000Y-127000000D02*
X95200000Y-126300978D01*
X94900000Y-126100000D02*
X94600000Y-126100000D01*
D53*
X91965000Y-130432500D02*
X93230000Y-130432500D01*
X86467500Y-133270000D02*
X86500000Y-133302500D01*
D52*
%TO.N,Net-(C10-Pad2)*%
X93600000Y-115832500D02*
X93832500Y-115600000D01*
X93600000Y-117000000D02*
X93600000Y-115832500D01*
%TO.N,Net-(C11-Pad2)*%
X94800000Y-130365000D02*
X94867500Y-130432500D01*
X94867500Y-130432500D02*
X94365000Y-130432500D01*
X95500000Y-131532500D02*
X95500000Y-130462500D01*
X94392500Y-130460000D02*
X94365000Y-130432500D01*
X94800000Y-127000000D02*
X94800000Y-130365000D01*
X94392500Y-131532500D02*
X94392500Y-130460000D01*
X94392500Y-131532500D02*
X95500000Y-131532500D01*
X95500000Y-130462500D02*
X95530000Y-130432500D01*
X95530000Y-130432500D02*
X94867500Y-130432500D01*
%TO.N,HOSCI*%
X109167500Y-126700000D02*
X109167500Y-124932500D01*
X109200000Y-124200000D02*
X109200000Y-124900000D01*
X108800000Y-123800000D02*
X109200000Y-124200000D01*
X100000000Y-123800000D02*
X108800000Y-123800000D01*
X109167500Y-124932500D02*
X109200000Y-124900000D01*
%TO.N,HOSCO*%
X100000000Y-123400000D02*
X104200000Y-123400000D01*
X104900000Y-122700000D02*
X107500000Y-122700000D01*
X104200000Y-123400000D02*
X104900000Y-122700000D01*
X107432500Y-121100000D02*
X107432500Y-122632500D01*
X107432500Y-122632500D02*
X107500000Y-122700000D01*
D53*
%TO.N,+5V*%
X78100000Y-146600000D02*
X61200000Y-146600000D01*
X88900000Y-140000000D02*
X88267500Y-140000000D01*
D52*
X89200000Y-138800000D02*
X89200000Y-139767500D01*
D53*
X93452500Y-151930000D02*
X95210000Y-151930000D01*
X95230000Y-151950000D02*
X96250000Y-151950000D01*
X88240000Y-146560000D02*
X88240000Y-141800000D01*
D52*
X89600000Y-135800000D02*
X89600000Y-134632500D01*
D53*
X95210000Y-151930000D02*
X95230000Y-151950000D01*
D52*
X88800000Y-139900000D02*
X88900000Y-140000000D01*
D53*
X89200000Y-134167500D02*
X89632500Y-134600000D01*
D52*
X88400000Y-135300000D02*
X89100000Y-134600000D01*
D53*
X110000000Y-142000000D02*
X118200000Y-150200000D01*
D52*
X88400000Y-138800000D02*
X88400000Y-139867500D01*
D53*
X89432500Y-140000000D02*
X88900000Y-140000000D01*
X88240000Y-140027500D02*
X88267500Y-140000000D01*
X88240000Y-146560000D02*
X89700000Y-148020000D01*
D52*
X89300978Y-134600000D02*
X89632500Y-134600000D01*
X88800000Y-138800000D02*
X88800000Y-139900000D01*
D53*
X91030000Y-151930000D02*
X92252500Y-151930000D01*
X97300000Y-143300000D02*
X98600000Y-142000000D01*
D52*
X89600000Y-138800000D02*
X89600000Y-139832500D01*
D53*
X118700000Y-155100000D02*
X127900000Y-155100000D01*
X118200000Y-154600000D02*
X118700000Y-155100000D01*
X89700000Y-148020000D02*
X89700000Y-150600000D01*
X89200000Y-133500000D02*
X89200000Y-134167500D01*
X127900000Y-155100000D02*
X130800000Y-152200000D01*
D52*
X88400000Y-139867500D02*
X88267500Y-140000000D01*
X88800000Y-135800000D02*
X88800000Y-135100978D01*
D53*
X61200000Y-146600000D02*
X52700000Y-138100000D01*
D52*
X89200000Y-139767500D02*
X89432500Y-140000000D01*
D53*
X89700000Y-150600000D02*
X91030000Y-151930000D01*
X125900000Y-112600000D02*
X123762500Y-112600000D01*
X96250000Y-151950000D02*
X97300000Y-150900000D01*
X97300000Y-150900000D02*
X97300000Y-143300000D01*
D52*
X88800000Y-135100978D02*
X89300978Y-134600000D01*
D53*
X118200000Y-150200000D02*
X118200000Y-154600000D01*
X92252500Y-151930000D02*
X93452500Y-151930000D01*
X89700000Y-141800000D02*
X88240000Y-141800000D01*
X130800000Y-125500000D02*
X134300000Y-122000000D01*
D52*
X89600000Y-134632500D02*
X89632500Y-134600000D01*
D53*
X134300000Y-122000000D02*
X134300000Y-112400000D01*
D52*
X88400000Y-135800000D02*
X88400000Y-135300000D01*
D53*
X59985000Y-101900000D02*
X62525000Y-101900000D01*
D52*
X89100000Y-134600000D02*
X89632500Y-134600000D01*
X89600000Y-139832500D02*
X89432500Y-140000000D01*
D53*
X88240000Y-141800000D02*
X88240000Y-140027500D01*
X130800000Y-152200000D02*
X130800000Y-125500000D01*
X98600000Y-142000000D02*
X110000000Y-142000000D01*
X123762500Y-112600000D02*
X123562500Y-112400000D01*
D54*
%TO.N,+3V0*%
X83000000Y-127324614D02*
X83000000Y-132000000D01*
X81900000Y-133100000D02*
X76300000Y-133100000D01*
D53*
X78337500Y-136130000D02*
X78300000Y-136167500D01*
D54*
X86075480Y-109524520D02*
X84224520Y-111375480D01*
D52*
X117402500Y-111102500D02*
X117400000Y-111100000D01*
X117402500Y-112200000D02*
X117402500Y-111102500D01*
D53*
X75300000Y-136200000D02*
X77067500Y-136200000D01*
D54*
X93725020Y-109524520D02*
X86075480Y-109524520D01*
X76300000Y-133100000D02*
X75300000Y-134100000D01*
X84224520Y-126100094D02*
X83000000Y-127324614D01*
X75300000Y-134100000D02*
X75300000Y-136200000D01*
D53*
X77100000Y-136167500D02*
X78300000Y-136167500D01*
X79650000Y-136130000D02*
X78337500Y-136130000D01*
D52*
X94000000Y-117000000D02*
X94000000Y-118000000D01*
D53*
X77067500Y-136200000D02*
X77100000Y-136167500D01*
D54*
X94000000Y-109799500D02*
X93725020Y-109524520D01*
X83000000Y-132000000D02*
X81900000Y-133100000D01*
X84224520Y-111375480D02*
X84224520Y-126100094D01*
D53*
%TO.N,Net-(C32-Pad1)*%
X102952500Y-148130000D02*
X100970000Y-148130000D01*
D52*
%TO.N,Net-(C35-Pad1)*%
X118600000Y-113432500D02*
X118567500Y-113400000D01*
X118600000Y-115900000D02*
X118600000Y-113432500D01*
X118567500Y-113400000D02*
X118567500Y-112230000D01*
X118567500Y-112230000D02*
X118597500Y-112200000D01*
%TO.N,MIC_IN*%
X88900000Y-107400000D02*
X116300000Y-107400000D01*
X89500000Y-116000000D02*
X88900000Y-115400000D01*
X91200000Y-116400000D02*
X90800000Y-116000000D01*
X90800000Y-116000000D02*
X89500000Y-116000000D01*
X116400000Y-113400000D02*
X117432500Y-113400000D01*
X116300000Y-113300000D02*
X116400000Y-113400000D01*
X88900000Y-115400000D02*
X88900000Y-113049020D01*
X91200000Y-117000000D02*
X91200000Y-116400000D01*
%TO.N,SDC0_D2*%
X117800000Y-141200000D02*
X117800000Y-140405000D01*
X101900000Y-123000000D02*
X105769417Y-119130583D01*
X109430583Y-119130583D02*
X114000960Y-123700960D01*
X123250000Y-143100000D02*
X119700000Y-143100000D01*
X100000000Y-123000000D02*
X101900000Y-123000000D01*
X116300000Y-140400000D02*
X117805000Y-140400000D01*
X117800000Y-140405000D02*
X117805000Y-140400000D01*
X114000960Y-138100960D02*
X116300000Y-140400000D01*
X119700000Y-143100000D02*
X117800000Y-141200000D01*
X105769417Y-119130583D02*
X109430583Y-119130583D01*
X114000960Y-123700960D02*
X114000960Y-138100960D01*
%TO.N,SDC0_D3*%
X117802500Y-139202500D02*
X117802500Y-138500000D01*
X116000000Y-138500000D02*
X117802500Y-138500000D01*
X124100000Y-144200000D02*
X123250000Y-144200000D01*
X124500000Y-142200000D02*
X124500000Y-143800000D01*
X124500000Y-142200000D02*
X121600000Y-139300000D01*
X101731063Y-122600000D02*
X105600000Y-118731063D01*
X121600000Y-139300000D02*
X117900000Y-139300000D01*
X114400480Y-123497029D02*
X114400480Y-136900480D01*
X117900000Y-139300000D02*
X117802500Y-139202500D01*
X100000000Y-122600000D02*
X101731063Y-122600000D01*
X114400480Y-136900480D02*
X116000000Y-138500000D01*
X105600000Y-118731063D02*
X109634514Y-118731063D01*
X124500000Y-143800000D02*
X124100000Y-144200000D01*
X109634514Y-118731063D02*
X114400480Y-123497029D01*
%TO.N,SDC0_CMD*%
X118800000Y-137500000D02*
X118402500Y-137102500D01*
X118402500Y-137102500D02*
X118402500Y-136400000D01*
X125600000Y-142300000D02*
X125600000Y-144800000D01*
X125100000Y-145300000D02*
X123250000Y-145300000D01*
X115700000Y-136400000D02*
X118402500Y-136400000D01*
X114800000Y-123331543D02*
X114800000Y-135500000D01*
X109800000Y-118331543D02*
X114800000Y-123331543D01*
X125600000Y-144800000D02*
X125100000Y-145300000D01*
X125600000Y-142300000D02*
X120800000Y-137500000D01*
X101500000Y-122200000D02*
X105368457Y-118331543D01*
X100000000Y-122200000D02*
X101500000Y-122200000D01*
X120800000Y-137500000D02*
X118800000Y-137500000D01*
X114800000Y-135500000D02*
X115700000Y-136400000D01*
X105368457Y-118331543D02*
X109800000Y-118331543D01*
%TO.N,SDC0_CLK*%
X126100000Y-147500000D02*
X123250000Y-147500000D01*
X105097989Y-117932023D02*
X110000000Y-117932023D01*
X116000000Y-135500000D02*
X123900000Y-135500000D01*
X110000000Y-117932023D02*
X115400000Y-123332023D01*
X101230012Y-121800000D02*
X105097989Y-117932023D01*
X100000000Y-121800000D02*
X101230012Y-121800000D01*
X126700000Y-138300000D02*
X126700000Y-146900000D01*
X115400000Y-123332023D02*
X115400000Y-134900000D01*
X126700000Y-146900000D02*
X126100000Y-147500000D01*
X123900000Y-135500000D02*
X126700000Y-138300000D01*
X115400000Y-134900000D02*
X116000000Y-135500000D01*
%TO.N,SDC0_D0*%
X110167497Y-117532503D02*
X115900480Y-123265486D01*
X127100000Y-138100000D02*
X123000489Y-134000489D01*
X118599511Y-134000489D02*
X118400000Y-134200000D01*
X115900480Y-123265486D02*
X115900480Y-133900480D01*
X126200000Y-149700000D02*
X127100000Y-148800000D01*
X118400000Y-134200000D02*
X118400000Y-134697500D01*
X123000489Y-134000489D02*
X118599511Y-134000489D01*
X123250000Y-149700000D02*
X126200000Y-149700000D01*
X101065006Y-121400000D02*
X104932503Y-117532503D01*
X104932503Y-117532503D02*
X110167497Y-117532503D01*
X100000000Y-121400000D02*
X101065006Y-121400000D01*
X118400000Y-134697500D02*
X118402500Y-134700000D01*
X115900480Y-133900480D02*
X116700000Y-134700000D01*
X127100000Y-148800000D02*
X127100000Y-138100000D01*
X116700000Y-134700000D02*
X118402500Y-134700000D01*
%TO.N,SDC0_D1*%
X104800000Y-117100000D02*
X110300000Y-117100000D01*
X122000000Y-132400000D02*
X127500000Y-137900000D01*
X118402500Y-132597500D02*
X118402500Y-133200000D01*
X127500000Y-137900000D02*
X127500000Y-149400000D01*
X100000000Y-121000000D02*
X100900000Y-121000000D01*
X118600000Y-132400000D02*
X122000000Y-132400000D01*
X127500000Y-149400000D02*
X126100000Y-150800000D01*
X110300000Y-117100000D02*
X116300000Y-123100000D01*
X116300000Y-123100000D02*
X116300000Y-132400000D01*
X126100000Y-150800000D02*
X123250000Y-150800000D01*
X116300000Y-132400000D02*
X117100000Y-133200000D01*
X100900000Y-121000000D02*
X104800000Y-117100000D01*
X117100000Y-133200000D02*
X118402500Y-133200000D01*
X118600000Y-132400000D02*
X118402500Y-132597500D01*
%TO.N,LED_USER*%
X97200000Y-127700000D02*
X97200000Y-127000000D01*
D54*
X106427500Y-153300000D02*
X100100000Y-153300000D01*
D52*
X96800000Y-128100000D02*
X97200000Y-127700000D01*
D54*
%TO.N,Net-(D1-Pad2)*%
X109297500Y-153300000D02*
X109300000Y-153297500D01*
X107572500Y-153300000D02*
X109297500Y-153300000D01*
D52*
%TO.N,LED_SYS*%
X100700000Y-125900000D02*
X100700000Y-128100000D01*
X100700000Y-128100000D02*
X104200000Y-131600000D01*
X104200000Y-151700000D02*
X106427500Y-151700000D01*
X100600000Y-125800000D02*
X100700000Y-125900000D01*
X100000000Y-125800000D02*
X100600000Y-125800000D01*
X104200000Y-131600000D02*
X104200000Y-139800000D01*
D54*
%TO.N,Net-(D2-Pad2)*%
X108097500Y-149502500D02*
X109300000Y-149502500D01*
X107572500Y-150027500D02*
X108097500Y-149502500D01*
X107572500Y-151700000D02*
X107572500Y-150027500D01*
D53*
%TO.N,VBUS*%
X86050489Y-149400000D02*
X85960000Y-149309511D01*
X86050489Y-149582011D02*
X86050489Y-149400000D01*
X81200000Y-149632500D02*
X81200000Y-143700000D01*
X86000000Y-149632500D02*
X86050489Y-149582011D01*
X85960000Y-149309511D02*
X85960000Y-141800000D01*
X81200000Y-143700000D02*
X83100000Y-141800000D01*
X83100000Y-141800000D02*
X85960000Y-141800000D01*
D52*
%TO.N,USB_ID*%
X99200000Y-130100000D02*
X100035000Y-130935000D01*
X99200000Y-127000000D02*
X99200000Y-130100000D01*
X105300000Y-126800000D02*
X104800000Y-127300000D01*
X100035000Y-130935000D02*
X101300000Y-130935000D01*
X105300000Y-125797500D02*
X105300000Y-126800000D01*
%TO.N,SDA_1*%
X83300000Y-122900000D02*
X82600000Y-122200000D01*
X82600000Y-122200000D02*
X67300000Y-122200000D01*
X87300000Y-122900000D02*
X88000000Y-122200000D01*
X88000000Y-122200000D02*
X90000000Y-122200000D01*
%TO.N,SCL_1*%
X67800000Y-118900000D02*
X67400000Y-119300000D01*
X86999500Y-121946742D02*
X87146242Y-121800000D01*
X74400000Y-121400000D02*
X71900000Y-118900000D01*
X83467324Y-121862535D02*
X83004789Y-121400000D01*
X83004789Y-121400000D02*
X74400000Y-121400000D01*
X87146242Y-121800000D02*
X90000000Y-121800000D01*
X71900000Y-118900000D02*
X67800000Y-118900000D01*
%TO.N,PD0*%
X90917226Y-119800000D02*
X90921469Y-119804243D01*
X90000000Y-119800000D02*
X90917226Y-119800000D01*
%TO.N,PD1*%
X88935096Y-120200000D02*
X88802064Y-120333032D01*
X83100000Y-119900000D02*
X83100000Y-117800000D01*
X90000000Y-120200000D02*
X88935096Y-120200000D01*
%TO.N,SPI1_MOSI*%
X102800500Y-111600000D02*
X103000000Y-111799500D01*
X100300000Y-109100000D02*
X80000000Y-109100000D01*
X71097500Y-116700000D02*
X71097500Y-116197500D01*
X72400000Y-116700000D02*
X71097500Y-116700000D01*
X61600000Y-128200000D02*
X60950000Y-128850000D01*
X60950000Y-128850000D02*
X57425000Y-128850000D01*
X103000000Y-111799500D02*
X103000000Y-117100000D01*
X61600000Y-118700000D02*
X61600000Y-128200000D01*
X64300000Y-116000000D02*
X61600000Y-118700000D01*
X71097500Y-116197500D02*
X70900000Y-116000000D01*
X100700000Y-119400000D02*
X100000000Y-119400000D01*
X100900000Y-109700000D02*
X100300000Y-109100000D01*
X80000000Y-109100000D02*
X72400000Y-116700000D01*
X103000000Y-117100000D02*
X100700000Y-119400000D01*
X70900000Y-116000000D02*
X64300000Y-116000000D01*
%TO.N,SPI1_MISO*%
X79000480Y-108699520D02*
X72400000Y-115300000D01*
X101900000Y-109000000D02*
X101599520Y-108699520D01*
X55650000Y-128350000D02*
X57425000Y-128350000D01*
X100000000Y-119800000D02*
X100865006Y-119800000D01*
X62200000Y-114600000D02*
X55100000Y-121700000D01*
X72400000Y-115300000D02*
X71095000Y-115300000D01*
X71095000Y-115095000D02*
X70600000Y-114600000D01*
X55100000Y-127800000D02*
X55650000Y-128350000D01*
X55100000Y-121700000D02*
X55100000Y-127800000D01*
X70600000Y-114600000D02*
X62200000Y-114600000D01*
X101599520Y-108699520D02*
X79000480Y-108699520D01*
X100865006Y-119800000D02*
X103500000Y-117165006D01*
X103500000Y-117165006D02*
X103500000Y-110700000D01*
X71095000Y-115300000D02*
X71095000Y-115095000D01*
%TO.N,SPI1_CLK*%
X60600000Y-127800000D02*
X60550000Y-127850000D01*
X100000000Y-120600000D02*
X98974502Y-120600000D01*
X71097500Y-118200000D02*
X70297500Y-117400000D01*
X62600000Y-123100000D02*
X62600000Y-127800000D01*
X68300000Y-117400000D02*
X62600000Y-123100000D01*
X79500000Y-118200000D02*
X71097500Y-118200000D01*
X81900000Y-120600000D02*
X79500000Y-118200000D01*
X60550000Y-127850000D02*
X57425000Y-127850000D01*
X70297500Y-117400000D02*
X68300000Y-117400000D01*
%TO.N,SPI1_CS*%
X100000000Y-120200000D02*
X101030012Y-120200000D01*
X70900000Y-112500000D02*
X71300000Y-112500000D01*
X62500000Y-112500000D02*
X70900000Y-112500000D01*
X71095000Y-112705000D02*
X71095000Y-113900000D01*
X71095000Y-112705000D02*
X71095000Y-112695000D01*
X54100000Y-127300000D02*
X54100000Y-120900000D01*
X104600000Y-116630012D02*
X104600000Y-110000000D01*
X75500000Y-108300000D02*
X71350000Y-112450000D01*
X71095000Y-112695000D02*
X70900000Y-112500000D01*
X71300000Y-112500000D02*
X71350000Y-112450000D01*
X57425000Y-127350000D02*
X56150000Y-127350000D01*
X56150000Y-127350000D02*
X56100000Y-127300000D01*
X71350000Y-112450000D02*
X71095000Y-112705000D01*
X54100000Y-120900000D02*
X62500000Y-112500000D01*
X102900000Y-108300000D02*
X75500000Y-108300000D01*
X101030012Y-120200000D02*
X104600000Y-116630012D01*
%TO.N,LCD_~{RESET}*%
X70600000Y-120900000D02*
X71097500Y-120402500D01*
X60897240Y-126850000D02*
X60900500Y-126846740D01*
X57425000Y-126850000D02*
X60897240Y-126850000D01*
X62999520Y-124660627D02*
X66760147Y-120900000D01*
X76500000Y-128800000D02*
X74500000Y-126800000D01*
X66760147Y-120900000D02*
X70600000Y-120900000D01*
X71097500Y-120402500D02*
X71097500Y-119600000D01*
X82275500Y-128800000D02*
X76500000Y-128800000D01*
X62999520Y-126199520D02*
X62999520Y-124660627D01*
X63600000Y-126800000D02*
X62999520Y-126199520D01*
X97600000Y-128799500D02*
X97600000Y-127000000D01*
X74500000Y-126800000D02*
X63600000Y-126800000D01*
%TO.N,LCD_D{slash}C*%
X99200000Y-126200000D02*
X99200000Y-126197092D01*
X100000000Y-126200000D02*
X99200000Y-126200000D01*
X83200000Y-125700000D02*
X63800000Y-125700000D01*
X83400000Y-125900000D02*
X83200000Y-125700000D01*
X57425000Y-126350000D02*
X60150000Y-126350000D01*
X99200000Y-126197092D02*
X99010174Y-126007266D01*
X60150000Y-126350000D02*
X60800000Y-125700000D01*
%TO.N,LCD_BL*%
X61800000Y-129500000D02*
X81562205Y-129500000D01*
X57425000Y-125350000D02*
X59250000Y-125350000D01*
X81562205Y-129500000D02*
X81581187Y-129518982D01*
X98800000Y-129174848D02*
X98800000Y-127000000D01*
X98500500Y-129474348D02*
X98800000Y-129174848D01*
X59250000Y-125350000D02*
X59300000Y-125300000D01*
%TO.N,LX2*%
X85800000Y-138800000D02*
X85700000Y-138700000D01*
X88000000Y-138800000D02*
X85800000Y-138800000D01*
%TO.N,Net-(L2-Pad1)*%
X91800000Y-138100000D02*
X91900000Y-138200000D01*
X90300000Y-138100000D02*
X91800000Y-138100000D01*
%TO.N,LX3*%
X88000000Y-134500000D02*
X87900000Y-134400000D01*
X88000000Y-135800000D02*
X88000000Y-134500000D01*
%TO.N,Net-(R1-Pad2)*%
X90000000Y-119000000D02*
X89300978Y-119000000D01*
X89209520Y-118908542D02*
X89209520Y-117512020D01*
X89300978Y-119000000D02*
X89209520Y-118908542D01*
X89209520Y-117512020D02*
X88697500Y-117000000D01*
%TO.N,~{RESET}*%
X98000000Y-117000000D02*
X98000000Y-113200000D01*
X112297500Y-112997500D02*
X110600000Y-111300000D01*
X110600000Y-111300000D02*
X105900000Y-111300000D01*
X105900000Y-113000000D02*
X105900000Y-111300000D01*
X98000000Y-113200000D02*
X99500000Y-111700000D01*
X112297500Y-114200000D02*
X112297500Y-112997500D01*
%TO.N,TV_VCC*%
X95800000Y-115135972D02*
X95800000Y-114700000D01*
X95600000Y-114500000D02*
X94997500Y-114500000D01*
X96800000Y-116135972D02*
X95800000Y-115135972D01*
X95800000Y-114700000D02*
X95600000Y-114500000D01*
X96800000Y-117000000D02*
X96800000Y-116135972D01*
%TO.N,FB2*%
X85497500Y-137300000D02*
X85497500Y-136200000D01*
X87300000Y-137300000D02*
X85497500Y-137300000D01*
%TO.N,Net-(R10-Pad1)*%
X92102500Y-135800000D02*
X92102500Y-136900000D01*
X90300000Y-136900000D02*
X92102500Y-136900000D01*
%TO.N,FB3*%
X87300000Y-136900000D02*
X86600000Y-136900000D01*
X86400000Y-134597500D02*
X86500000Y-134497500D01*
X86400000Y-136700000D02*
X86400000Y-134597500D01*
X86600000Y-136900000D02*
X86400000Y-136700000D01*
X85300000Y-134497500D02*
X86500000Y-134497500D01*
D54*
%TO.N,Net-(R19-Pad2)*%
X78002500Y-151700000D02*
X82000000Y-151700000D01*
X77800000Y-151497500D02*
X78002500Y-151700000D01*
X82350000Y-151350000D02*
X82350000Y-149632500D01*
X82000000Y-151700000D02*
X82350000Y-151350000D01*
%TO.N,Net-(R20-Pad1)*%
X85350000Y-151050000D02*
X85300000Y-151100000D01*
X85350000Y-149632500D02*
X85350000Y-151050000D01*
X83600000Y-152900000D02*
X77802500Y-152900000D01*
X77802500Y-152900000D02*
X77800000Y-152902500D01*
D52*
%TO.N,UART0_TX*%
X105300000Y-150700000D02*
X105280000Y-150680000D01*
X105280000Y-150680000D02*
X100970000Y-150680000D01*
X106900000Y-149100000D02*
X105300000Y-150700000D01*
X106900000Y-143100000D02*
X106900000Y-149100000D01*
X100000000Y-125000000D02*
X100622212Y-125000000D01*
X100622212Y-125000000D02*
X106900000Y-131277788D01*
X106900000Y-131277788D02*
X106900000Y-139900000D01*
%TO.N,UART0_RX*%
X105600000Y-148600000D02*
X104790000Y-149410000D01*
X101805728Y-125194272D02*
X101211456Y-124600000D01*
X105600000Y-143100000D02*
X105600000Y-148600000D01*
X105600000Y-131400000D02*
X105600000Y-139900000D01*
X101211456Y-124600000D02*
X100000000Y-124600000D01*
X101455728Y-127255728D02*
X105600000Y-131400000D01*
X104790000Y-149410000D02*
X100970000Y-149410000D01*
%TO.N,USB_DP*%
X118274751Y-128224752D02*
X126293448Y-128224752D01*
X126293448Y-128224752D02*
X132425000Y-122093200D01*
X111325000Y-129093200D02*
X112192951Y-128225249D01*
X83825000Y-148177499D02*
X83825000Y-146174503D01*
X123562500Y-107900000D02*
X121462499Y-107900000D01*
X112192951Y-128225249D02*
X112525249Y-128225249D01*
X121462499Y-107900000D02*
X120687499Y-108675000D01*
X98399500Y-113982300D02*
X98399500Y-116257287D01*
X132425000Y-110306800D02*
X130793200Y-108675000D01*
X91693448Y-144324752D02*
X94793200Y-141225000D01*
X103706800Y-108675000D02*
X98399500Y-113982300D01*
X125137500Y-108675000D02*
X124362500Y-107900000D01*
X112525249Y-128225249D02*
X112800000Y-128500000D01*
X98399500Y-116257287D02*
X98400000Y-116257787D01*
X130793200Y-108675000D02*
X125137500Y-108675000D01*
X94793200Y-141225000D02*
X108793200Y-141225000D01*
X84350000Y-149632500D02*
X84350000Y-148702499D01*
X118000000Y-128499503D02*
X118274751Y-128224752D01*
X84350000Y-148702499D02*
X83825000Y-148177499D01*
X108793200Y-141225000D02*
X111325000Y-138693200D01*
X98400000Y-116257787D02*
X98400000Y-117000000D01*
X132425000Y-122093200D02*
X132425000Y-110306800D01*
X83825000Y-146174503D02*
X84199503Y-145800000D01*
X111325000Y-138693200D02*
X111325000Y-129093200D01*
X91174751Y-144324752D02*
X91693448Y-144324752D01*
X120687499Y-108675000D02*
X103706800Y-108675000D01*
X90900000Y-144599503D02*
X91174751Y-144324752D01*
%TO.N,D-*%
X92093200Y-154275000D02*
X96947261Y-154275000D01*
X99131339Y-146010000D02*
X99685000Y-146010000D01*
X100095000Y-145600000D02*
X100970000Y-145600000D01*
X83850000Y-150562501D02*
X83825000Y-150587501D01*
X83850000Y-149632500D02*
X83850000Y-150562501D01*
X90093200Y-152275000D02*
X92093200Y-154275000D01*
X96947261Y-154275000D02*
X98075000Y-153147261D01*
X98075000Y-147066339D02*
X99131339Y-146010000D01*
X85393200Y-152275000D02*
X90093200Y-152275000D01*
X98075000Y-153147261D02*
X98075000Y-147066339D01*
X83825000Y-150587501D02*
X83825000Y-150706800D01*
X99685000Y-146010000D02*
X100095000Y-145600000D01*
X83825000Y-150706800D02*
X85393200Y-152275000D01*
%TO.N,D+*%
X83350000Y-150562501D02*
X83375000Y-150587501D01*
X99685000Y-146460000D02*
X100095000Y-146870000D01*
X99317739Y-146460000D02*
X99685000Y-146460000D01*
X97133661Y-154725000D02*
X98525000Y-153333661D01*
X91906800Y-154725000D02*
X97133661Y-154725000D01*
X89906800Y-152725000D02*
X91906800Y-154725000D01*
X83375000Y-150587501D02*
X83375000Y-150893200D01*
X98525000Y-147252739D02*
X99317739Y-146460000D01*
X85206800Y-152725000D02*
X89906800Y-152725000D01*
X83350000Y-149632500D02*
X83350000Y-150562501D01*
X83375000Y-150893200D02*
X85206800Y-152725000D01*
X98525000Y-153333661D02*
X98525000Y-147252739D01*
X100095000Y-146870000D02*
X100970000Y-146870000D01*
%TO.N,USB_DN*%
X82850000Y-148702499D02*
X83375000Y-148177499D01*
X108606800Y-140775000D02*
X110875000Y-138506800D01*
X91507049Y-143874751D02*
X94606800Y-140775000D01*
X98849500Y-116257287D02*
X98800000Y-116306787D01*
X112525249Y-127775248D02*
X112800000Y-127500497D01*
X82850000Y-149632500D02*
X82850000Y-148702499D01*
X131975000Y-121906800D02*
X131975000Y-110493200D01*
X118274751Y-127774751D02*
X126107049Y-127774751D01*
X118000000Y-127500000D02*
X118274751Y-127774751D01*
X123562500Y-109900000D02*
X121462499Y-109900000D01*
X83375000Y-148177499D02*
X83375000Y-145975000D01*
X103893200Y-109125000D02*
X98849500Y-114168700D01*
X110875000Y-138506800D02*
X110875000Y-128906800D01*
X125137500Y-109125000D02*
X124362500Y-109900000D01*
X98849500Y-114168700D02*
X98849500Y-116257287D01*
X130606800Y-109125000D02*
X125137500Y-109125000D01*
X131975000Y-110493200D02*
X130606800Y-109125000D01*
X110875000Y-128906800D02*
X112006552Y-127775248D01*
X90900000Y-143600000D02*
X91174751Y-143874751D01*
X98800000Y-116306787D02*
X98800000Y-117000000D01*
X112006552Y-127775248D02*
X112525249Y-127775248D01*
X94606800Y-140775000D02*
X108606800Y-140775000D01*
X120687499Y-109125000D02*
X103893200Y-109125000D01*
X126107049Y-127774751D02*
X131975000Y-121906800D01*
X83375000Y-145975000D02*
X83200000Y-145800000D01*
X121462499Y-109900000D02*
X120687499Y-109125000D01*
X91174751Y-143874751D02*
X91507049Y-143874751D01*
%TD*%
M02*
